FatemiMaqala-Regular.ufo
<glyph name="exclam" format="2">
  <advance width="482"/>
  <unicode hex="0021"/>
  <outline>
    <contour>
      <point x="250" y="1284" type="curve" smooth="yes"/>
      <point x="279" y="1284"/>
      <point x="301" y="1272"/>
      <point x="316" y="1248" type="curve" smooth="yes"/>
      <point x="331" y="1224"/>
      <point x="338" y="1198"/>
      <point x="338" y="1168" type="curve" smooth="yes"/>
      <point x="338" y="1151"/>
      <point x="335" y="1113"/>
      <point x="330" y="1054" type="curve" smooth="yes"/>
      <point x="325" y="995"/>
      <point x="317" y="896"/>
      <point x="304" y="754" type="curve" smooth="yes"/>
      <point x="291" y="612"/>
      <point x="279" y="475"/>
      <point x="268" y="344" type="curve"/>
      <point x="260" y="328"/>
      <point x="249" y="319"/>
      <point x="236" y="318" type="curve"/>
      <point x="223" y="323"/>
      <point x="215" y="331"/>
      <point x="210" y="340" type="curve" smooth="yes"/>
      <point x="170" y="800"/>
      <point x="150" y="1076"/>
      <point x="150" y="1168" type="curve" smooth="yes"/>
      <point x="150" y="1198"/>
      <point x="160" y="1224"/>
      <point x="178" y="1248" type="curve" smooth="yes"/>
      <point x="196" y="1272"/>
      <point x="220" y="1284"/>
    </contour>
    <contour>
      <point x="130" y="90" type="curve" smooth="yes"/>
      <point x="130" y="120"/>
      <point x="142" y="145"/>
      <point x="164" y="166" type="curve" smooth="yes"/>
      <point x="186" y="187"/>
      <point x="212" y="198"/>
      <point x="242" y="198" type="curve" smooth="yes"/>
      <point x="272" y="198"/>
      <point x="297" y="187"/>
      <point x="318" y="166" type="curve" smooth="yes"/>
      <point x="339" y="145"/>
      <point x="350" y="120"/>
      <point x="350" y="90" type="curve" smooth="yes"/>
      <point x="350" y="60"/>
      <point x="339" y="34"/>
      <point x="318" y="12" type="curve" smooth="yes"/>
      <point x="297" y="-10"/>
      <point x="272" y="-22"/>
      <point x="242" y="-22" type="curve" smooth="yes"/>
      <point x="212" y="-22"/>
      <point x="186" y="-10"/>
      <point x="164" y="12" type="curve" smooth="yes"/>
      <point x="142" y="34"/>
      <point x="130" y="60"/>
    </contour>
  </outline>
</glyph>
<glyph name="percent" format="2">
  <advance width="1334"/>
  <unicode hex="0025"/>
  <outline>
    <contour>
      <point x="1196" y="1248" type="curve" smooth="yes"/>
      <point x="230" y="0" type="line" smooth="yes"/>
      <point x="226" y="-5"/>
      <point x="216" y="-11"/>
      <point x="202" y="-16" type="curve" smooth="yes"/>
      <point x="188" y="-21"/>
      <point x="175" y="-24"/>
      <point x="164" y="-24" type="curve" smooth="yes"/>
      <point x="147" y="-24"/>
      <point x="135" y="-17"/>
      <point x="128" y="-2" type="curve"/>
      <point x="1092" y="1248" type="line" smooth="yes"/>
      <point x="1105" y="1264"/>
      <point x="1119" y="1272"/>
      <point x="1132" y="1272" type="curve" smooth="yes"/>
      <point x="1146" y="1272"/>
      <point x="1157" y="1271"/>
      <point x="1164" y="1270" type="curve" smooth="yes"/>
      <point x="1171" y="1269"/>
      <point x="1176" y="1269"/>
      <point x="1178" y="1268" type="curve" smooth="yes"/>
      <point x="1180" y="1267"/>
      <point x="1184" y="1264"/>
      <point x="1187" y="1259" type="curve" smooth="yes"/>
      <point x="1190" y="1254"/>
      <point x="1193" y="1251"/>
    </contour>
    <contour>
      <point x="958" y="626" type="curve" smooth="yes"/>
      <point x="1043" y="626"/>
      <point x="1113" y="595"/>
      <point x="1168" y="532" type="curve" smooth="yes"/>
      <point x="1223" y="469"/>
      <point x="1250" y="393"/>
      <point x="1250" y="304" type="curve" smooth="yes"/>
      <point x="1250" y="219"/>
      <point x="1223" y="146"/>
      <point x="1169" y="82" type="curve" smooth="yes"/>
      <point x="1115" y="18"/>
      <point x="1044" y="-14"/>
      <point x="956" y="-14" type="curve" smooth="yes"/>
      <point x="873" y="-14"/>
      <point x="802" y="17"/>
      <point x="744" y="79" type="curve" smooth="yes"/>
      <point x="686" y="141"/>
      <point x="656" y="216"/>
      <point x="656" y="304" type="curve" smooth="yes"/>
      <point x="656" y="395"/>
      <point x="684" y="471"/>
      <point x="741" y="533" type="curve" smooth="yes"/>
      <point x="798" y="595"/>
      <point x="870" y="626"/>
    </contour>
    <contour>
      <point x="950" y="578" type="curve" smooth="yes"/>
      <point x="913" y="578"/>
      <point x="881" y="565"/>
      <point x="855" y="539" type="curve" smooth="yes"/>
      <point x="829" y="513"/>
      <point x="811" y="482"/>
      <point x="800" y="446" type="curve" smooth="yes"/>
      <point x="789" y="410"/>
      <point x="784" y="370"/>
      <point x="784" y="328" type="curve" smooth="yes"/>
      <point x="784" y="257"/>
      <point x="802" y="190"/>
      <point x="840" y="128" type="curve" smooth="yes"/>
      <point x="878" y="66"/>
      <point x="921" y="36"/>
      <point x="970" y="36" type="curve" smooth="yes"/>
      <point x="997" y="36"/>
      <point x="1022" y="43"/>
      <point x="1042" y="58" type="curve" smooth="yes"/>
      <point x="1062" y="73"/>
      <point x="1077" y="94"/>
      <point x="1088" y="119" type="curve" smooth="yes"/>
      <point x="1099" y="144"/>
      <point x="1106" y="171"/>
      <point x="1111" y="199" type="curve" smooth="yes"/>
      <point x="1116" y="227"/>
      <point x="1118" y="257"/>
      <point x="1118" y="288" type="curve" smooth="yes"/>
      <point x="1118" y="334"/>
      <point x="1111" y="378"/>
      <point x="1098" y="422" type="curve" smooth="yes"/>
      <point x="1085" y="466"/>
      <point x="1066" y="503"/>
      <point x="1040" y="533" type="curve" smooth="yes"/>
      <point x="1014" y="563"/>
      <point x="983" y="578"/>
    </contour>
    <contour>
      <point x="380" y="1290" type="curve" smooth="yes"/>
      <point x="465" y="1290"/>
      <point x="536" y="1259"/>
      <point x="591" y="1196" type="curve" smooth="yes"/>
      <point x="646" y="1133"/>
      <point x="674" y="1057"/>
      <point x="674" y="968" type="curve" smooth="yes"/>
      <point x="674" y="914"/>
      <point x="663" y="863"/>
      <point x="640" y="815" type="curve" smooth="yes"/>
      <point x="617" y="767"/>
      <point x="582" y="727"/>
      <point x="536" y="696" type="curve" smooth="yes"/>
      <point x="490" y="665"/>
      <point x="438" y="650"/>
      <point x="380" y="650" type="curve" smooth="yes"/>
      <point x="297" y="650"/>
      <point x="226" y="681"/>
      <point x="168" y="743" type="curve" smooth="yes"/>
      <point x="110" y="805"/>
      <point x="80" y="880"/>
      <point x="80" y="968" type="curve" smooth="yes"/>
      <point x="80" y="1059"/>
      <point x="108" y="1135"/>
      <point x="164" y="1197" type="curve" smooth="yes"/>
      <point x="220" y="1259"/>
      <point x="293" y="1290"/>
    </contour>
    <contour>
      <point x="372" y="1242" type="curve" smooth="yes"/>
      <point x="335" y="1242"/>
      <point x="304" y="1229"/>
      <point x="278" y="1203" type="curve" smooth="yes"/>
      <point x="252" y="1177"/>
      <point x="234" y="1146"/>
      <point x="224" y="1110" type="curve" smooth="yes"/>
      <point x="214" y="1074"/>
      <point x="208" y="1034"/>
      <point x="208" y="992" type="curve" smooth="yes"/>
      <point x="208" y="921"/>
      <point x="227" y="854"/>
      <point x="264" y="792" type="curve" smooth="yes"/>
      <point x="301" y="730"/>
      <point x="343" y="700"/>
      <point x="392" y="700" type="curve" smooth="yes"/>
      <point x="419" y="700"/>
      <point x="443" y="707"/>
      <point x="464" y="722" type="curve" smooth="yes"/>
      <point x="485" y="737"/>
      <point x="500" y="758"/>
      <point x="511" y="783" type="curve" smooth="yes"/>
      <point x="522" y="808"/>
      <point x="529" y="835"/>
      <point x="534" y="863" type="curve" smooth="yes"/>
      <point x="539" y="891"/>
      <point x="542" y="921"/>
      <point x="542" y="952" type="curve" smooth="yes"/>
      <point x="542" y="998"/>
      <point x="535" y="1042"/>
      <point x="522" y="1086" type="curve" smooth="yes"/>
      <point x="509" y="1130"/>
      <point x="489" y="1167"/>
      <point x="462" y="1197" type="curve" smooth="yes"/>
      <point x="435" y="1227"/>
      <point x="405" y="1242"/>
    </contour>
  </outline>
</glyph>
<glyph name="ampersand" format="2">
  <advance width="1366"/>
  <unicode hex="0026"/>
  <outline>
    <contour>
      <point x="616" y="1312" type="curve" smooth="yes"/>
      <point x="705" y="1312"/>
      <point x="776" y="1293"/>
      <point x="828" y="1254" type="curve" smooth="yes"/>
      <point x="880" y="1215"/>
      <point x="906" y="1159"/>
      <point x="906" y="1088" type="curve" smooth="yes"/>
      <point x="906" y="1045"/>
      <point x="898" y="1004"/>
      <point x="882" y="967" type="curve" smooth="yes"/>
      <point x="866" y="930"/>
      <point x="843" y="896"/>
      <point x="812" y="864" type="curve" smooth="yes"/>
      <point x="781" y="832"/>
      <point x="750" y="805"/>
      <point x="720" y="782" type="curve" smooth="yes"/>
      <point x="690" y="759"/>
      <point x="653" y="733"/>
      <point x="608" y="706" type="curve"/>
      <point x="686" y="575"/>
      <point x="785" y="442"/>
      <point x="904" y="308" type="curve"/>
      <point x="937" y="359"/>
      <point x="965" y="408"/>
      <point x="986" y="454" type="curve" smooth="yes"/>
      <point x="1007" y="500"/>
      <point x="1018" y="529"/>
      <point x="1018" y="542" type="curve" smooth="yes"/>
      <point x="1018" y="554"/>
      <point x="1012" y="563"/>
      <point x="1000" y="568" type="curve" smooth="yes"/>
      <point x="988" y="573"/>
      <point x="974" y="575"/>
      <point x="956" y="576" type="curve" smooth="yes"/>
      <point x="938" y="577"/>
      <point x="929" y="578"/>
      <point x="928" y="578" type="curve" smooth="yes"/>
      <point x="925" y="584"/>
      <point x="924" y="592"/>
      <point x="924" y="602" type="curve" smooth="yes"/>
      <point x="924" y="612"/>
      <point x="926" y="620"/>
      <point x="930" y="624" type="curve"/>
      <point x="1088" y="624" type="line" smooth="yes"/>
      <point x="1109" y="624"/>
      <point x="1130" y="625"/>
      <point x="1152" y="626" type="curve" smooth="yes"/>
      <point x="1174" y="627"/>
      <point x="1200" y="628"/>
      <point x="1230" y="630" type="curve" smooth="yes"/>
      <point x="1260" y="632"/>
      <point x="1285" y="633"/>
      <point x="1308" y="634" type="curve" smooth="yes"/>
      <point x="1311" y="632"/>
      <point x="1312" y="622"/>
      <point x="1312" y="604" type="curve" smooth="yes"/>
      <point x="1312" y="586"/>
      <point x="1309" y="578"/>
      <point x="1306" y="578" type="curve" smooth="yes"/>
      <point x="1289" y="578"/>
      <point x="1264" y="574"/>
      <point x="1232" y="566" type="curve" smooth="yes"/>
      <point x="1200" y="558"/>
      <point x="1179" y="551"/>
      <point x="1168" y="544" type="curve" smooth="yes"/>
      <point x="1166" y="543"/>
      <point x="1156" y="527"/>
      <point x="1139" y="498" type="curve" smooth="yes"/>
      <point x="1122" y="469"/>
      <point x="1096" y="431"/>
      <point x="1063" y="382" type="curve" smooth="yes"/>
      <point x="1030" y="333"/>
      <point x="995" y="287"/>
      <point x="960" y="246" type="curve"/>
      <point x="991" y="214"/>
      <point x="1012" y="192"/>
      <point x="1024" y="180" type="curve" smooth="yes"/>
      <point x="1036" y="168"/>
      <point x="1052" y="152"/>
      <point x="1072" y="134" type="curve" smooth="yes"/>
      <point x="1092" y="116"/>
      <point x="1107" y="105"/>
      <point x="1120" y="99" type="curve" smooth="yes"/>
      <point x="1133" y="93"/>
      <point x="1145" y="90"/>
      <point x="1156" y="90" type="curve" smooth="yes"/>
      <point x="1175" y="90"/>
      <point x="1195" y="102"/>
      <point x="1217" y="124" type="curve" smooth="yes"/>
      <point x="1239" y="146"/>
      <point x="1253" y="165"/>
      <point x="1260" y="182" type="curve"/>
      <point x="1271" y="182"/>
      <point x="1281" y="178"/>
      <point x="1291" y="170" type="curve" smooth="yes"/>
      <point x="1301" y="162"/>
      <point x="1306" y="153"/>
      <point x="1306" y="146" type="curve" smooth="yes"/>
      <point x="1303" y="138"/>
      <point x="1299" y="130"/>
      <point x="1295" y="123" type="curve" smooth="yes"/>
      <point x="1291" y="116"/>
      <point x="1283" y="104"/>
      <point x="1270" y="88" type="curve" smooth="yes"/>
      <point x="1257" y="72"/>
      <point x="1244" y="58"/>
      <point x="1229" y="46" type="curve" smooth="yes"/>
      <point x="1214" y="34"/>
      <point x="1194" y="23"/>
      <point x="1169" y="14" type="curve" smooth="yes"/>
      <point x="1144" y="5"/>
      <point x="1117" y="0"/>
      <point x="1088" y="0" type="curve" smooth="yes"/>
      <point x="1066" y="0"/>
      <point x="1043" y="5"/>
      <point x="1019" y="15" type="curve" smooth="yes"/>
      <point x="995" y="25"/>
      <point x="974" y="37"/>
      <point x="956" y="51" type="curve" smooth="yes"/>
      <point x="938" y="65"/>
      <point x="920" y="79"/>
      <point x="905" y="93" type="curve" smooth="yes"/>
      <point x="890" y="107"/>
      <point x="878" y="119"/>
      <point x="870" y="129" type="curve" smooth="yes"/>
      <point x="858" y="144" type="line"/>
      <point x="807" y="99"/>
      <point x="750" y="64"/>
      <point x="686" y="36" type="curve" smooth="yes"/>
      <point x="622" y="8"/>
      <point x="557" y="-6"/>
      <point x="494" y="-6" type="curve" smooth="yes"/>
      <point x="376" y="-6"/>
      <point x="282" y="23"/>
      <point x="212" y="80" type="curve" smooth="yes"/>
      <point x="142" y="137"/>
      <point x="106" y="216"/>
      <point x="106" y="316" type="curve" smooth="yes"/>
      <point x="106" y="362"/>
      <point x="114" y="405"/>
      <point x="132" y="444" type="curve" smooth="yes"/>
      <point x="150" y="483"/>
      <point x="176" y="518"/>
      <point x="210" y="549" type="curve" smooth="yes"/>
      <point x="244" y="580"/>
      <point x="280" y="608"/>
      <point x="314" y="630" type="curve" smooth="yes"/>
      <point x="348" y="652"/>
      <point x="389" y="675"/>
      <point x="438" y="700" type="curve"/>
      <point x="413" y="743"/>
      <point x="394" y="776"/>
      <point x="381" y="802" type="curve" smooth="yes"/>
      <point x="368" y="828"/>
      <point x="355" y="864"/>
      <point x="342" y="908" type="curve" smooth="yes"/>
      <point x="329" y="952"/>
      <point x="322" y="995"/>
      <point x="322" y="1038" type="curve" smooth="yes"/>
      <point x="322" y="1115"/>
      <point x="350" y="1179"/>
      <point x="406" y="1232" type="curve" smooth="yes"/>
      <point x="462" y="1285"/>
      <point x="533" y="1312"/>
    </contour>
    <contour>
      <point x="626" y="1240" type="curve" smooth="yes"/>
      <point x="582" y="1240"/>
      <point x="545" y="1226"/>
      <point x="514" y="1197" type="curve" smooth="yes"/>
      <point x="483" y="1168"/>
      <point x="468" y="1131"/>
      <point x="468" y="1086" type="curve" smooth="yes"/>
      <point x="468" y="1001"/>
      <point x="503" y="895"/>
      <point x="572" y="770" type="curve"/>
      <point x="618" y="797"/>
      <point x="654" y="822"/>
      <point x="680" y="844" type="curve" smooth="yes"/>
      <point x="706" y="866"/>
      <point x="727" y="896"/>
      <point x="744" y="932" type="curve" smooth="yes"/>
      <point x="761" y="968"/>
      <point x="770" y="1011"/>
      <point x="770" y="1060" type="curve" smooth="yes"/>
      <point x="770" y="1108"/>
      <point x="757" y="1150"/>
      <point x="730" y="1186" type="curve" smooth="yes"/>
      <point x="703" y="1222"/>
      <point x="669" y="1240"/>
    </contour>
    <contour>
      <point x="812" y="190" type="curve"/>
      <point x="773" y="229"/>
      <point x="727" y="285"/>
      <point x="672" y="358" type="curve" smooth="yes"/>
      <point x="617" y="431"/>
      <point x="572" y="495"/>
      <point x="537" y="548" type="curve" smooth="yes"/>
      <point x="484" y="628" type="line"/>
      <point x="455" y="608"/>
      <point x="434" y="593"/>
      <point x="420" y="583" type="curve" smooth="yes"/>
      <point x="406" y="573"/>
      <point x="388" y="558"/>
      <point x="366" y="538" type="curve" smooth="yes"/>
      <point x="344" y="518"/>
      <point x="328" y="501"/>
      <point x="318" y="484" type="curve" smooth="yes"/>
      <point x="308" y="467"/>
      <point x="298" y="446"/>
      <point x="290" y="422" type="curve" smooth="yes"/>
      <point x="282" y="398"/>
      <point x="278" y="372"/>
      <point x="278" y="344" type="curve" smooth="yes"/>
      <point x="278" y="256"/>
      <point x="305" y="190"/>
      <point x="360" y="146" type="curve" smooth="yes"/>
      <point x="415" y="102"/>
      <point x="482" y="80"/>
      <point x="562" y="80" type="curve" smooth="yes"/>
      <point x="603" y="80"/>
      <point x="647" y="90"/>
      <point x="694" y="110" type="curve" smooth="yes"/>
      <point x="741" y="130"/>
      <point x="781" y="157"/>
    </contour>
  </outline>
</glyph>
<glyph name="quotesingle" format="2">
  <advance width="320"/>
  <unicode hex="0027"/>
  <outline>
    <contour>
      <point x="182" y="1398" type="curve" smooth="yes"/>
      <point x="203" y="1398"/>
      <point x="220" y="1389"/>
      <point x="234" y="1372" type="curve"/>
      <point x="234" y="1343"/>
      <point x="230" y="1283"/>
      <point x="224" y="1194" type="curve" smooth="yes"/>
      <point x="218" y="1105"/>
      <point x="212" y="1035"/>
      <point x="206" y="984" type="curve"/>
      <point x="198" y="968"/>
      <point x="185" y="955"/>
      <point x="166" y="946" type="curve" smooth="yes"/>
      <point x="158" y="946"/>
      <point x="152" y="950"/>
      <point x="148" y="958" type="curve" smooth="yes"/>
      <point x="101" y="1118"/>
      <point x="78" y="1218"/>
      <point x="78" y="1258" type="curve" smooth="yes"/>
      <point x="78" y="1289"/>
      <point x="88" y="1321"/>
      <point x="108" y="1352" type="curve" smooth="yes"/>
      <point x="128" y="1383"/>
      <point x="153" y="1398"/>
    </contour>
  </outline>
</glyph>
<glyph name="parenleft" format="2">
  <advance width="524"/>
  <unicode hex="0028"/>
  <outline>
    <contour>
      <point x="220" y="570" type="curve" smooth="yes"/>
      <point x="220" y="406"/>
      <point x="246" y="247"/>
      <point x="298" y="92" type="curve" smooth="yes"/>
      <point x="350" y="-63"/>
      <point x="421" y="-180"/>
      <point x="512" y="-260" type="curve" smooth="yes"/>
      <point x="511" y="-261"/>
      <point x="509" y="-264"/>
      <point x="506" y="-268" type="curve" smooth="yes"/>
      <point x="502" y="-273"/>
      <point x="497" y="-279"/>
      <point x="490" y="-286" type="curve" smooth="yes"/>
      <point x="483" y="-293"/>
      <point x="478" y="-297"/>
      <point x="474" y="-300" type="curve"/>
      <point x="351" y="-203"/>
      <point x="254" y="-80"/>
      <point x="182" y="68" type="curve" smooth="yes"/>
      <point x="110" y="216"/>
      <point x="74" y="383"/>
      <point x="74" y="570" type="curve" smooth="yes"/>
      <point x="74" y="757"/>
      <point x="110" y="925"/>
      <point x="182" y="1072" type="curve" smooth="yes"/>
      <point x="254" y="1219"/>
      <point x="351" y="1341"/>
      <point x="474" y="1438" type="curve"/>
      <point x="478" y="1435"/>
      <point x="483" y="1431"/>
      <point x="490" y="1424" type="curve" smooth="yes"/>
      <point x="497" y="1417"/>
      <point x="502" y="1412"/>
      <point x="505" y="1408" type="curve" smooth="yes"/>
      <point x="508" y="1404"/>
      <point x="511" y="1401"/>
      <point x="512" y="1398" type="curve" smooth="yes"/>
      <point x="421" y="1317"/>
      <point x="350" y="1200"/>
      <point x="298" y="1046" type="curve" smooth="yes"/>
      <point x="246" y="892"/>
      <point x="220" y="734"/>
    </contour>
  </outline>
</glyph>
<glyph name="asterisk" format="2">
  <advance width="886"/>
  <unicode hex="002A"/>
  <outline>
    <contour>
      <point x="603" y="1226" type="curve" smooth="yes"/>
      <point x="621" y="1245"/>
      <point x="640" y="1258"/>
      <point x="660" y="1263" type="curve" smooth="yes"/>
      <point x="680" y="1268"/>
      <point x="699" y="1264"/>
      <point x="715" y="1250" type="curve" smooth="yes"/>
      <point x="731" y="1234"/>
      <point x="738" y="1216"/>
      <point x="736" y="1195" type="curve" smooth="yes"/>
      <point x="734" y="1174"/>
      <point x="722" y="1155"/>
      <point x="703" y="1138" type="curve" smooth="yes"/>
      <point x="679" y="1116"/>
      <point x="646" y="1093"/>
      <point x="602" y="1070" type="curve" smooth="yes"/>
      <point x="558" y="1047"/>
      <point x="527" y="1027"/>
      <point x="509" y="1010" type="curve" smooth="yes"/>
      <point x="508" y="1009"/>
      <point x="507" y="1006"/>
      <point x="506" y="1004" type="curve" smooth="yes"/>
      <point x="505" y="1002"/>
      <point x="503" y="999"/>
      <point x="501" y="994" type="curve" smooth="yes"/>
      <point x="499" y="989"/>
      <point x="498" y="985"/>
      <point x="499" y="982" type="curve" smooth="yes"/>
      <point x="501" y="973"/>
      <point x="508" y="967"/>
      <point x="519" y="962" type="curve" smooth="yes"/>
      <point x="541" y="952"/>
      <point x="575" y="943"/>
      <point x="620" y="935" type="curve" smooth="yes"/>
      <point x="665" y="927"/>
      <point x="702" y="916"/>
      <point x="733" y="902" type="curve" smooth="yes"/>
      <point x="757" y="891"/>
      <point x="774" y="876"/>
      <point x="786" y="858" type="curve" smooth="yes"/>
      <point x="798" y="840"/>
      <point x="800" y="822"/>
      <point x="791" y="804" type="curve" smooth="yes"/>
      <point x="781" y="784"/>
      <point x="766" y="772"/>
      <point x="745" y="768" type="curve" smooth="yes"/>
      <point x="740" y="767"/>
      <point x="734" y="766"/>
      <point x="729" y="766" type="curve" smooth="yes"/>
      <point x="713" y="766"/>
      <point x="697" y="771"/>
      <point x="681" y="780" type="curve" smooth="yes"/>
      <point x="652" y="796"/>
      <point x="619" y="822"/>
      <point x="584" y="856" type="curve" smooth="yes"/>
      <point x="549" y="890"/>
      <point x="520" y="913"/>
      <point x="499" y="924" type="curve" smooth="yes"/>
      <point x="497" y="925"/>
      <point x="497" y="924"/>
      <point x="494" y="926" type="curve" smooth="yes"/>
      <point x="492" y="927"/>
      <point x="488" y="928"/>
      <point x="482" y="930" type="curve" smooth="yes"/>
      <point x="476" y="932"/>
      <point x="473" y="932"/>
      <point x="471" y="930" type="curve" smooth="yes"/>
      <point x="468" y="929"/>
      <point x="466" y="926"/>
      <point x="464" y="924" type="curve" smooth="yes"/>
      <point x="462" y="922"/>
      <point x="462" y="920"/>
      <point x="462" y="918" type="curve" smooth="yes"/>
      <point x="462" y="916"/>
      <point x="461" y="916"/>
      <point x="460" y="911" type="curve" smooth="yes"/>
      <point x="459" y="908"/>
      <point x="459" y="905"/>
      <point x="459" y="904" type="curve" smooth="yes"/>
      <point x="458" y="896"/>
      <point x="458" y="888"/>
      <point x="458" y="878" type="curve" smooth="yes"/>
      <point x="458" y="857"/>
      <point x="460" y="831"/>
      <point x="464" y="800" type="curve" smooth="yes"/>
      <point x="468" y="771"/>
      <point x="469" y="746"/>
      <point x="469" y="722" type="curve" smooth="yes"/>
      <point x="469" y="708"/>
      <point x="468" y="694"/>
      <point x="467" y="682" type="curve" smooth="yes"/>
      <point x="464" y="656"/>
      <point x="456" y="634"/>
      <point x="442" y="618" type="curve" smooth="yes"/>
      <point x="428" y="602"/>
      <point x="411" y="595"/>
      <point x="391" y="598" type="curve" smooth="yes"/>
      <point x="369" y="601"/>
      <point x="352" y="611"/>
      <point x="342" y="629" type="curve" smooth="yes"/>
      <point x="335" y="641"/>
      <point x="332" y="654"/>
      <point x="332" y="669" type="curve" smooth="yes"/>
      <point x="332" y="677"/>
      <point x="333" y="685"/>
      <point x="335" y="694" type="curve" smooth="yes"/>
      <point x="341" y="727"/>
      <point x="355" y="765"/>
      <point x="377" y="810" type="curve" smooth="yes"/>
      <point x="399" y="855"/>
      <point x="412" y="890"/>
      <point x="417" y="914" type="curve" smooth="yes"/>
      <point x="418" y="926"/>
      <point x="416" y="935"/>
      <point x="411" y="940" type="curve" smooth="yes"/>
      <point x="406" y="947"/>
      <point x="398" y="949"/>
      <point x="385" y="946" type="curve" smooth="yes"/>
      <point x="362" y="941"/>
      <point x="330" y="929"/>
      <point x="288" y="909" type="curve" smooth="yes"/>
      <point x="246" y="889"/>
      <point x="209" y="875"/>
      <point x="175" y="868" type="curve" smooth="yes"/>
      <point x="165" y="866"/>
      <point x="155" y="865"/>
      <point x="146" y="865" type="curve" smooth="yes"/>
      <point x="132" y="865"/>
      <point x="118" y="867"/>
      <point x="106" y="872" type="curve" smooth="yes"/>
      <point x="85" y="880"/>
      <point x="74" y="894"/>
      <point x="71" y="914" type="curve" smooth="yes"/>
      <point x="67" y="935"/>
      <point x="72" y="954"/>
      <point x="87" y="970" type="curve" smooth="yes"/>
      <point x="102" y="986"/>
      <point x="122" y="995"/>
      <point x="147" y="998" type="curve" smooth="yes"/>
      <point x="159" y="999"/>
      <point x="172" y="1000"/>
      <point x="186" y="1000" type="curve" smooth="yes"/>
      <point x="211" y="1000"/>
      <point x="239" y="998"/>
      <point x="270" y="994" type="curve" smooth="yes"/>
      <point x="303" y="989"/>
      <point x="329" y="986"/>
      <point x="351" y="986" type="curve" smooth="yes"/>
      <point x="361" y="986"/>
      <point x="371" y="987"/>
      <point x="379" y="988" type="curve" smooth="yes"/>
      <point x="391" y="992"/>
      <point x="398" y="997"/>
      <point x="401" y="1004" type="curve" smooth="yes"/>
      <point x="404" y="1013"/>
      <point x="403" y="1022"/>
      <point x="397" y="1032" type="curve" smooth="yes"/>
      <point x="385" y="1053"/>
      <point x="364" y="1080"/>
      <point x="332" y="1114" type="curve" smooth="yes"/>
      <point x="300" y="1148"/>
      <point x="276" y="1179"/>
      <point x="259" y="1208" type="curve" smooth="yes"/>
      <point x="248" y="1227"/>
      <point x="242" y="1246"/>
      <point x="242" y="1265" type="curve" smooth="yes"/>
      <point x="242" y="1268"/>
      <point x="242" y="1270"/>
      <point x="242" y="1273" type="curve" smooth="yes"/>
      <point x="244" y="1295"/>
      <point x="254" y="1311"/>
      <point x="271" y="1320" type="curve" smooth="yes"/>
      <point x="291" y="1330"/>
      <point x="310" y="1331"/>
      <point x="328" y="1322" type="curve" smooth="yes"/>
      <point x="346" y="1313"/>
      <point x="362" y="1297"/>
      <point x="373" y="1274" type="curve" smooth="yes"/>
      <point x="387" y="1244"/>
      <point x="398" y="1204"/>
      <point x="406" y="1156" type="curve" smooth="yes"/>
      <point x="414" y="1108"/>
      <point x="424" y="1073"/>
      <point x="435" y="1050" type="curve" smooth="yes"/>
      <point x="442" y="1037"/>
      <point x="448" y="1029"/>
      <point x="455" y="1028" type="curve" smooth="yes"/>
      <point x="463" y="1027"/>
      <point x="472" y="1031"/>
      <point x="481" y="1040" type="curve" smooth="yes"/>
      <point x="498" y="1058"/>
      <point x="517" y="1087"/>
      <point x="538" y="1128" type="curve" smooth="yes"/>
      <point x="559" y="1169"/>
      <point x="580" y="1202"/>
    </contour>
  </outline>
</glyph>
<glyph name="plus" format="2">
  <advance width="1084"/>
  <unicode hex="002B"/>
  <outline>
    <contour>
      <point x="484" y="948" type="line"/>
      <point x="523" y="963"/>
      <point x="552" y="970"/>
      <point x="570" y="970" type="curve" smooth="yes"/>
      <point x="576" y="970"/>
      <point x="582" y="969"/>
      <point x="586" y="967" type="curve" smooth="yes"/>
      <point x="590" y="965"/>
      <point x="593" y="963"/>
      <point x="594" y="961" type="curve" smooth="yes"/>
      <point x="596" y="958" type="line"/>
      <point x="596" y="548" type="line"/>
      <point x="1004" y="548" type="line" smooth="yes"/>
      <point x="1009" y="548"/>
      <point x="1012" y="546"/>
      <point x="1016" y="542" type="curve" smooth="yes"/>
      <point x="1020" y="538"/>
      <point x="1022" y="531"/>
      <point x="1022" y="524" type="curve" smooth="yes"/>
      <point x="1022" y="508"/>
      <point x="1018" y="491"/>
      <point x="1012" y="474" type="curve" smooth="yes"/>
      <point x="1006" y="457"/>
      <point x="999" y="445"/>
      <point x="990" y="436" type="curve"/>
      <point x="596" y="436" type="line"/>
      <point x="596" y="32" type="line"/>
      <point x="577" y="17"/>
      <point x="548" y="10"/>
      <point x="510" y="10" type="curve" smooth="yes"/>
      <point x="503" y="10"/>
      <point x="497" y="12"/>
      <point x="492" y="16" type="curve" smooth="yes"/>
      <point x="487" y="20"/>
      <point x="484" y="24"/>
      <point x="484" y="28" type="curve" smooth="yes"/>
      <point x="484" y="436" type="line"/>
      <point x="74" y="436" type="line" smooth="yes"/>
      <point x="66" y="436"/>
      <point x="62" y="443"/>
      <point x="62" y="456" type="curve" smooth="yes"/>
      <point x="62" y="465"/>
      <point x="64" y="481"/>
      <point x="70" y="504" type="curve" smooth="yes"/>
      <point x="76" y="527"/>
      <point x="83" y="541"/>
      <point x="92" y="548" type="curve"/>
      <point x="484" y="548" type="line"/>
    </contour>
  </outline>
</glyph>
<glyph name="hyphen" format="2">
  <advance width="754"/>
  <unicode hex="002D"/>
  <outline>
    <contour>
      <point x="142" y="522" type="curve"/>
      <point x="419" y="537"/>
      <point x="580" y="545"/>
      <point x="624" y="546" type="curve" smooth="yes"/>
      <point x="633" y="546"/>
      <point x="638" y="540"/>
      <point x="638" y="528" type="curve" smooth="yes"/>
      <point x="638" y="493"/>
      <point x="629" y="457"/>
      <point x="612" y="420" type="curve"/>
      <point x="585" y="418"/>
      <point x="424" y="411"/>
      <point x="130" y="398" type="curve" smooth="yes"/>
      <point x="121" y="398"/>
      <point x="116" y="405"/>
      <point x="116" y="420" type="curve" smooth="yes"/>
      <point x="116" y="451"/>
      <point x="125" y="485"/>
    </contour>
  </outline>
</glyph>
<glyph name="one" format="2">
  <advance width="1090"/>
  <unicode hex="0031"/>
  <outline>
    <contour>
      <point x="494" y="232" type="curve" smooth="yes"/>
      <point x="494" y="1040" type="line" smooth="yes"/>
      <point x="494" y="1068"/>
      <point x="491" y="1088"/>
      <point x="484" y="1099" type="curve" smooth="yes"/>
      <point x="477" y="1110"/>
      <point x="467" y="1116"/>
      <point x="452" y="1116" type="curve" smooth="yes"/>
      <point x="430" y="1116"/>
      <point x="383" y="1103"/>
      <point x="312" y="1076" type="curve"/>
      <point x="299" y="1087"/>
      <point x="292" y="1098"/>
      <point x="292" y="1110" type="curve" smooth="yes"/>
      <point x="292" y="1117"/>
      <point x="293" y="1121"/>
      <point x="296" y="1122" type="curve" smooth="yes"/>
      <point x="342" y="1143"/>
      <point x="395" y="1167"/>
      <point x="454" y="1195" type="curve" smooth="yes"/>
      <point x="513" y="1223"/>
      <point x="559" y="1244"/>
      <point x="592" y="1260" type="curve" smooth="yes"/>
      <point x="625" y="1276"/>
      <point x="643" y="1284"/>
      <point x="644" y="1284" type="curve" smooth="yes"/>
      <point x="648" y="1284" type="line" smooth="yes"/>
      <point x="657" y="1284"/>
      <point x="664" y="1273"/>
      <point x="668" y="1252" type="curve"/>
      <point x="657" y="1204"/>
      <point x="652" y="1139"/>
      <point x="652" y="1058" type="curve" smooth="yes"/>
      <point x="652" y="232" type="line" smooth="yes"/>
      <point x="652" y="155"/>
      <point x="655" y="105"/>
      <point x="662" y="84" type="curve" smooth="yes"/>
      <point x="665" y="75"/>
      <point x="682" y="67"/>
      <point x="714" y="61" type="curve" smooth="yes"/>
      <point x="746" y="55"/>
      <point x="771" y="52"/>
      <point x="790" y="52" type="curve"/>
      <point x="794" y="47"/>
      <point x="796" y="37"/>
      <point x="796" y="23" type="curve" smooth="yes"/>
      <point x="796" y="9"/>
      <point x="795" y="-1"/>
      <point x="790" y="-6" type="curve"/>
      <point x="653" y="1"/>
      <point x="579" y="4"/>
      <point x="568" y="4" type="curve" smooth="yes"/>
      <point x="562" y="4"/>
      <point x="491" y="1"/>
      <point x="354" y="-6" type="curve"/>
      <point x="349" y="-1"/>
      <point x="348" y="9"/>
      <point x="348" y="23" type="curve" smooth="yes"/>
      <point x="348" y="37"/>
      <point x="350" y="47"/>
      <point x="354" y="52" type="curve"/>
      <point x="373" y="52"/>
      <point x="398" y="55"/>
      <point x="430" y="61" type="curve" smooth="yes"/>
      <point x="462" y="67"/>
      <point x="479" y="75"/>
      <point x="482" y="84" type="curve" smooth="yes"/>
      <point x="490" y="109"/>
      <point x="494" y="159"/>
    </contour>
  </outline>
</glyph>
<glyph name="three" format="2">
  <advance width="1090"/>
  <unicode hex="0033"/>
  <outline>
    <contour>
      <point x="564" y="1284" type="curve" smooth="yes"/>
      <point x="591" y="1284"/>
      <point x="618" y="1278"/>
      <point x="648" y="1266" type="curve" smooth="yes"/>
      <point x="678" y="1254"/>
      <point x="706" y="1239"/>
      <point x="733" y="1218" type="curve" smooth="yes"/>
      <point x="760" y="1197"/>
      <point x="782" y="1170"/>
      <point x="800" y="1136" type="curve" smooth="yes"/>
      <point x="818" y="1102"/>
      <point x="826" y="1067"/>
      <point x="826" y="1028" type="curve" smooth="yes"/>
      <point x="826" y="997"/>
      <point x="820" y="968"/>
      <point x="808" y="938" type="curve" smooth="yes"/>
      <point x="796" y="908"/>
      <point x="778" y="882"/>
      <point x="758" y="859" type="curve" smooth="yes"/>
      <point x="738" y="836"/>
      <point x="718" y="816"/>
      <point x="699" y="800" type="curve" smooth="yes"/>
      <point x="680" y="784"/>
      <point x="660" y="770"/>
      <point x="640" y="758" type="curve"/>
      <point x="670" y="754"/>
      <point x="701" y="744"/>
      <point x="732" y="728" type="curve" smooth="yes"/>
      <point x="763" y="712"/>
      <point x="793" y="691"/>
      <point x="822" y="665" type="curve" smooth="yes"/>
      <point x="851" y="639"/>
      <point x="874" y="606"/>
      <point x="892" y="566" type="curve" smooth="yes"/>
      <point x="910" y="526"/>
      <point x="920" y="483"/>
      <point x="920" y="436" type="curve" smooth="yes"/>
      <point x="920" y="370"/>
      <point x="905" y="309"/>
      <point x="876" y="252" type="curve" smooth="yes"/>
      <point x="847" y="195"/>
      <point x="808" y="148"/>
      <point x="760" y="110" type="curve" smooth="yes"/>
      <point x="712" y="72"/>
      <point x="658" y="43"/>
      <point x="597" y="22" type="curve" smooth="yes"/>
      <point x="536" y="1"/>
      <point x="475" y="-10"/>
      <point x="412" y="-10" type="curve" smooth="yes"/>
      <point x="337" y="-10"/>
      <point x="269" y="5"/>
      <point x="208" y="36" type="curve" smooth="yes"/>
      <point x="200" y="41"/>
      <point x="191" y="52"/>
      <point x="182" y="68" type="curve" smooth="yes"/>
      <point x="173" y="84"/>
      <point x="168" y="98"/>
      <point x="168" y="112" type="curve" smooth="yes"/>
      <point x="168" y="140"/>
      <point x="176" y="163"/>
      <point x="193" y="181" type="curve" smooth="yes"/>
      <point x="210" y="199"/>
      <point x="229" y="208"/>
      <point x="252" y="208" type="curve" smooth="yes"/>
      <point x="269" y="208"/>
      <point x="283" y="204"/>
      <point x="296" y="195" type="curve" smooth="yes"/>
      <point x="309" y="186"/>
      <point x="322" y="172"/>
      <point x="336" y="154" type="curve" smooth="yes"/>
      <point x="350" y="136"/>
      <point x="359" y="125"/>
      <point x="364" y="120" type="curve" smooth="yes"/>
      <point x="397" y="87"/>
      <point x="447" y="70"/>
      <point x="512" y="70" type="curve" smooth="yes"/>
      <point x="540" y="70"/>
      <point x="567" y="76"/>
      <point x="594" y="87" type="curve" smooth="yes"/>
      <point x="621" y="98"/>
      <point x="646" y="115"/>
      <point x="670" y="138" type="curve" smooth="yes"/>
      <point x="694" y="161"/>
      <point x="712" y="194"/>
      <point x="726" y="236" type="curve" smooth="yes"/>
      <point x="740" y="278"/>
      <point x="748" y="325"/>
      <point x="748" y="380" type="curve" smooth="yes"/>
      <point x="748" y="459"/>
      <point x="722" y="526"/>
      <point x="671" y="580" type="curve" smooth="yes"/>
      <point x="620" y="634"/>
      <point x="560" y="662"/>
      <point x="492" y="662" type="curve" smooth="yes"/>
      <point x="479" y="662"/>
      <point x="465" y="661"/>
      <point x="450" y="658" type="curve" smooth="yes"/>
      <point x="435" y="655"/>
      <point x="420" y="650"/>
      <point x="402" y="645" type="curve" smooth="yes"/>
      <point x="384" y="640"/>
      <point x="374" y="637"/>
      <point x="372" y="636" type="curve" smooth="yes"/>
      <point x="364" y="646"/>
      <point x="360" y="659"/>
      <point x="360" y="676" type="curve" smooth="yes"/>
      <point x="360" y="685"/>
      <point x="361" y="692"/>
      <point x="364" y="696" type="curve" smooth="yes"/>
      <point x="407" y="705"/>
      <point x="446" y="718"/>
      <point x="481" y="734" type="curve" smooth="yes"/>
      <point x="516" y="750"/>
      <point x="550" y="768"/>
      <point x="580" y="792" type="curve" smooth="yes"/>
      <point x="610" y="816"/>
      <point x="633" y="845"/>
      <point x="650" y="879" type="curve" smooth="yes"/>
      <point x="667" y="913"/>
      <point x="676" y="951"/>
      <point x="676" y="992" type="curve" smooth="yes"/>
      <point x="676" y="1045"/>
      <point x="657" y="1090"/>
      <point x="620" y="1125" type="curve" smooth="yes"/>
      <point x="583" y="1160"/>
      <point x="537" y="1178"/>
      <point x="480" y="1178" type="curve" smooth="yes"/>
      <point x="451" y="1178"/>
      <point x="422" y="1171"/>
      <point x="394" y="1158" type="curve" smooth="yes"/>
      <point x="366" y="1145"/>
      <point x="344" y="1132"/>
      <point x="328" y="1118" type="curve" smooth="yes"/>
      <point x="312" y="1104"/>
      <point x="296" y="1089"/>
      <point x="281" y="1072" type="curve" smooth="yes"/>
      <point x="266" y="1055"/>
      <point x="257" y="1047"/>
      <point x="256" y="1046" type="curve" smooth="yes"/>
      <point x="250" y="1046"/>
      <point x="245" y="1051"/>
      <point x="240" y="1061" type="curve" smooth="yes"/>
      <point x="235" y="1071"/>
      <point x="232" y="1081"/>
      <point x="232" y="1090" type="curve"/>
      <point x="269" y="1144"/>
      <point x="315" y="1190"/>
      <point x="372" y="1228" type="curve" smooth="yes"/>
      <point x="429" y="1266"/>
      <point x="493" y="1284"/>
    </contour>
  </outline>
</glyph>
<glyph name="seven" format="2">
  <advance width="1090"/>
  <unicode hex="0037"/>
  <outline>
    <contour>
      <point x="816" y="1266" type="line" smooth="yes"/>
      <point x="837" y="1266"/>
      <point x="864" y="1267"/>
      <point x="899" y="1269" type="curve" smooth="yes"/>
      <point x="934" y="1271"/>
      <point x="951" y="1272"/>
      <point x="952" y="1272" type="curve" smooth="yes"/>
      <point x="960" y="1272"/>
      <point x="964" y="1266"/>
      <point x="964" y="1254" type="curve" smooth="yes"/>
      <point x="964" y="1248"/>
      <point x="962" y="1240"/>
      <point x="958" y="1229" type="curve" smooth="yes"/>
      <point x="954" y="1218"/>
      <point x="950" y="1208"/>
      <point x="946" y="1199" type="curve" smooth="yes"/>
      <point x="942" y="1190"/>
      <point x="936" y="1177"/>
      <point x="928" y="1160" type="curve" smooth="yes"/>
      <point x="920" y="1143"/>
      <point x="913" y="1129"/>
      <point x="908" y="1120" type="curve" smooth="yes"/>
      <point x="380" y="-4" type="line" smooth="yes"/>
      <point x="376" y="-8"/>
      <point x="369" y="-10"/>
      <point x="360" y="-10" type="curve" smooth="yes"/>
      <point x="343" y="-10"/>
      <point x="325" y="-6"/>
      <point x="304" y="2" type="curve" smooth="yes"/>
      <point x="283" y="10"/>
      <point x="272" y="17"/>
      <point x="272" y="26" type="curve"/>
      <point x="333" y="119"/>
      <point x="411" y="256"/>
      <point x="506" y="438" type="curve" smooth="yes"/>
      <point x="601" y="620"/>
      <point x="680" y="780"/>
      <point x="744" y="916" type="curve" smooth="yes"/>
      <point x="840" y="1120" type="line"/>
      <point x="332" y="1120" type="line" smooth="yes"/>
      <point x="293" y="1120"/>
      <point x="263" y="1108"/>
      <point x="242" y="1084" type="curve" smooth="yes"/>
      <point x="221" y="1060"/>
      <point x="203" y="1021"/>
      <point x="188" y="966" type="curve" smooth="yes"/>
      <point x="187" y="958"/>
      <point x="179" y="954"/>
      <point x="164" y="954" type="curve" smooth="yes"/>
      <point x="148" y="954"/>
      <point x="135" y="958"/>
      <point x="124" y="966" type="curve"/>
      <point x="164" y="1093"/>
      <point x="192" y="1193"/>
      <point x="208" y="1266" type="curve"/>
    </contour>
  </outline>
</glyph>
<glyph name="eight" format="2">
  <advance width="1090"/>
  <unicode hex="0038"/>
  <outline>
    <contour>
      <point x="556" y="1286" type="curve" smooth="yes"/>
      <point x="649" y="1286"/>
      <point x="727" y="1259"/>
      <point x="790" y="1206" type="curve" smooth="yes"/>
      <point x="853" y="1153"/>
      <point x="884" y="1082"/>
      <point x="884" y="992" type="curve" smooth="yes"/>
      <point x="884" y="955"/>
      <point x="878" y="920"/>
      <point x="864" y="888" type="curve" smooth="yes"/>
      <point x="850" y="856"/>
      <point x="830" y="828"/>
      <point x="804" y="802" type="curve" smooth="yes"/>
      <point x="778" y="776"/>
      <point x="756" y="756"/>
      <point x="736" y="740" type="curve" smooth="yes"/>
      <point x="716" y="724"/>
      <point x="690" y="707"/>
      <point x="660" y="688" type="curve" smooth="yes"/>
      <point x="651" y="686"/>
      <point x="651" y="682"/>
      <point x="660" y="676" type="curve" smooth="yes"/>
      <point x="730" y="637"/>
      <point x="792" y="586"/>
      <point x="844" y="525" type="curve" smooth="yes"/>
      <point x="896" y="464"/>
      <point x="922" y="400"/>
      <point x="922" y="334" type="curve" smooth="yes"/>
      <point x="922" y="236"/>
      <point x="884" y="152"/>
      <point x="808" y="84" type="curve" smooth="yes"/>
      <point x="732" y="16"/>
      <point x="642" y="-18"/>
      <point x="540" y="-18" type="curve" smooth="yes"/>
      <point x="430" y="-18"/>
      <point x="341" y="12"/>
      <point x="272" y="72" type="curve" smooth="yes"/>
      <point x="203" y="132"/>
      <point x="168" y="211"/>
      <point x="168" y="308" type="curve" smooth="yes"/>
      <point x="168" y="325"/>
      <point x="170" y="342"/>
      <point x="174" y="359" type="curve" smooth="yes"/>
      <point x="178" y="376"/>
      <point x="182" y="390"/>
      <point x="187" y="404" type="curve" smooth="yes"/>
      <point x="192" y="418"/>
      <point x="199" y="433"/>
      <point x="210" y="448" type="curve" smooth="yes"/>
      <point x="221" y="463"/>
      <point x="229" y="475"/>
      <point x="236" y="485" type="curve" smooth="yes"/>
      <point x="243" y="495"/>
      <point x="255" y="507"/>
      <point x="270" y="520" type="curve" smooth="yes"/>
      <point x="285" y="533"/>
      <point x="295" y="544"/>
      <point x="302" y="550" type="curve" smooth="yes"/>
      <point x="309" y="556"/>
      <point x="321" y="564"/>
      <point x="338" y="576" type="curve" smooth="yes"/>
      <point x="355" y="588"/>
      <point x="365" y="596"/>
      <point x="370" y="599" type="curve" smooth="yes"/>
      <point x="375" y="602"/>
      <point x="385" y="609"/>
      <point x="402" y="620" type="curve" smooth="yes"/>
      <point x="419" y="631"/>
      <point x="427" y="636"/>
      <point x="428" y="636" type="curve" smooth="yes"/>
      <point x="435" y="641"/>
      <point x="435" y="645"/>
      <point x="428" y="648" type="curve" smooth="yes"/>
      <point x="376" y="679"/>
      <point x="329" y="723"/>
      <point x="287" y="778" type="curve" smooth="yes"/>
      <point x="245" y="833"/>
      <point x="224" y="893"/>
      <point x="224" y="960" type="curve" smooth="yes"/>
      <point x="224" y="1045"/>
      <point x="257" y="1121"/>
      <point x="324" y="1187" type="curve" smooth="yes"/>
      <point x="391" y="1253"/>
      <point x="468" y="1286"/>
    </contour>
    <contour>
      <point x="544" y="1216" type="curve" smooth="yes"/>
      <point x="496" y="1216"/>
      <point x="455" y="1194"/>
      <point x="422" y="1151" type="curve" smooth="yes"/>
      <point x="389" y="1108"/>
      <point x="372" y="1056"/>
      <point x="372" y="996" type="curve" smooth="yes"/>
      <point x="372" y="961"/>
      <point x="378" y="929"/>
      <point x="390" y="900" type="curve" smooth="yes"/>
      <point x="402" y="871"/>
      <point x="420" y="846"/>
      <point x="444" y="824" type="curve" smooth="yes"/>
      <point x="468" y="802"/>
      <point x="489" y="786"/>
      <point x="506" y="774" type="curve" smooth="yes"/>
      <point x="523" y="762"/>
      <point x="545" y="748"/>
      <point x="571" y="733" type="curve" smooth="yes"/>
      <point x="575" y="731"/>
      <point x="578" y="729"/>
      <point x="580" y="728" type="curve" smooth="yes"/>
      <point x="585" y="725"/>
      <point x="589" y="724"/>
      <point x="592" y="724" type="curve" smooth="yes"/>
      <point x="596" y="724"/>
      <point x="600" y="725"/>
      <point x="604" y="728" type="curve" smooth="yes"/>
      <point x="695" y="788"/>
      <point x="740" y="869"/>
      <point x="740" y="972" type="curve" smooth="yes"/>
      <point x="740" y="1034"/>
      <point x="722" y="1090"/>
      <point x="685" y="1140" type="curve" smooth="yes"/>
      <point x="648" y="1190"/>
      <point x="601" y="1216"/>
    </contour>
    <contour>
      <point x="544" y="54" type="curve" smooth="yes"/>
      <point x="610" y="54"/>
      <point x="663" y="74"/>
      <point x="702" y="114" type="curve" smooth="yes"/>
      <point x="741" y="154"/>
      <point x="760" y="208"/>
      <point x="760" y="276" type="curve" smooth="yes"/>
      <point x="760" y="307"/>
      <point x="752" y="340"/>
      <point x="735" y="372" type="curve" smooth="yes"/>
      <point x="718" y="404"/>
      <point x="700" y="432"/>
      <point x="679" y="454" type="curve" smooth="yes"/>
      <point x="658" y="476"/>
      <point x="634" y="498"/>
      <point x="605" y="520" type="curve" smooth="yes"/>
      <point x="576" y="542"/>
      <point x="555" y="558"/>
      <point x="542" y="567" type="curve" smooth="yes"/>
      <point x="529" y="576"/>
      <point x="516" y="583"/>
      <point x="504" y="590" type="curve" smooth="yes"/>
      <point x="499" y="593"/>
      <point x="495" y="594"/>
      <point x="492" y="594" type="curve" smooth="yes"/>
      <point x="488" y="594"/>
      <point x="485" y="593"/>
      <point x="484" y="592" type="curve" smooth="yes"/>
      <point x="429" y="557"/>
      <point x="389" y="517"/>
      <point x="364" y="474" type="curve" smooth="yes"/>
      <point x="339" y="431"/>
      <point x="326" y="377"/>
      <point x="326" y="314" type="curve" smooth="yes"/>
      <point x="326" y="236"/>
      <point x="348" y="174"/>
      <point x="392" y="126" type="curve" smooth="yes"/>
      <point x="436" y="78"/>
      <point x="487" y="54"/>
    </contour>
  </outline>
</glyph>
<glyph name="semicolon" format="2">
  <advance width="464"/>
  <unicode hex="003B"/>
  <outline>
    <contour>
      <point x="122" y="754" type="curve" smooth="yes"/>
      <point x="122" y="784"/>
      <point x="134" y="809"/>
      <point x="156" y="830" type="curve" smooth="yes"/>
      <point x="178" y="851"/>
      <point x="204" y="862"/>
      <point x="234" y="862" type="curve" smooth="yes"/>
      <point x="264" y="862"/>
      <point x="289" y="851"/>
      <point x="310" y="830" type="curve" smooth="yes"/>
      <point x="331" y="809"/>
      <point x="342" y="784"/>
      <point x="342" y="754" type="curve" smooth="yes"/>
      <point x="342" y="724"/>
      <point x="331" y="698"/>
      <point x="310" y="676" type="curve" smooth="yes"/>
      <point x="289" y="654"/>
      <point x="264" y="642"/>
      <point x="234" y="642" type="curve" smooth="yes"/>
      <point x="204" y="642"/>
      <point x="178" y="654"/>
      <point x="156" y="676" type="curve" smooth="yes"/>
      <point x="134" y="698"/>
      <point x="122" y="724"/>
    </contour>
    <contour>
      <point x="254" y="246" type="curve" smooth="yes"/>
      <point x="273" y="246"/>
      <point x="290" y="241"/>
      <point x="306" y="232" type="curve"/>
      <point x="330" y="191"/>
      <point x="342" y="144"/>
      <point x="342" y="92" type="curve" smooth="yes"/>
      <point x="342" y="36"/>
      <point x="316" y="-33"/>
      <point x="263" y="-114" type="curve" smooth="yes"/>
      <point x="210" y="-195"/>
      <point x="158" y="-249"/>
      <point x="106" y="-278" type="curve" smooth="yes"/>
      <point x="99" y="-278"/>
      <point x="93" y="-273"/>
      <point x="86" y="-262" type="curve" smooth="yes"/>
      <point x="79" y="-251"/>
      <point x="76" y="-243"/>
      <point x="76" y="-236" type="curve"/>
      <point x="91" y="-225"/>
      <point x="104" y="-215"/>
      <point x="114" y="-206" type="curve" smooth="yes"/>
      <point x="124" y="-197"/>
      <point x="137" y="-183"/>
      <point x="153" y="-164" type="curve" smooth="yes"/>
      <point x="169" y="-145"/>
      <point x="182" y="-122"/>
      <point x="190" y="-97" type="curve" smooth="yes"/>
      <point x="198" y="-72"/>
      <point x="202" y="-44"/>
      <point x="202" y="-14" type="curve" smooth="yes"/>
      <point x="202" y="7"/>
      <point x="191" y="33"/>
      <point x="169" y="63" type="curve" smooth="yes"/>
      <point x="147" y="93"/>
      <point x="136" y="121"/>
      <point x="136" y="148" type="curve" smooth="yes"/>
      <point x="136" y="171"/>
      <point x="148" y="193"/>
      <point x="170" y="214" type="curve" smooth="yes"/>
      <point x="192" y="235"/>
      <point x="220" y="246"/>
    </contour>
  </outline>
</glyph>
<glyph name="greater" format="2">
  <advance width="986"/>
  <unicode hex="003E"/>
  <outline>
    <contour>
      <point x="96" y="70" type="curve" smooth="yes"/>
      <point x="96" y="73"/>
      <point x="97" y="75"/>
      <point x="98" y="77" type="curve" smooth="yes"/>
      <point x="99" y="79"/>
      <point x="99" y="80"/>
      <point x="100" y="81" type="curve" smooth="yes"/>
      <point x="102" y="82" type="line"/>
      <point x="764" y="418" type="line"/>
      <point x="114" y="748" type="line" smooth="yes"/>
      <point x="110" y="749"/>
      <point x="108" y="755"/>
      <point x="108" y="764" type="curve" smooth="yes"/>
      <point x="108" y="781"/>
      <point x="112" y="800"/>
      <point x="120" y="824" type="curve" smooth="yes"/>
      <point x="128" y="848"/>
      <point x="135" y="860"/>
      <point x="140" y="860" type="curve" smooth="yes"/>
      <point x="141" y="860"/>
      <point x="145" y="859"/>
      <point x="150" y="856" type="curve" smooth="yes"/>
      <point x="890" y="482" type="line" smooth="yes"/>
      <point x="913" y="471"/>
      <point x="924" y="455"/>
      <point x="924" y="434" type="curve" smooth="yes"/>
      <point x="924" y="393"/>
      <point x="913" y="366"/>
      <point x="890" y="354" type="curve" smooth="yes"/>
      <point x="140" y="-26" type="line" smooth="yes"/>
      <point x="135" y="-29"/>
      <point x="131" y="-30"/>
      <point x="130" y="-30" type="curve" smooth="yes"/>
      <point x="125" y="-30"/>
      <point x="118" y="-16"/>
      <point x="109" y="12" type="curve" smooth="yes"/>
      <point x="100" y="40"/>
      <point x="96" y="60"/>
    </contour>
  </outline>
</glyph>
<glyph name="question" format="2">
  <advance width="712"/>
  <unicode hex="003F"/>
  <outline>
    <contour>
      <point x="200" y="1096" type="curve" smooth="yes"/>
      <point x="182" y="1096"/>
      <point x="162" y="1105"/>
      <point x="142" y="1124" type="curve" smooth="yes"/>
      <point x="122" y="1143"/>
      <point x="112" y="1167"/>
      <point x="112" y="1196" type="curve" smooth="yes"/>
      <point x="112" y="1229"/>
      <point x="118" y="1253"/>
      <point x="130" y="1270" type="curve"/>
      <point x="149" y="1279"/>
      <point x="181" y="1284"/>
      <point x="226" y="1284" type="curve" smooth="yes"/>
      <point x="253" y="1284"/>
      <point x="284" y="1278"/>
      <point x="318" y="1268" type="curve" smooth="yes"/>
      <point x="352" y="1258"/>
      <point x="387" y="1242"/>
      <point x="422" y="1221" type="curve" smooth="yes"/>
      <point x="457" y="1200"/>
      <point x="490" y="1175"/>
      <point x="520" y="1146" type="curve" smooth="yes"/>
      <point x="550" y="1117"/>
      <point x="573" y="1083"/>
      <point x="592" y="1042" type="curve" smooth="yes"/>
      <point x="611" y="1001"/>
      <point x="620" y="959"/>
      <point x="620" y="914" type="curve" smooth="yes"/>
      <point x="620" y="845"/>
      <point x="604" y="788"/>
      <point x="574" y="742" type="curve" smooth="yes"/>
      <point x="544" y="696"/>
      <point x="492" y="651"/>
      <point x="418" y="608" type="curve" smooth="yes"/>
      <point x="390" y="591"/>
      <point x="359" y="570"/>
      <point x="324" y="542" type="curve" smooth="yes"/>
      <point x="289" y="514"/>
      <point x="268" y="495"/>
      <point x="262" y="484" type="curve" smooth="yes"/>
      <point x="258" y="477"/>
      <point x="255" y="467"/>
      <point x="253" y="454" type="curve" smooth="yes"/>
      <point x="251" y="441"/>
      <point x="250" y="429"/>
      <point x="250" y="420" type="curve" smooth="yes"/>
      <point x="250" y="411"/>
      <point x="250" y="398"/>
      <point x="250" y="379" type="curve" smooth="yes"/>
      <point x="250" y="360"/>
      <point x="250" y="349"/>
      <point x="250" y="344" type="curve" smooth="yes"/>
      <point x="242" y="328"/>
      <point x="231" y="319"/>
      <point x="218" y="318" type="curve"/>
      <point x="205" y="323"/>
      <point x="197" y="331"/>
      <point x="192" y="340" type="curve" smooth="yes"/>
      <point x="181" y="385"/>
      <point x="176" y="445"/>
      <point x="176" y="522" type="curve" smooth="yes"/>
      <point x="176" y="549"/>
      <point x="179" y="573"/>
      <point x="186" y="596" type="curve" smooth="yes"/>
      <point x="193" y="619"/>
      <point x="202" y="638"/>
      <point x="210" y="653" type="curve" smooth="yes"/>
      <point x="218" y="668"/>
      <point x="230" y="683"/>
      <point x="247" y="698" type="curve" smooth="yes"/>
      <point x="264" y="713"/>
      <point x="278" y="725"/>
      <point x="288" y="732" type="curve" smooth="yes"/>
      <point x="298" y="739"/>
      <point x="313" y="749"/>
      <point x="332" y="761" type="curve" smooth="yes"/>
      <point x="339" y="765"/>
      <point x="343" y="768"/>
      <point x="346" y="770" type="curve" smooth="yes"/>
      <point x="373" y="787"/>
      <point x="393" y="800"/>
      <point x="404" y="807" type="curve" smooth="yes"/>
      <point x="415" y="814"/>
      <point x="429" y="825"/>
      <point x="448" y="840" type="curve" smooth="yes"/>
      <point x="467" y="855"/>
      <point x="480" y="869"/>
      <point x="488" y="880" type="curve" smooth="yes"/>
      <point x="496" y="891"/>
      <point x="503" y="904"/>
      <point x="510" y="921" type="curve" smooth="yes"/>
      <point x="517" y="938"/>
      <point x="520" y="955"/>
      <point x="520" y="974" type="curve" smooth="yes"/>
      <point x="520" y="1024"/>
      <point x="505" y="1064"/>
      <point x="476" y="1094" type="curve" smooth="yes"/>
      <point x="447" y="1124"/>
      <point x="412" y="1138"/>
      <point x="372" y="1138" type="curve" smooth="yes"/>
      <point x="332" y="1138"/>
      <point x="297" y="1131"/>
      <point x="266" y="1117" type="curve" smooth="yes"/>
      <point x="235" y="1103"/>
      <point x="213" y="1096"/>
    </contour>
    <contour>
      <point x="126" y="90" type="curve" smooth="yes"/>
      <point x="126" y="120"/>
      <point x="138" y="145"/>
      <point x="160" y="166" type="curve" smooth="yes"/>
      <point x="182" y="187"/>
      <point x="208" y="198"/>
      <point x="238" y="198" type="curve" smooth="yes"/>
      <point x="268" y="198"/>
      <point x="293" y="187"/>
      <point x="314" y="166" type="curve" smooth="yes"/>
      <point x="335" y="145"/>
      <point x="346" y="120"/>
      <point x="346" y="90" type="curve" smooth="yes"/>
      <point x="346" y="60"/>
      <point x="335" y="34"/>
      <point x="314" y="12" type="curve" smooth="yes"/>
      <point x="293" y="-10"/>
      <point x="268" y="-22"/>
      <point x="238" y="-22" type="curve" smooth="yes"/>
      <point x="208" y="-22"/>
      <point x="182" y="-10"/>
      <point x="160" y="12" type="curve" smooth="yes"/>
      <point x="138" y="34"/>
      <point x="126" y="60"/>
    </contour>
  </outline>
</glyph>
<glyph name="F" format="2">
  <advance width="1070"/>
  <unicode hex="0046"/>
  <outline>
    <contour>
      <point x="327" y="1314" type="curve" smooth="yes"/>
      <point x="387" y="1314"/>
      <point x="491" y="1316"/>
      <point x="638" y="1321" type="curve" smooth="yes"/>
      <point x="785" y="1326"/>
      <point x="896" y="1328"/>
      <point x="971" y="1328" type="curve"/>
      <point x="976" y="1289"/>
      <point x="987" y="1238"/>
      <point x="1002" y="1175" type="curve" smooth="yes"/>
      <point x="1017" y="1112"/>
      <point x="1026" y="1072"/>
      <point x="1029" y="1056" type="curve"/>
      <point x="1022" y="1049"/>
      <point x="1010" y="1046"/>
      <point x="993" y="1046" type="curve" smooth="yes"/>
      <point x="976" y="1046"/>
      <point x="967" y="1051"/>
      <point x="965" y="1060" type="curve" smooth="yes"/>
      <point x="944" y="1134"/>
      <point x="915" y="1184"/>
      <point x="878" y="1210" type="curve" smooth="yes"/>
      <point x="841" y="1236"/>
      <point x="793" y="1248"/>
      <point x="733" y="1248" type="curve" smooth="yes"/>
      <point x="561" y="1248" type="line" smooth="yes"/>
      <point x="474" y="1248"/>
      <point x="428" y="1241"/>
      <point x="423" y="1226" type="curve" smooth="yes"/>
      <point x="416" y="1205"/>
      <point x="413" y="1157"/>
      <point x="413" y="1084" type="curve" smooth="yes"/>
      <point x="413" y="710" type="line" smooth="yes"/>
      <point x="412" y="705"/>
      <point x="420" y="702"/>
      <point x="436" y="700" type="curve" smooth="yes"/>
      <point x="452" y="698"/>
      <point x="473" y="698"/>
      <point x="499" y="698" type="curve" smooth="yes"/>
      <point x="605" y="698" type="line" smooth="yes"/>
      <point x="638" y="698"/>
      <point x="664" y="698"/>
      <point x="683" y="699" type="curve" smooth="yes"/>
      <point x="702" y="700"/>
      <point x="720" y="702"/>
      <point x="736" y="705" type="curve" smooth="yes"/>
      <point x="752" y="708"/>
      <point x="764" y="713"/>
      <point x="771" y="718" type="curve" smooth="yes"/>
      <point x="778" y="723"/>
      <point x="785" y="730"/>
      <point x="792" y="740" type="curve" smooth="yes"/>
      <point x="799" y="750"/>
      <point x="804" y="762"/>
      <point x="808" y="775" type="curve" smooth="yes"/>
      <point x="812" y="788"/>
      <point x="816" y="805"/>
      <point x="821" y="825" type="curve" smooth="yes"/>
      <point x="822" y="832"/>
      <point x="824" y="838"/>
      <point x="825" y="842" type="curve" smooth="yes"/>
      <point x="827" y="851"/>
      <point x="837" y="856"/>
      <point x="855" y="856" type="curve" smooth="yes"/>
      <point x="871" y="856"/>
      <point x="882" y="853"/>
      <point x="889" y="846" type="curve"/>
      <point x="889" y="468" type="line"/>
      <point x="884" y="463"/>
      <point x="873" y="460"/>
      <point x="857" y="460" type="curve" smooth="yes"/>
      <point x="840" y="460"/>
      <point x="829" y="465"/>
      <point x="825" y="476" type="curve" smooth="yes"/>
      <point x="811" y="529"/>
      <point x="801" y="562"/>
      <point x="794" y="576" type="curve" smooth="yes"/>
      <point x="787" y="590"/>
      <point x="779" y="601"/>
      <point x="769" y="608" type="curve" smooth="yes"/>
      <point x="752" y="619"/>
      <point x="682" y="624"/>
      <point x="557" y="624" type="curve" smooth="yes"/>
      <point x="461" y="624"/>
      <point x="413" y="618"/>
      <point x="413" y="606" type="curve" smooth="yes"/>
      <point x="413" y="232" type="line" smooth="yes"/>
      <point x="413" y="155"/>
      <point x="416" y="105"/>
      <point x="423" y="84" type="curve" smooth="yes"/>
      <point x="426" y="75"/>
      <point x="448" y="67"/>
      <point x="488" y="61" type="curve" smooth="yes"/>
      <point x="528" y="55"/>
      <point x="559" y="52"/>
      <point x="581" y="52" type="curve"/>
      <point x="585" y="47"/>
      <point x="588" y="37"/>
      <point x="588" y="23" type="curve" smooth="yes"/>
      <point x="588" y="9"/>
      <point x="586" y="-1"/>
      <point x="581" y="-6" type="curve"/>
      <point x="444" y="1"/>
      <point x="360" y="4"/>
      <point x="327" y="4" type="curve" smooth="yes"/>
      <point x="294" y="4"/>
      <point x="253" y="2"/>
      <point x="203" y="-1" type="curve" smooth="yes"/>
      <point x="153" y="-4"/>
      <point x="116" y="-6"/>
      <point x="91" y="-6" type="curve"/>
      <point x="86" y="-1"/>
      <point x="84" y="9"/>
      <point x="84" y="23" type="curve" smooth="yes"/>
      <point x="84" y="37"/>
      <point x="87" y="47"/>
      <point x="91" y="52" type="curve"/>
      <point x="111" y="52"/>
      <point x="138" y="55"/>
      <point x="173" y="61" type="curve" smooth="yes"/>
      <point x="208" y="67"/>
      <point x="226" y="75"/>
      <point x="229" y="84" type="curve" smooth="yes"/>
      <point x="236" y="105"/>
      <point x="239" y="155"/>
      <point x="239" y="232" type="curve" smooth="yes"/>
      <point x="239" y="1086" type="line" smooth="yes"/>
      <point x="239" y="1163"/>
      <point x="236" y="1213"/>
      <point x="229" y="1234" type="curve" smooth="yes"/>
      <point x="226" y="1243"/>
      <point x="208" y="1251"/>
      <point x="173" y="1257" type="curve" smooth="yes"/>
      <point x="138" y="1263"/>
      <point x="111" y="1266"/>
      <point x="91" y="1266" type="curve"/>
      <point x="87" y="1271"/>
      <point x="84" y="1281"/>
      <point x="84" y="1295" type="curve" smooth="yes"/>
      <point x="84" y="1309"/>
      <point x="86" y="1319"/>
      <point x="91" y="1324" type="curve"/>
      <point x="228" y="1317"/>
      <point x="306" y="1314"/>
    </contour>
  </outline>
</glyph>
<glyph name="I" format="2">
  <advance width="648"/>
  <unicode hex="0049"/>
  <outline>
    <contour>
      <point x="327" y="1314" type="curve" smooth="yes"/>
      <point x="346" y="1314"/>
      <point x="424" y="1317"/>
      <point x="561" y="1324" type="curve"/>
      <point x="566" y="1319"/>
      <point x="568" y="1309"/>
      <point x="568" y="1295" type="curve" smooth="yes"/>
      <point x="568" y="1281"/>
      <point x="565" y="1271"/>
      <point x="561" y="1266" type="curve"/>
      <point x="541" y="1266"/>
      <point x="514" y="1263"/>
      <point x="479" y="1257" type="curve" smooth="yes"/>
      <point x="444" y="1251"/>
      <point x="426" y="1243"/>
      <point x="423" y="1234" type="curve" smooth="yes"/>
      <point x="416" y="1213"/>
      <point x="413" y="1163"/>
      <point x="413" y="1086" type="curve" smooth="yes"/>
      <point x="413" y="232" type="line" smooth="yes"/>
      <point x="413" y="155"/>
      <point x="416" y="105"/>
      <point x="423" y="84" type="curve" smooth="yes"/>
      <point x="426" y="75"/>
      <point x="444" y="67"/>
      <point x="479" y="61" type="curve" smooth="yes"/>
      <point x="514" y="55"/>
      <point x="541" y="52"/>
      <point x="561" y="52" type="curve"/>
      <point x="565" y="47"/>
      <point x="568" y="37"/>
      <point x="568" y="23" type="curve" smooth="yes"/>
      <point x="568" y="9"/>
      <point x="566" y="-1"/>
      <point x="561" y="-6" type="curve"/>
      <point x="424" y="1"/>
      <point x="346" y="4"/>
      <point x="327" y="4" type="curve" smooth="yes"/>
      <point x="306" y="4"/>
      <point x="228" y="1"/>
      <point x="91" y="-6" type="curve"/>
      <point x="86" y="-1"/>
      <point x="84" y="9"/>
      <point x="84" y="23" type="curve" smooth="yes"/>
      <point x="84" y="37"/>
      <point x="87" y="47"/>
      <point x="91" y="52" type="curve"/>
      <point x="111" y="52"/>
      <point x="138" y="55"/>
      <point x="173" y="61" type="curve" smooth="yes"/>
      <point x="208" y="67"/>
      <point x="226" y="75"/>
      <point x="229" y="84" type="curve" smooth="yes"/>
      <point x="236" y="105"/>
      <point x="239" y="155"/>
      <point x="239" y="232" type="curve" smooth="yes"/>
      <point x="239" y="1086" type="line" smooth="yes"/>
      <point x="239" y="1163"/>
      <point x="236" y="1213"/>
      <point x="229" y="1234" type="curve" smooth="yes"/>
      <point x="226" y="1243"/>
      <point x="208" y="1251"/>
      <point x="173" y="1257" type="curve" smooth="yes"/>
      <point x="138" y="1263"/>
      <point x="111" y="1266"/>
      <point x="91" y="1266" type="curve"/>
      <point x="87" y="1271"/>
      <point x="84" y="1281"/>
      <point x="84" y="1295" type="curve" smooth="yes"/>
      <point x="84" y="1309"/>
      <point x="86" y="1319"/>
      <point x="91" y="1324" type="curve"/>
      <point x="228" y="1317"/>
      <point x="306" y="1314"/>
    </contour>
  </outline>
</glyph>
<glyph name="J" format="2">
  <advance width="626"/>
  <unicode hex="004A"/>
  <outline>
    <contour>
      <point x="316" y="1314" type="curve" smooth="yes"/>
      <point x="335" y="1314"/>
      <point x="413" y="1317"/>
      <point x="550" y="1324" type="curve"/>
      <point x="555" y="1319"/>
      <point x="556" y="1309"/>
      <point x="556" y="1295" type="curve" smooth="yes"/>
      <point x="556" y="1281"/>
      <point x="554" y="1271"/>
      <point x="550" y="1266" type="curve"/>
      <point x="530" y="1266"/>
      <point x="503" y="1263"/>
      <point x="468" y="1257" type="curve" smooth="yes"/>
      <point x="433" y="1251"/>
      <point x="415" y="1243"/>
      <point x="412" y="1234" type="curve" smooth="yes"/>
      <point x="405" y="1213"/>
      <point x="402" y="1163"/>
      <point x="402" y="1086" type="curve" smooth="yes"/>
      <point x="402" y="242" type="line" smooth="yes"/>
      <point x="402" y="120"/>
      <point x="391" y="14"/>
      <point x="368" y="-77" type="curve" smooth="yes"/>
      <point x="345" y="-168"/>
      <point x="312" y="-240"/>
      <point x="269" y="-294" type="curve" smooth="yes"/>
      <point x="226" y="-348"/>
      <point x="178" y="-389"/>
      <point x="122" y="-415" type="curve" smooth="yes"/>
      <point x="66" y="-441"/>
      <point x="3" y="-454"/>
      <point x="-66" y="-454" type="curve" smooth="yes"/>
      <point x="-82" y="-454"/>
      <point x="-104" y="-450"/>
      <point x="-132" y="-442" type="curve" smooth="yes"/>
      <point x="-160" y="-434"/>
      <point x="-181" y="-427"/>
      <point x="-192" y="-418" type="curve" smooth="yes"/>
      <point x="-203" y="-407"/>
      <point x="-208" y="-392"/>
      <point x="-208" y="-372" type="curve" smooth="yes"/>
      <point x="-208" y="-339"/>
      <point x="-200" y="-313"/>
      <point x="-183" y="-292" type="curve" smooth="yes"/>
      <point x="-166" y="-271"/>
      <point x="-143" y="-260"/>
      <point x="-112" y="-260" type="curve" smooth="yes"/>
      <point x="-107" y="-260"/>
      <point x="-103" y="-261"/>
      <point x="-98" y="-262" type="curve" smooth="yes"/>
      <point x="-93" y="-263"/>
      <point x="-87" y="-265"/>
      <point x="-82" y="-268" type="curve" smooth="yes"/>
      <point x="-77" y="-271"/>
      <point x="-72" y="-273"/>
      <point x="-68" y="-275" type="curve" smooth="yes"/>
      <point x="-64" y="-277"/>
      <point x="-60" y="-280"/>
      <point x="-54" y="-285" type="curve" smooth="yes"/>
      <point x="-48" y="-290"/>
      <point x="-44" y="-293"/>
      <point x="-42" y="-295" type="curve" smooth="yes"/>
      <point x="-40" y="-297"/>
      <point x="-35" y="-301"/>
      <point x="-28" y="-307" type="curve" smooth="yes"/>
      <point x="-21" y="-313"/>
      <point x="-17" y="-317"/>
      <point x="-16" y="-318" type="curve" smooth="yes"/>
      <point x="15" y="-346"/>
      <point x="45" y="-360"/>
      <point x="74" y="-360" type="curve" smooth="yes"/>
      <point x="97" y="-360"/>
      <point x="117" y="-351"/>
      <point x="134" y="-334" type="curve" smooth="yes"/>
      <point x="151" y="-317"/>
      <point x="167" y="-288"/>
      <point x="182" y="-246" type="curve" smooth="yes"/>
      <point x="197" y="-204"/>
      <point x="208" y="-144"/>
      <point x="216" y="-64" type="curve" smooth="yes"/>
      <point x="224" y="16"/>
      <point x="228" y="115"/>
      <point x="228" y="232" type="curve" smooth="yes"/>
      <point x="228" y="1086" type="line" smooth="yes"/>
      <point x="228" y="1163"/>
      <point x="225" y="1213"/>
      <point x="218" y="1234" type="curve" smooth="yes"/>
      <point x="215" y="1243"/>
      <point x="197" y="1251"/>
      <point x="162" y="1257" type="curve" smooth="yes"/>
      <point x="127" y="1263"/>
      <point x="100" y="1266"/>
      <point x="80" y="1266" type="curve"/>
      <point x="76" y="1271"/>
      <point x="74" y="1281"/>
      <point x="74" y="1295" type="curve" smooth="yes"/>
      <point x="74" y="1309"/>
      <point x="75" y="1319"/>
      <point x="80" y="1324" type="curve"/>
      <point x="217" y="1317"/>
      <point x="295" y="1314"/>
    </contour>
  </outline>
</glyph>
<glyph name="M" format="2">
  <advance width="1814"/>
  <unicode hex="004D"/>
  <outline>
    <contour>
      <point x="325" y="1314" type="curve" smooth="yes"/>
      <point x="360" y="1314"/>
      <point x="414" y="1317"/>
      <point x="487" y="1324" type="curve"/>
      <point x="498" y="1288"/>
      <point x="529" y="1211"/>
      <point x="578" y="1094" type="curve" smooth="yes"/>
      <point x="627" y="977"/>
      <point x="685" y="838"/>
      <point x="753" y="676" type="curve" smooth="yes"/>
      <point x="821" y="514"/>
      <point x="874" y="386"/>
      <point x="911" y="292" type="curve" smooth="yes"/>
      <point x="912" y="289"/>
      <point x="915" y="288"/>
      <point x="919" y="288" type="curve" smooth="yes"/>
      <point x="924" y="288"/>
      <point x="927" y="291"/>
      <point x="929" y="296" type="curve" smooth="yes"/>
      <point x="1124" y="798"/>
      <point x="1226" y="1061"/>
      <point x="1235" y="1084" type="curve" smooth="yes"/>
      <point x="1323" y="1324" type="line"/>
      <point x="1408" y="1319"/>
      <point x="1461" y="1316"/>
      <point x="1481" y="1316" type="curve" smooth="yes"/>
      <point x="1564" y="1316"/>
      <point x="1638" y="1319"/>
      <point x="1705" y="1324" type="curve"/>
      <point x="1711" y="1266" type="line"/>
      <point x="1692" y="1266"/>
      <point x="1666" y="1262"/>
      <point x="1630" y="1254" type="curve" smooth="yes"/>
      <point x="1594" y="1246"/>
      <point x="1574" y="1239"/>
      <point x="1569" y="1230" type="curve" smooth="yes"/>
      <point x="1562" y="1215"/>
      <point x="1559" y="1190"/>
      <point x="1559" y="1154" type="curve" smooth="yes"/>
      <point x="1560" y="1113"/>
      <point x="1562" y="1041"/>
      <point x="1564" y="938" type="curve" smooth="yes"/>
      <point x="1566" y="835"/>
      <point x="1569" y="714"/>
      <point x="1572" y="576" type="curve" smooth="yes"/>
      <point x="1575" y="438"/>
      <point x="1578" y="339"/>
      <point x="1579" y="280" type="curve" smooth="yes"/>
      <point x="1582" y="187"/>
      <point x="1590" y="122"/>
      <point x="1603" y="86" type="curve" smooth="yes"/>
      <point x="1607" y="74"/>
      <point x="1626" y="65"/>
      <point x="1660" y="60" type="curve" smooth="yes"/>
      <point x="1694" y="55"/>
      <point x="1722" y="52"/>
      <point x="1743" y="52" type="curve"/>
      <point x="1748" y="44"/>
      <point x="1750" y="34"/>
      <point x="1750" y="21" type="curve" smooth="yes"/>
      <point x="1750" y="8"/>
      <point x="1749" y="-1"/>
      <point x="1747" y="-6" type="curve"/>
      <point x="1614" y="1"/>
      <point x="1534" y="4"/>
      <point x="1509" y="4" type="curve" smooth="yes"/>
      <point x="1482" y="4"/>
      <point x="1456" y="3"/>
      <point x="1431" y="2" type="curve" smooth="yes"/>
      <point x="1406" y="1"/>
      <point x="1378" y="0"/>
      <point x="1347" y="-2" type="curve" smooth="yes"/>
      <point x="1316" y="-4"/>
      <point x="1290" y="-5"/>
      <point x="1269" y="-6" type="curve" smooth="yes"/>
      <point x="1266" y="-3"/>
      <point x="1264" y="4"/>
      <point x="1264" y="18" type="curve" smooth="yes"/>
      <point x="1264" y="32"/>
      <point x="1266" y="43"/>
      <point x="1269" y="52" type="curve"/>
      <point x="1285" y="52"/>
      <point x="1308" y="54"/>
      <point x="1338" y="58" type="curve" smooth="yes"/>
      <point x="1368" y="62"/>
      <point x="1388" y="68"/>
      <point x="1399" y="74" type="curve" smooth="yes"/>
      <point x="1411" y="81"/>
      <point x="1417" y="109"/>
      <point x="1417" y="158" type="curve" smooth="yes"/>
      <point x="1417" y="167"/>
      <point x="1416" y="187"/>
      <point x="1415" y="216" type="curve" smooth="yes"/>
      <point x="1414" y="245"/>
      <point x="1413" y="264"/>
      <point x="1413" y="274" type="curve" smooth="yes"/>
      <point x="1402" y="685"/>
      <point x="1393" y="970"/>
      <point x="1387" y="1130" type="curve" smooth="yes"/>
      <point x="1387" y="1137"/>
      <point x="1385" y="1146"/>
      <point x="1382" y="1156" type="curve" smooth="yes"/>
      <point x="1379" y="1166"/>
      <point x="1375" y="1170"/>
      <point x="1369" y="1170" type="curve" smooth="yes"/>
      <point x="1366" y="1170"/>
      <point x="1363" y="1165"/>
      <point x="1359" y="1156" type="curve" smooth="yes"/>
      <point x="1328" y="1080"/>
      <point x="1188" y="727"/>
      <point x="937" y="98" type="curve" smooth="yes"/>
      <point x="930" y="83"/>
      <point x="918" y="64"/>
      <point x="901" y="38" type="curve" smooth="yes"/>
      <point x="884" y="12"/>
      <point x="870" y="-2"/>
      <point x="861" y="-4" type="curve" smooth="yes"/>
      <point x="859" y="-5"/>
      <point x="853" y="-3"/>
      <point x="843" y="0" type="curve"/>
      <point x="355" y="1168" type="line"/>
      <point x="352" y="1040"/>
      <point x="348" y="893"/>
      <point x="344" y="726" type="curve" smooth="yes"/>
      <point x="340" y="559"/>
      <point x="337" y="421"/>
      <point x="334" y="314" type="curve" smooth="yes"/>
      <point x="331" y="207"/>
      <point x="329" y="153"/>
      <point x="329" y="150" type="curve" smooth="yes"/>
      <point x="329" y="123"/>
      <point x="332" y="102"/>
      <point x="337" y="88" type="curve" smooth="yes"/>
      <point x="342" y="75"/>
      <point x="364" y="66"/>
      <point x="403" y="60" type="curve" smooth="yes"/>
      <point x="442" y="54"/>
      <point x="472" y="52"/>
      <point x="495" y="52" type="curve"/>
      <point x="500" y="47"/>
      <point x="502" y="37"/>
      <point x="502" y="23" type="curve" smooth="yes"/>
      <point x="502" y="9"/>
      <point x="501" y="-1"/>
      <point x="499" y="-6" type="curve"/>
      <point x="481" y="-5"/>
      <point x="459" y="-4"/>
      <point x="432" y="-2" type="curve" smooth="yes"/>
      <point x="405" y="0"/>
      <point x="381" y="1"/>
      <point x="359" y="2" type="curve" smooth="yes"/>
      <point x="337" y="3"/>
      <point x="313" y="4"/>
      <point x="287" y="4" type="curve" smooth="yes"/>
      <point x="260" y="4"/>
      <point x="234" y="3"/>
      <point x="210" y="2" type="curve" smooth="yes"/>
      <point x="186" y="1"/>
      <point x="160" y="0"/>
      <point x="130" y="-2" type="curve" smooth="yes"/>
      <point x="100" y="-4"/>
      <point x="74" y="-5"/>
      <point x="53" y="-6" type="curve" smooth="yes"/>
      <point x="50" y="-3"/>
      <point x="48" y="4"/>
      <point x="48" y="18" type="curve" smooth="yes"/>
      <point x="48" y="32"/>
      <point x="50" y="43"/>
      <point x="53" y="52" type="curve"/>
      <point x="75" y="52"/>
      <point x="105" y="56"/>
      <point x="144" y="62" type="curve" smooth="yes"/>
      <point x="183" y="68"/>
      <point x="207" y="77"/>
      <point x="215" y="88" type="curve" smooth="yes"/>
      <point x="229" y="108"/>
      <point x="237" y="141"/>
      <point x="239" y="188" type="curve" smooth="yes"/>
      <point x="258" y="686"/>
      <point x="267" y="1005"/>
      <point x="267" y="1144" type="curve" smooth="yes"/>
      <point x="267" y="1183"/>
      <point x="264" y="1209"/>
      <point x="259" y="1224" type="curve" smooth="yes"/>
      <point x="256" y="1235"/>
      <point x="236" y="1244"/>
      <point x="200" y="1253" type="curve" smooth="yes"/>
      <point x="164" y="1262"/>
      <point x="136" y="1266"/>
      <point x="119" y="1266" type="curve" smooth="yes"/>
      <point x="117" y="1266"/>
      <point x="116" y="1276"/>
      <point x="116" y="1294" type="curve" smooth="yes"/>
      <point x="116" y="1312"/>
      <point x="117" y="1322"/>
      <point x="119" y="1324" type="curve" smooth="yes"/>
      <point x="142" y="1323"/>
      <point x="166" y="1322"/>
      <point x="190" y="1320" type="curve" smooth="yes"/>
      <point x="214" y="1318"/>
      <point x="234" y="1317"/>
      <point x="254" y="1316" type="curve" smooth="yes"/>
      <point x="274" y="1315"/>
      <point x="298" y="1314"/>
    </contour>
  </outline>
</glyph>
<glyph name="N" format="2">
  <advance width="1552"/>
  <unicode hex="004E"/>
  <outline>
    <contour>
      <point x="286" y="1320" type="curve" smooth="yes"/>
      <point x="350" y="1320"/>
      <point x="401" y="1321"/>
      <point x="438" y="1324" type="curve"/>
      <point x="471" y="1272"/>
      <point x="591" y="1120"/>
      <point x="798" y="868" type="curve" smooth="yes"/>
      <point x="1005" y="616"/>
      <point x="1146" y="438"/>
      <point x="1222" y="332" type="curve"/>
      <point x="1222" y="448" type="line"/>
      <point x="1222" y="1090" type="line" smooth="yes"/>
      <point x="1222" y="1131"/>
      <point x="1221" y="1161"/>
      <point x="1219" y="1179" type="curve" smooth="yes"/>
      <point x="1217" y="1197"/>
      <point x="1211" y="1213"/>
      <point x="1202" y="1228" type="curve" smooth="yes"/>
      <point x="1197" y="1237"/>
      <point x="1174" y="1246"/>
      <point x="1136" y="1255" type="curve" smooth="yes"/>
      <point x="1098" y="1264"/>
      <point x="1069" y="1268"/>
      <point x="1050" y="1268" type="curve"/>
      <point x="1045" y="1275"/>
      <point x="1042" y="1285"/>
      <point x="1042" y="1298" type="curve" smooth="yes"/>
      <point x="1042" y="1311"/>
      <point x="1043" y="1321"/>
      <point x="1046" y="1326" type="curve"/>
      <point x="1179" y="1319"/>
      <point x="1256" y="1316"/>
      <point x="1276" y="1316" type="curve" smooth="yes"/>
      <point x="1303" y="1316"/>
      <point x="1327" y="1317"/>
      <point x="1348" y="1318" type="curve" smooth="yes"/>
      <point x="1369" y="1319"/>
      <point x="1393" y="1320"/>
      <point x="1418" y="1322" type="curve" smooth="yes"/>
      <point x="1443" y="1324"/>
      <point x="1467" y="1325"/>
      <point x="1490" y="1326" type="curve"/>
      <point x="1500" y="1309"/>
      <point x="1500" y="1290"/>
      <point x="1490" y="1268" type="curve"/>
      <point x="1471" y="1268"/>
      <point x="1442" y="1264"/>
      <point x="1402" y="1256" type="curve" smooth="yes"/>
      <point x="1362" y="1248"/>
      <point x="1340" y="1239"/>
      <point x="1334" y="1228" type="curve" smooth="yes"/>
      <point x="1325" y="1214"/>
      <point x="1320" y="1198"/>
      <point x="1318" y="1180" type="curve" smooth="yes"/>
      <point x="1316" y="1162"/>
      <point x="1314" y="1133"/>
      <point x="1314" y="1092" type="curve" smooth="yes"/>
      <point x="1314" y="278" type="line" smooth="yes"/>
      <point x="1314" y="163"/>
      <point x="1315" y="71"/>
      <point x="1318" y="2" type="curve" smooth="yes"/>
      <point x="1317" y="-6"/>
      <point x="1308" y="-10"/>
      <point x="1292" y="-10" type="curve" smooth="yes"/>
      <point x="1285" y="-10"/>
      <point x="1274" y="-6"/>
      <point x="1260" y="1" type="curve" smooth="yes"/>
      <point x="1246" y="8"/>
      <point x="1234" y="20"/>
      <point x="1222" y="36" type="curve" smooth="yes"/>
      <point x="350" y="1138" type="line"/>
      <point x="350" y="230" type="line" smooth="yes"/>
      <point x="350" y="189"/>
      <point x="351" y="159"/>
      <point x="353" y="141" type="curve" smooth="yes"/>
      <point x="355" y="123"/>
      <point x="361" y="107"/>
      <point x="370" y="92" type="curve" smooth="yes"/>
      <point x="375" y="83"/>
      <point x="396" y="74"/>
      <point x="434" y="65" type="curve" smooth="yes"/>
      <point x="472" y="56"/>
      <point x="501" y="52"/>
      <point x="520" y="52" type="curve"/>
      <point x="525" y="45"/>
      <point x="528" y="35"/>
      <point x="528" y="22" type="curve" smooth="yes"/>
      <point x="528" y="9"/>
      <point x="527" y="-1"/>
      <point x="524" y="-6" type="curve"/>
      <point x="391" y="1"/>
      <point x="315" y="4"/>
      <point x="296" y="4" type="curve" smooth="yes"/>
      <point x="269" y="4"/>
      <point x="245" y="3"/>
      <point x="224" y="2" type="curve" smooth="yes"/>
      <point x="203" y="1"/>
      <point x="179" y="0"/>
      <point x="154" y="-2" type="curve" smooth="yes"/>
      <point x="129" y="-4"/>
      <point x="105" y="-5"/>
      <point x="82" y="-6" type="curve"/>
      <point x="72" y="11"/>
      <point x="72" y="30"/>
      <point x="82" y="52" type="curve"/>
      <point x="101" y="52"/>
      <point x="130" y="56"/>
      <point x="170" y="64" type="curve" smooth="yes"/>
      <point x="210" y="72"/>
      <point x="232" y="81"/>
      <point x="238" y="92" type="curve" smooth="yes"/>
      <point x="247" y="106"/>
      <point x="252" y="122"/>
      <point x="254" y="140" type="curve" smooth="yes"/>
      <point x="256" y="158"/>
      <point x="258" y="187"/>
      <point x="258" y="228" type="curve" smooth="yes"/>
      <point x="258" y="1096" type="line" smooth="yes"/>
      <point x="258" y="1137"/>
      <point x="256" y="1166"/>
      <point x="254" y="1184" type="curve" smooth="yes"/>
      <point x="252" y="1202"/>
      <point x="247" y="1218"/>
      <point x="238" y="1232" type="curve" smooth="yes"/>
      <point x="232" y="1243"/>
      <point x="210" y="1252"/>
      <point x="170" y="1260" type="curve" smooth="yes"/>
      <point x="130" y="1268"/>
      <point x="101" y="1272"/>
      <point x="82" y="1272" type="curve"/>
      <point x="72" y="1294"/>
      <point x="72" y="1313"/>
      <point x="82" y="1330" type="curve"/>
      <point x="103" y="1329"/>
      <point x="136" y="1327"/>
      <point x="181" y="1324" type="curve" smooth="yes"/>
      <point x="226" y="1321"/>
      <point x="261" y="1320"/>
    </contour>
  </outline>
</glyph>
<glyph name="P" format="2">
  <advance width="1096"/>
  <unicode hex="0050"/>
  <outline>
    <contour>
      <point x="1036" y="958" type="curve" smooth="yes"/>
      <point x="1036" y="837"/>
      <point x="995" y="739"/>
      <point x="914" y="666" type="curve" smooth="yes"/>
      <point x="833" y="593"/>
      <point x="727" y="556"/>
      <point x="596" y="556" type="curve" smooth="yes"/>
      <point x="560" y="556"/>
      <point x="531" y="561"/>
      <point x="510" y="572" type="curve" smooth="yes"/>
      <point x="491" y="585"/>
      <point x="482" y="599"/>
      <point x="482" y="616" type="curve" smooth="yes"/>
      <point x="482" y="617"/>
      <point x="482" y="618"/>
      <point x="483" y="620" type="curve" smooth="yes"/>
      <point x="484" y="622"/>
      <point x="485" y="624"/>
      <point x="486" y="625" type="curve" smooth="yes"/>
      <point x="487" y="626"/>
      <point x="489" y="627"/>
      <point x="492" y="626" type="curve" smooth="yes"/>
      <point x="526" y="617"/>
      <point x="551" y="612"/>
      <point x="568" y="612" type="curve" smooth="yes"/>
      <point x="651" y="612"/>
      <point x="719" y="640"/>
      <point x="772" y="695" type="curve" smooth="yes"/>
      <point x="825" y="750"/>
      <point x="852" y="827"/>
      <point x="852" y="924" type="curve" smooth="yes"/>
      <point x="852" y="1026"/>
      <point x="824" y="1107"/>
      <point x="768" y="1166" type="curve" smooth="yes"/>
      <point x="712" y="1225"/>
      <point x="630" y="1254"/>
      <point x="522" y="1254" type="curve" smooth="yes"/>
      <point x="461" y="1254"/>
      <point x="428" y="1247"/>
      <point x="422" y="1234" type="curve" smooth="yes"/>
      <point x="415" y="1218"/>
      <point x="412" y="1168"/>
      <point x="412" y="1084" type="curve" smooth="yes"/>
      <point x="412" y="232" type="line" smooth="yes"/>
      <point x="412" y="155"/>
      <point x="415" y="105"/>
      <point x="422" y="84" type="curve" smooth="yes"/>
      <point x="425" y="75"/>
      <point x="443" y="67"/>
      <point x="478" y="61" type="curve" smooth="yes"/>
      <point x="513" y="55"/>
      <point x="540" y="52"/>
      <point x="560" y="52" type="curve"/>
      <point x="564" y="47"/>
      <point x="566" y="37"/>
      <point x="566" y="23" type="curve" smooth="yes"/>
      <point x="566" y="9"/>
      <point x="565" y="-1"/>
      <point x="560" y="-6" type="curve"/>
      <point x="423" y="1"/>
      <point x="345" y="4"/>
      <point x="326" y="4" type="curve" smooth="yes"/>
      <point x="305" y="4"/>
      <point x="227" y="1"/>
      <point x="90" y="-6" type="curve"/>
      <point x="85" y="-1"/>
      <point x="84" y="9"/>
      <point x="84" y="23" type="curve" smooth="yes"/>
      <point x="84" y="37"/>
      <point x="86" y="47"/>
      <point x="90" y="52" type="curve"/>
      <point x="110" y="52"/>
      <point x="137" y="55"/>
      <point x="172" y="61" type="curve" smooth="yes"/>
      <point x="207" y="67"/>
      <point x="225" y="75"/>
      <point x="228" y="84" type="curve" smooth="yes"/>
      <point x="235" y="105"/>
      <point x="238" y="155"/>
      <point x="238" y="232" type="curve" smooth="yes"/>
      <point x="238" y="1086" type="line" smooth="yes"/>
      <point x="238" y="1163"/>
      <point x="235" y="1213"/>
      <point x="228" y="1234" type="curve" smooth="yes"/>
      <point x="225" y="1243"/>
      <point x="207" y="1251"/>
      <point x="172" y="1257" type="curve" smooth="yes"/>
      <point x="137" y="1263"/>
      <point x="110" y="1266"/>
      <point x="90" y="1266" type="curve"/>
      <point x="86" y="1271"/>
      <point x="84" y="1281"/>
      <point x="84" y="1295" type="curve" smooth="yes"/>
      <point x="84" y="1309"/>
      <point x="85" y="1319"/>
      <point x="90" y="1324" type="curve"/>
      <point x="227" y="1317"/>
      <point x="305" y="1314"/>
      <point x="326" y="1314" type="curve" smooth="yes"/>
      <point x="349" y="1314"/>
      <point x="391" y="1315"/>
      <point x="453" y="1316" type="curve" smooth="yes"/>
      <point x="515" y="1317"/>
      <point x="567" y="1318"/>
      <point x="610" y="1318" type="curve" smooth="yes"/>
      <point x="683" y="1318"/>
      <point x="750" y="1305"/>
      <point x="814" y="1278" type="curve" smooth="yes"/>
      <point x="878" y="1251"/>
      <point x="931" y="1209"/>
      <point x="973" y="1153" type="curve" smooth="yes"/>
      <point x="1015" y="1097"/>
      <point x="1036" y="1032"/>
    </contour>
  </outline>
</glyph>
<glyph name="Q" format="2">
  <advance width="1494"/>
  <unicode hex="0051"/>
  <outline>
    <contour>
      <point x="746" y="1334" type="curve" smooth="yes"/>
      <point x="833" y="1334"/>
      <point x="917" y="1318"/>
      <point x="996" y="1284" type="curve" smooth="yes"/>
      <point x="1075" y="1250"/>
      <point x="1145" y="1204"/>
      <point x="1204" y="1145" type="curve" smooth="yes"/>
      <point x="1263" y="1086"/>
      <point x="1311" y="1015"/>
      <point x="1346" y="930" type="curve" smooth="yes"/>
      <point x="1381" y="845"/>
      <point x="1398" y="753"/>
      <point x="1398" y="656" type="curve" smooth="yes"/>
      <point x="1398" y="505"/>
      <point x="1354" y="370"/>
      <point x="1266" y="251" type="curve" smooth="yes"/>
      <point x="1178" y="132"/>
      <point x="1067" y="51"/>
      <point x="932" y="8" type="curve"/>
      <point x="969" y="-9"/>
      <point x="1008" y="-31"/>
      <point x="1050" y="-56" type="curve" smooth="yes"/>
      <point x="1092" y="-81"/>
      <point x="1125" y="-100"/>
      <point x="1148" y="-113" type="curve" smooth="yes"/>
      <point x="1171" y="-126"/>
      <point x="1202" y="-137"/>
      <point x="1240" y="-147" type="curve" smooth="yes"/>
      <point x="1278" y="-157"/>
      <point x="1321" y="-162"/>
      <point x="1370" y="-162" type="curve" smooth="yes"/>
      <point x="1437" y="-162"/>
      <point x="1484" y="-158"/>
      <point x="1512" y="-150" type="curve"/>
      <point x="1530" y="-150"/>
      <point x="1542" y="-155"/>
      <point x="1548" y="-164" type="curve" smooth="yes"/>
      <point x="1549" y="-167"/>
      <point x="1550" y="-169"/>
      <point x="1550" y="-170" type="curve" smooth="yes"/>
      <point x="1486" y="-204"/>
      <point x="1429" y="-229"/>
      <point x="1378" y="-246" type="curve" smooth="yes"/>
      <point x="1327" y="-263"/>
      <point x="1274" y="-272"/>
      <point x="1218" y="-272" type="curve" smooth="yes"/>
      <point x="1178" y="-272"/>
      <point x="1137" y="-264"/>
      <point x="1096" y="-250" type="curve" smooth="yes"/>
      <point x="1055" y="-236"/>
      <point x="1016" y="-218"/>
      <point x="977" y="-195" type="curve" smooth="yes"/>
      <point x="938" y="-172"/>
      <point x="900" y="-149"/>
      <point x="861" y="-125" type="curve" smooth="yes"/>
      <point x="822" y="-101"/>
      <point x="779" y="-78"/>
      <point x="730" y="-54" type="curve" smooth="yes"/>
      <point x="681" y="-30"/>
      <point x="633" y="-12"/>
      <point x="586" y="0" type="curve" smooth="yes"/>
      <point x="443" y="36"/>
      <point x="326" y="113"/>
      <point x="235" y="232" type="curve" smooth="yes"/>
      <point x="144" y="351"/>
      <point x="98" y="493"/>
      <point x="98" y="656" type="curve" smooth="yes"/>
      <point x="98" y="748"/>
      <point x="115" y="836"/>
      <point x="150" y="920" type="curve" smooth="yes"/>
      <point x="185" y="1004"/>
      <point x="232" y="1076"/>
      <point x="290" y="1136" type="curve" smooth="yes"/>
      <point x="348" y="1196"/>
      <point x="416" y="1244"/>
      <point x="496" y="1280" type="curve" smooth="yes"/>
      <point x="576" y="1316"/>
      <point x="659" y="1334"/>
    </contour>
    <contour>
      <point x="716" y="1266" type="curve" smooth="yes"/>
      <point x="658" y="1266"/>
      <point x="606" y="1254"/>
      <point x="558" y="1232" type="curve" smooth="yes"/>
      <point x="510" y="1210"/>
      <point x="470" y="1181"/>
      <point x="438" y="1144" type="curve" smooth="yes"/>
      <point x="406" y="1107"/>
      <point x="380" y="1064"/>
      <point x="358" y="1015" type="curve" smooth="yes"/>
      <point x="336" y="966"/>
      <point x="320" y="915"/>
      <point x="310" y="862" type="curve" smooth="yes"/>
      <point x="300" y="809"/>
      <point x="296" y="755"/>
      <point x="296" y="700" type="curve" smooth="yes"/>
      <point x="296" y="621"/>
      <point x="306" y="544"/>
      <point x="328" y="467" type="curve" smooth="yes"/>
      <point x="350" y="390"/>
      <point x="381" y="321"/>
      <point x="420" y="258" type="curve" smooth="yes"/>
      <point x="459" y="195"/>
      <point x="510" y="145"/>
      <point x="572" y="106" type="curve" smooth="yes"/>
      <point x="634" y="67"/>
      <point x="703" y="48"/>
      <point x="778" y="48" type="curve" smooth="yes"/>
      <point x="836" y="48"/>
      <point x="889" y="60"/>
      <point x="937" y="82" type="curve" smooth="yes"/>
      <point x="985" y="104"/>
      <point x="1024" y="133"/>
      <point x="1056" y="170" type="curve" smooth="yes"/>
      <point x="1088" y="207"/>
      <point x="1116" y="250"/>
      <point x="1138" y="300" type="curve" smooth="yes"/>
      <point x="1160" y="350"/>
      <point x="1176" y="402"/>
      <point x="1186" y="455" type="curve" smooth="yes"/>
      <point x="1196" y="508"/>
      <point x="1200" y="563"/>
      <point x="1200" y="618" type="curve" smooth="yes"/>
      <point x="1200" y="697"/>
      <point x="1189" y="774"/>
      <point x="1167" y="850" type="curve" smooth="yes"/>
      <point x="1145" y="926"/>
      <point x="1114" y="996"/>
      <point x="1074" y="1058" type="curve" smooth="yes"/>
      <point x="1034" y="1120"/>
      <point x="984" y="1170"/>
      <point x="922" y="1208" type="curve" smooth="yes"/>
      <point x="860" y="1246"/>
      <point x="791" y="1266"/>
    </contour>
  </outline>
</glyph>
<glyph name="S" format="2">
  <advance width="1004"/>
  <unicode hex="0053"/>
  <outline>
    <contour>
      <point x="522" y="1332" type="curve" smooth="yes"/>
      <point x="551" y="1332"/>
      <point x="578" y="1330"/>
      <point x="604" y="1327" type="curve" smooth="yes"/>
      <point x="630" y="1324"/>
      <point x="651" y="1320"/>
      <point x="668" y="1316" type="curve" smooth="yes"/>
      <point x="685" y="1312"/>
      <point x="709" y="1304"/>
      <point x="740" y="1296" type="curve" smooth="yes"/>
      <point x="771" y="1288"/>
      <point x="799" y="1281"/>
      <point x="824" y="1276" type="curve"/>
      <point x="833" y="1218"/>
      <point x="842" y="1123"/>
      <point x="852" y="992" type="curve" smooth="yes"/>
      <point x="853" y="986"/>
      <point x="848" y="980"/>
      <point x="838" y="976" type="curve" smooth="yes"/>
      <point x="828" y="972"/>
      <point x="819" y="970"/>
      <point x="810" y="970" type="curve" smooth="yes"/>
      <point x="801" y="970"/>
      <point x="793" y="973"/>
      <point x="788" y="978" type="curve"/>
      <point x="785" y="999"/>
      <point x="780" y="1021"/>
      <point x="771" y="1046" type="curve" smooth="yes"/>
      <point x="762" y="1071"/>
      <point x="750" y="1096"/>
      <point x="733" y="1122" type="curve" smooth="yes"/>
      <point x="716" y="1148"/>
      <point x="697" y="1171"/>
      <point x="676" y="1192" type="curve" smooth="yes"/>
      <point x="655" y="1213"/>
      <point x="630" y="1231"/>
      <point x="601" y="1244" type="curve" smooth="yes"/>
      <point x="572" y="1257"/>
      <point x="541" y="1264"/>
      <point x="508" y="1264" type="curve" smooth="yes"/>
      <point x="469" y="1264"/>
      <point x="436" y="1258"/>
      <point x="406" y="1244" type="curve" smooth="yes"/>
      <point x="376" y="1230"/>
      <point x="353" y="1212"/>
      <point x="337" y="1189" type="curve" smooth="yes"/>
      <point x="321" y="1166"/>
      <point x="310" y="1143"/>
      <point x="302" y="1118" type="curve" smooth="yes"/>
      <point x="294" y="1093"/>
      <point x="290" y="1068"/>
      <point x="290" y="1042" type="curve" smooth="yes"/>
      <point x="290" y="1023"/>
      <point x="292" y="1004"/>
      <point x="297" y="986" type="curve" smooth="yes"/>
      <point x="302" y="968"/>
      <point x="307" y="952"/>
      <point x="314" y="938" type="curve" smooth="yes"/>
      <point x="321" y="924"/>
      <point x="331" y="910"/>
      <point x="344" y="896" type="curve" smooth="yes"/>
      <point x="357" y="882"/>
      <point x="369" y="869"/>
      <point x="380" y="859" type="curve" smooth="yes"/>
      <point x="391" y="849"/>
      <point x="405" y="837"/>
      <point x="424" y="824" type="curve" smooth="yes"/>
      <point x="443" y="811"/>
      <point x="458" y="802"/>
      <point x="470" y="794" type="curve" smooth="yes"/>
      <point x="482" y="786"/>
      <point x="498" y="775"/>
      <point x="520" y="762" type="curve" smooth="yes"/>
      <point x="542" y="749"/>
      <point x="559" y="739"/>
      <point x="570" y="732" type="curve" smooth="yes"/>
      <point x="581" y="725"/>
      <point x="598" y="715"/>
      <point x="622" y="700" type="curve" smooth="yes"/>
      <point x="646" y="685"/>
      <point x="665" y="673"/>
      <point x="680" y="664" type="curve" smooth="yes"/>
      <point x="695" y="655"/>
      <point x="715" y="642"/>
      <point x="738" y="626" type="curve" smooth="yes"/>
      <point x="761" y="610"/>
      <point x="779" y="595"/>
      <point x="794" y="582" type="curve" smooth="yes"/>
      <point x="809" y="569"/>
      <point x="825" y="553"/>
      <point x="842" y="534" type="curve" smooth="yes"/>
      <point x="859" y="515"/>
      <point x="873" y="496"/>
      <point x="883" y="478" type="curve" smooth="yes"/>
      <point x="893" y="460"/>
      <point x="901" y="439"/>
      <point x="908" y="416" type="curve" smooth="yes"/>
      <point x="915" y="393"/>
      <point x="918" y="370"/>
      <point x="918" y="346" type="curve" smooth="yes"/>
      <point x="918" y="293"/>
      <point x="906" y="242"/>
      <point x="883" y="196" type="curve" smooth="yes"/>
      <point x="860" y="150"/>
      <point x="829" y="111"/>
      <point x="790" y="80" type="curve" smooth="yes"/>
      <point x="751" y="49"/>
      <point x="706" y="24"/>
      <point x="656" y="6" type="curve" smooth="yes"/>
      <point x="606" y="-12"/>
      <point x="553" y="-20"/>
      <point x="500" y="-20" type="curve" smooth="yes"/>
      <point x="469" y="-20"/>
      <point x="434" y="-18"/>
      <point x="398" y="-13" type="curve" smooth="yes"/>
      <point x="362" y="-8"/>
      <point x="332" y="-4"/>
      <point x="308" y="1" type="curve" smooth="yes"/>
      <point x="284" y="6"/>
      <point x="253" y="12"/>
      <point x="216" y="21" type="curve" smooth="yes"/>
      <point x="179" y="30"/>
      <point x="154" y="35"/>
      <point x="140" y="38" type="curve"/>
      <point x="129" y="91"/>
      <point x="120" y="151"/>
      <point x="111" y="220" type="curve" smooth="yes"/>
      <point x="102" y="289"/>
      <point x="98" y="332"/>
      <point x="98" y="348" type="curve"/>
      <point x="114" y="364"/>
      <point x="131" y="372"/>
      <point x="150" y="372" type="curve" smooth="yes"/>
      <point x="163" y="372"/>
      <point x="170" y="366"/>
      <point x="172" y="354" type="curve" smooth="yes"/>
      <point x="176" y="335"/>
      <point x="182" y="314"/>
      <point x="190" y="292" type="curve" smooth="yes"/>
      <point x="198" y="270"/>
      <point x="210" y="245"/>
      <point x="227" y="214" type="curve" smooth="yes"/>
      <point x="244" y="183"/>
      <point x="265" y="156"/>
      <point x="288" y="133" type="curve" smooth="yes"/>
      <point x="311" y="110"/>
      <point x="341" y="90"/>
      <point x="379" y="73" type="curve" smooth="yes"/>
      <point x="417" y="56"/>
      <point x="459" y="48"/>
      <point x="504" y="48" type="curve" smooth="yes"/>
      <point x="572" y="48"/>
      <point x="629" y="70"/>
      <point x="675" y="114" type="curve" smooth="yes"/>
      <point x="721" y="158"/>
      <point x="744" y="217"/>
      <point x="744" y="292" type="curve" smooth="yes"/>
      <point x="744" y="312"/>
      <point x="742" y="331"/>
      <point x="738" y="349" type="curve" smooth="yes"/>
      <point x="734" y="367"/>
      <point x="728" y="383"/>
      <point x="722" y="396" type="curve" smooth="yes"/>
      <point x="716" y="409"/>
      <point x="708" y="423"/>
      <point x="696" y="436" type="curve" smooth="yes"/>
      <point x="684" y="449"/>
      <point x="673" y="459"/>
      <point x="663" y="468" type="curve" smooth="yes"/>
      <point x="653" y="477"/>
      <point x="639" y="487"/>
      <point x="622" y="498" type="curve" smooth="yes"/>
      <point x="605" y="509"/>
      <point x="590" y="517"/>
      <point x="578" y="524" type="curve" smooth="yes"/>
      <point x="566" y="531"/>
      <point x="549" y="541"/>
      <point x="528" y="552" type="curve" smooth="yes"/>
      <point x="507" y="563"/>
      <point x="491" y="573"/>
      <point x="478" y="580" type="curve" smooth="yes"/>
      <point x="450" y="597"/>
      <point x="432" y="608"/>
      <point x="424" y="612" type="curve" smooth="yes"/>
      <point x="416" y="616"/>
      <point x="400" y="626"/>
      <point x="373" y="643" type="curve" smooth="yes"/>
      <point x="346" y="660"/>
      <point x="328" y="672"/>
      <point x="318" y="680" type="curve" smooth="yes"/>
      <point x="308" y="688"/>
      <point x="292" y="700"/>
      <point x="270" y="717" type="curve" smooth="yes"/>
      <point x="248" y="734"/>
      <point x="232" y="748"/>
      <point x="223" y="760" type="curve" smooth="yes"/>
      <point x="214" y="772"/>
      <point x="202" y="787"/>
      <point x="187" y="806" type="curve" smooth="yes"/>
      <point x="172" y="825"/>
      <point x="162" y="842"/>
      <point x="156" y="859" type="curve" smooth="yes"/>
      <point x="150" y="876"/>
      <point x="143" y="895"/>
      <point x="138" y="916" type="curve" smooth="yes"/>
      <point x="133" y="937"/>
      <point x="130" y="958"/>
      <point x="130" y="980" type="curve" smooth="yes"/>
      <point x="130" y="1048"/>
      <point x="148" y="1109"/>
      <point x="186" y="1164" type="curve" smooth="yes"/>
      <point x="224" y="1219"/>
      <point x="273" y="1260"/>
      <point x="332" y="1289" type="curve" smooth="yes"/>
      <point x="391" y="1318"/>
      <point x="455" y="1332"/>
    </contour>
  </outline>
</glyph>
<glyph name="T" format="2">
  <advance width="1252"/>
  <unicode hex="0054"/>
  <outline>
    <contour>
      <point x="1016" y="1322" type="line" smooth="yes"/>
      <point x="1031" y="1322"/>
      <point x="1052" y="1325"/>
      <point x="1078" y="1332" type="curve" smooth="yes"/>
      <point x="1104" y="1339"/>
      <point x="1123" y="1345"/>
      <point x="1136" y="1352" type="curve" smooth="yes"/>
      <point x="1151" y="1360"/>
      <point x="1164" y="1361"/>
      <point x="1174" y="1356" type="curve"/>
      <point x="1190" y="1217"/>
      <point x="1207" y="1102"/>
      <point x="1226" y="1012" type="curve"/>
      <point x="1215" y="1001"/>
      <point x="1203" y="997"/>
      <point x="1188" y="998" type="curve" smooth="yes"/>
      <point x="1174" y="998"/>
      <point x="1165" y="1001"/>
      <point x="1160" y="1008" type="curve" smooth="yes"/>
      <point x="1145" y="1082"/>
      <point x="1122" y="1142"/>
      <point x="1089" y="1186" type="curve" smooth="yes"/>
      <point x="1056" y="1230"/>
      <point x="1016" y="1252"/>
      <point x="968" y="1252" type="curve" smooth="yes"/>
      <point x="714" y="1252" type="line"/>
      <point x="714" y="232" type="line" smooth="yes"/>
      <point x="714" y="155"/>
      <point x="717" y="105"/>
      <point x="724" y="84" type="curve" smooth="yes"/>
      <point x="727" y="75"/>
      <point x="745" y="67"/>
      <point x="780" y="61" type="curve" smooth="yes"/>
      <point x="815" y="55"/>
      <point x="842" y="52"/>
      <point x="862" y="52" type="curve"/>
      <point x="866" y="47"/>
      <point x="868" y="37"/>
      <point x="868" y="23" type="curve" smooth="yes"/>
      <point x="868" y="9"/>
      <point x="867" y="-1"/>
      <point x="862" y="-6" type="curve"/>
      <point x="725" y="1"/>
      <point x="647" y="4"/>
      <point x="628" y="4" type="curve" smooth="yes"/>
      <point x="607" y="4"/>
      <point x="529" y="1"/>
      <point x="392" y="-6" type="curve"/>
      <point x="387" y="-1"/>
      <point x="386" y="9"/>
      <point x="386" y="23" type="curve" smooth="yes"/>
      <point x="386" y="37"/>
      <point x="388" y="47"/>
      <point x="392" y="52" type="curve"/>
      <point x="412" y="52"/>
      <point x="439" y="55"/>
      <point x="474" y="61" type="curve" smooth="yes"/>
      <point x="509" y="67"/>
      <point x="527" y="75"/>
      <point x="530" y="84" type="curve" smooth="yes"/>
      <point x="537" y="105"/>
      <point x="540" y="155"/>
      <point x="540" y="232" type="curve" smooth="yes"/>
      <point x="540" y="1252" type="line"/>
      <point x="282" y="1252" type="line" smooth="yes"/>
      <point x="234" y="1252"/>
      <point x="194" y="1230"/>
      <point x="161" y="1186" type="curve" smooth="yes"/>
      <point x="128" y="1142"/>
      <point x="105" y="1082"/>
      <point x="90" y="1008" type="curve" smooth="yes"/>
      <point x="85" y="1001"/>
      <point x="76" y="998"/>
      <point x="62" y="998" type="curve" smooth="yes"/>
      <point x="47" y="997"/>
      <point x="35" y="1001"/>
      <point x="24" y="1012" type="curve"/>
      <point x="43" y="1102"/>
      <point x="60" y="1217"/>
      <point x="76" y="1356" type="curve"/>
      <point x="87" y="1361"/>
      <point x="103" y="1359"/>
      <point x="122" y="1350" type="curve" smooth="yes"/>
      <point x="135" y="1343"/>
      <point x="153" y="1337"/>
      <point x="176" y="1331" type="curve" smooth="yes"/>
      <point x="199" y="1325"/>
      <point x="219" y="1322"/>
      <point x="234" y="1322" type="curve" smooth="yes"/>
    </contour>
  </outline>
</glyph>
<glyph name="V" format="2">
  <advance width="1276"/>
  <unicode hex="0056"/>
  <outline>
    <contour>
      <point x="219" y="1314" type="curve" smooth="yes"/>
      <point x="251" y="1314"/>
      <point x="334" y="1317"/>
      <point x="467" y="1324" type="curve"/>
      <point x="469" y="1318"/>
      <point x="470" y="1307"/>
      <point x="470" y="1291" type="curve" smooth="yes"/>
      <point x="470" y="1275"/>
      <point x="467" y="1267"/>
      <point x="463" y="1266" type="curve" smooth="yes"/>
      <point x="457" y="1266"/>
      <point x="448" y="1266"/>
      <point x="437" y="1264" type="curve" smooth="yes"/>
      <point x="426" y="1262"/>
      <point x="413" y="1258"/>
      <point x="398" y="1254" type="curve" smooth="yes"/>
      <point x="383" y="1250"/>
      <point x="370" y="1244"/>
      <point x="359" y="1234" type="curve" smooth="yes"/>
      <point x="348" y="1224"/>
      <point x="343" y="1213"/>
      <point x="343" y="1200" type="curve" smooth="yes"/>
      <point x="343" y="1173"/>
      <point x="355" y="1127"/>
      <point x="378" y="1064" type="curve" smooth="yes"/>
      <point x="503" y="724"/>
      <point x="602" y="455"/>
      <point x="676" y="258" type="curve"/>
      <point x="681" y="267"/>
      <point x="700" y="315"/>
      <point x="735" y="400" type="curve" smooth="yes"/>
      <point x="770" y="485"/>
      <point x="813" y="590"/>
      <point x="864" y="716" type="curve" smooth="yes"/>
      <point x="915" y="842"/>
      <point x="958" y="952"/>
      <point x="995" y="1046" type="curve" smooth="yes"/>
      <point x="1019" y="1107"/>
      <point x="1031" y="1154"/>
      <point x="1031" y="1186" type="curve" smooth="yes"/>
      <point x="1031" y="1201"/>
      <point x="1025" y="1214"/>
      <point x="1014" y="1225" type="curve" smooth="yes"/>
      <point x="1003" y="1236"/>
      <point x="990" y="1245"/>
      <point x="974" y="1250" type="curve" smooth="yes"/>
      <point x="958" y="1255"/>
      <point x="943" y="1258"/>
      <point x="930" y="1260" type="curve" smooth="yes"/>
      <point x="917" y="1262"/>
      <point x="907" y="1264"/>
      <point x="899" y="1264" type="curve" smooth="yes"/>
      <point x="894" y="1266"/>
      <point x="892" y="1274"/>
      <point x="892" y="1290" type="curve" smooth="yes"/>
      <point x="892" y="1306"/>
      <point x="894" y="1317"/>
      <point x="899" y="1322" type="curve"/>
      <point x="998" y="1317"/>
      <point x="1067" y="1314"/>
      <point x="1107" y="1314" type="curve" smooth="yes"/>
      <point x="1134" y="1314"/>
      <point x="1158" y="1315"/>
      <point x="1178" y="1316" type="curve" smooth="yes"/>
      <point x="1198" y="1317"/>
      <point x="1218" y="1318"/>
      <point x="1240" y="1320" type="curve" smooth="yes"/>
      <point x="1262" y="1322"/>
      <point x="1284" y="1323"/>
      <point x="1303" y="1324" type="curve"/>
      <point x="1306" y="1319"/>
      <point x="1307" y="1308"/>
      <point x="1306" y="1291" type="curve" smooth="yes"/>
      <point x="1305" y="1274"/>
      <point x="1302" y="1266"/>
      <point x="1299" y="1266" type="curve" smooth="yes"/>
      <point x="1284" y="1266"/>
      <point x="1263" y="1262"/>
      <point x="1235" y="1253" type="curve" smooth="yes"/>
      <point x="1207" y="1244"/>
      <point x="1186" y="1231"/>
      <point x="1171" y="1214" type="curve" smooth="yes"/>
      <point x="1146" y="1185"/>
      <point x="1112" y="1117"/>
      <point x="1071" y="1012" type="curve" smooth="yes"/>
      <point x="959" y="731"/>
      <point x="830" y="415"/>
      <point x="683" y="64" type="curve" smooth="yes"/>
      <point x="664" y="19"/>
      <point x="639" y="-4"/>
      <point x="607" y="-4" type="curve" smooth="yes"/>
      <point x="604" y="-4"/>
      <point x="602" y="-2"/>
      <point x="600" y="2" type="curve" smooth="yes"/>
      <point x="598" y="6"/>
      <point x="595" y="11"/>
      <point x="592" y="18" type="curve" smooth="yes"/>
      <point x="587" y="28" type="line"/>
      <point x="560" y="97"/>
      <point x="504" y="244"/>
      <point x="420" y="469" type="curve" smooth="yes"/>
      <point x="336" y="694"/>
      <point x="265" y="880"/>
      <point x="207" y="1028" type="curve" smooth="yes"/>
      <point x="175" y="1111"/>
      <point x="144" y="1175"/>
      <point x="115" y="1220" type="curve" smooth="yes"/>
      <point x="106" y="1234"/>
      <point x="86" y="1246"/>
      <point x="57" y="1254" type="curve" smooth="yes"/>
      <point x="28" y="1262"/>
      <point x="4" y="1266"/>
      <point x="-13" y="1266" type="curve" smooth="yes"/>
      <point x="-15" y="1266"/>
      <point x="-16" y="1276"/>
      <point x="-16" y="1294" type="curve" smooth="yes"/>
      <point x="-16" y="1312"/>
      <point x="-15" y="1322"/>
      <point x="-13" y="1324" type="curve" smooth="yes"/>
      <point x="8" y="1323"/>
      <point x="34" y="1322"/>
      <point x="63" y="1320" type="curve" smooth="yes"/>
      <point x="92" y="1318"/>
      <point x="118" y="1317"/>
      <point x="142" y="1316" type="curve" smooth="yes"/>
      <point x="166" y="1315"/>
      <point x="192" y="1314"/>
    </contour>
  </outline>
</glyph>
<glyph name="underscore" format="2">
  <advance width="1010"/>
  <unicode hex="005F"/>
  <outline>
    <contour>
      <point x="28" y="-66" type="curve" smooth="yes"/>
      <point x="35" y="-5"/>
      <point x="45" y="26"/>
      <point x="58" y="26" type="curve" smooth="yes"/>
      <point x="956" y="26" type="line" smooth="yes"/>
      <point x="961" y="26"/>
      <point x="964" y="23"/>
      <point x="964" y="16" type="curve" smooth="yes"/>
      <point x="964" y="5"/>
      <point x="957" y="-25"/>
      <point x="944" y="-74" type="curve" smooth="yes"/>
      <point x="943" y="-77"/>
      <point x="941" y="-80"/>
      <point x="939" y="-82" type="curve" smooth="yes"/>
      <point x="937" y="-84"/>
      <point x="935" y="-85"/>
      <point x="934" y="-86" type="curve" smooth="yes"/>
      <point x="932" y="-86" type="line"/>
      <point x="42" y="-86" type="line" smooth="yes"/>
      <point x="33" y="-86"/>
      <point x="28" y="-79"/>
    </contour>
  </outline>
</glyph>
<glyph name="b" format="2">
  <advance width="996"/>
  <unicode hex="0062"/>
  <outline>
    <contour>
      <point x="455" y="758" type="curve" smooth="yes"/>
      <point x="431" y="758"/>
      <point x="403" y="752"/>
      <point x="371" y="739" type="curve" smooth="yes"/>
      <point x="339" y="726"/>
      <point x="318" y="715"/>
      <point x="307" y="704" type="curve" smooth="yes"/>
      <point x="300" y="697"/>
      <point x="297" y="690"/>
      <point x="297" y="682" type="curve" smooth="yes"/>
      <point x="297" y="196" type="line" smooth="yes"/>
      <point x="297" y="155"/>
      <point x="316" y="121"/>
      <point x="355" y="94" type="curve" smooth="yes"/>
      <point x="394" y="67"/>
      <point x="436" y="54"/>
      <point x="483" y="54" type="curve" smooth="yes"/>
      <point x="530" y="54"/>
      <point x="574" y="71"/>
      <point x="615" y="104" type="curve" smooth="yes"/>
      <point x="656" y="137"/>
      <point x="689" y="178"/>
      <point x="713" y="230" type="curve" smooth="yes"/>
      <point x="737" y="282"/>
      <point x="749" y="335"/>
      <point x="749" y="388" type="curve" smooth="yes"/>
      <point x="749" y="503"/>
      <point x="723" y="594"/>
      <point x="670" y="660" type="curve" smooth="yes"/>
      <point x="617" y="726"/>
      <point x="545" y="758"/>
    </contour>
    <contour>
      <point x="423" y="-14" type="curve" smooth="yes"/>
      <point x="394" y="-14"/>
      <point x="345" y="-4"/>
      <point x="275" y="16" type="curve" smooth="yes"/>
      <point x="272" y="17"/>
      <point x="265" y="19"/>
      <point x="254" y="22" type="curve" smooth="yes"/>
      <point x="243" y="25"/>
      <point x="236" y="27"/>
      <point x="232" y="28" type="curve" smooth="yes"/>
      <point x="228" y="29"/>
      <point x="220" y="30"/>
      <point x="211" y="32" type="curve" smooth="yes"/>
      <point x="202" y="34"/>
      <point x="194" y="35"/>
      <point x="188" y="35" type="curve" smooth="yes"/>
      <point x="182" y="35"/>
      <point x="176" y="35"/>
      <point x="168" y="34" type="curve" smooth="yes"/>
      <point x="160" y="33"/>
      <point x="152" y="31"/>
      <point x="145" y="28" type="curve" smooth="yes"/>
      <point x="140" y="28"/>
      <point x="134" y="34"/>
      <point x="128" y="46" type="curve" smooth="yes"/>
      <point x="122" y="58"/>
      <point x="119" y="66"/>
      <point x="119" y="72" type="curve" smooth="yes"/>
      <point x="135" y="107"/>
      <point x="143" y="157"/>
      <point x="143" y="220" type="curve" smooth="yes"/>
      <point x="143" y="1116" type="line" smooth="yes"/>
      <point x="143" y="1169"/>
      <point x="140" y="1204"/>
      <point x="133" y="1220" type="curve" smooth="yes"/>
      <point x="123" y="1244"/>
      <point x="82" y="1256"/>
      <point x="11" y="1256" type="curve" smooth="yes"/>
      <point x="10" y="1256"/>
      <point x="10" y="1260"/>
      <point x="9" y="1268" type="curve" smooth="yes"/>
      <point x="8" y="1276"/>
      <point x="8" y="1285"/>
      <point x="8" y="1294" type="curve" smooth="yes"/>
      <point x="8" y="1303"/>
      <point x="10" y="1307"/>
      <point x="13" y="1308" type="curve" smooth="yes"/>
      <point x="105" y="1317"/>
      <point x="200" y="1344"/>
      <point x="297" y="1388" type="curve" smooth="yes"/>
      <point x="302" y="1388"/>
      <point x="307" y="1385"/>
      <point x="312" y="1378" type="curve" smooth="yes"/>
      <point x="317" y="1371"/>
      <point x="319" y="1363"/>
      <point x="319" y="1356" type="curve" smooth="yes"/>
      <point x="304" y="1313"/>
      <point x="297" y="1255"/>
      <point x="297" y="1182" type="curve" smooth="yes"/>
      <point x="297" y="788" type="line"/>
      <point x="297" y="788"/>
      <point x="297" y="788"/>
      <point x="297" y="779" type="curve" smooth="yes"/>
      <point x="297" y="777"/>
      <point x="297" y="774"/>
      <point x="298" y="770" type="curve" smooth="yes"/>
      <point x="299" y="766"/>
      <point x="301" y="766"/>
      <point x="302" y="766" type="curve" smooth="yes"/>
      <point x="303" y="766"/>
      <point x="306" y="767"/>
      <point x="309" y="768" type="curve" smooth="yes"/>
      <point x="336" y="788"/>
      <point x="375" y="811"/>
      <point x="426" y="837" type="curve" smooth="yes"/>
      <point x="477" y="863"/>
      <point x="518" y="876"/>
      <point x="551" y="876" type="curve" smooth="yes"/>
      <point x="608" y="876"/>
      <point x="660" y="863"/>
      <point x="708" y="838" type="curve" smooth="yes"/>
      <point x="756" y="813"/>
      <point x="794" y="780"/>
      <point x="824" y="739" type="curve" smooth="yes"/>
      <point x="854" y="698"/>
      <point x="877" y="654"/>
      <point x="893" y="607" type="curve" smooth="yes"/>
      <point x="909" y="560"/>
      <point x="917" y="513"/>
      <point x="917" y="466" type="curve" smooth="yes"/>
      <point x="917" y="401"/>
      <point x="905" y="339"/>
      <point x="880" y="280" type="curve" smooth="yes"/>
      <point x="855" y="221"/>
      <point x="820" y="171"/>
      <point x="777" y="128" type="curve" smooth="yes"/>
      <point x="734" y="85"/>
      <point x="682" y="50"/>
      <point x="620" y="24" type="curve" smooth="yes"/>
      <point x="558" y="-2"/>
      <point x="492" y="-14"/>
    </contour>
  </outline>
</glyph>
<glyph name="d" format="2">
  <advance width="1030"/>
  <unicode hex="0064"/>
  <outline>
    <contour>
      <point x="490" y="792" type="curve" smooth="yes"/>
      <point x="417" y="792"/>
      <point x="359" y="758"/>
      <point x="314" y="692" type="curve" smooth="yes"/>
      <point x="269" y="626"/>
      <point x="246" y="549"/>
      <point x="246" y="460" type="curve" smooth="yes"/>
      <point x="246" y="361"/>
      <point x="272" y="278"/>
      <point x="322" y="210" type="curve" smooth="yes"/>
      <point x="372" y="142"/>
      <point x="441" y="108"/>
      <point x="528" y="108" type="curve" smooth="yes"/>
      <point x="571" y="108"/>
      <point x="610" y="117"/>
      <point x="647" y="135" type="curve" smooth="yes"/>
      <point x="684" y="153"/>
      <point x="702" y="171"/>
      <point x="702" y="188" type="curve" smooth="yes"/>
      <point x="702" y="694" type="line" smooth="yes"/>
      <point x="702" y="717"/>
      <point x="680" y="739"/>
      <point x="637" y="760" type="curve" smooth="yes"/>
      <point x="594" y="781"/>
      <point x="545" y="792"/>
    </contour>
    <contour>
      <point x="554" y="876" type="curve" smooth="yes"/>
      <point x="574" y="876"/>
      <point x="599" y="874"/>
      <point x="630" y="869" type="curve" smooth="yes"/>
      <point x="661" y="864"/>
      <point x="681" y="860"/>
      <point x="692" y="856" type="curve" smooth="yes"/>
      <point x="699" y="856"/>
      <point x="702" y="870"/>
      <point x="702" y="898" type="curve" smooth="yes"/>
      <point x="702" y="1116" type="line" smooth="yes"/>
      <point x="702" y="1169"/>
      <point x="699" y="1204"/>
      <point x="692" y="1220" type="curve" smooth="yes"/>
      <point x="682" y="1244"/>
      <point x="641" y="1256"/>
      <point x="570" y="1256" type="curve" smooth="yes"/>
      <point x="569" y="1256"/>
      <point x="569" y="1260"/>
      <point x="568" y="1268" type="curve" smooth="yes"/>
      <point x="567" y="1276"/>
      <point x="568" y="1285"/>
      <point x="568" y="1294" type="curve" smooth="yes"/>
      <point x="568" y="1303"/>
      <point x="569" y="1307"/>
      <point x="572" y="1308" type="curve" smooth="yes"/>
      <point x="664" y="1317"/>
      <point x="759" y="1344"/>
      <point x="856" y="1388" type="curve" smooth="yes"/>
      <point x="861" y="1388"/>
      <point x="865" y="1385"/>
      <point x="870" y="1378" type="curve" smooth="yes"/>
      <point x="875" y="1371"/>
      <point x="878" y="1363"/>
      <point x="878" y="1356" type="curve" smooth="yes"/>
      <point x="863" y="1313"/>
      <point x="856" y="1255"/>
      <point x="856" y="1182" type="curve" smooth="yes"/>
      <point x="856" y="326" type="line" smooth="yes"/>
      <point x="856" y="217"/>
      <point x="861" y="152"/>
      <point x="870" y="130" type="curve" smooth="yes"/>
      <point x="874" y="122"/>
      <point x="882" y="115"/>
      <point x="895" y="110" type="curve" smooth="yes"/>
      <point x="908" y="105"/>
      <point x="920" y="102"/>
      <point x="933" y="100" type="curve" smooth="yes"/>
      <point x="946" y="98"/>
      <point x="958" y="97"/>
      <point x="970" y="96" type="curve" smooth="yes"/>
      <point x="982" y="95"/>
      <point x="987" y="94"/>
      <point x="988" y="94" type="curve" smooth="yes"/>
      <point x="992" y="92"/>
      <point x="994" y="84"/>
      <point x="994" y="70" type="curve" smooth="yes"/>
      <point x="994" y="66"/>
      <point x="992" y="60"/>
      <point x="989" y="52" type="curve" smooth="yes"/>
      <point x="986" y="44"/>
      <point x="982" y="40"/>
      <point x="978" y="40" type="curve" smooth="yes"/>
      <point x="959" y="39"/>
      <point x="937" y="36"/>
      <point x="912" y="32" type="curve" smooth="yes"/>
      <point x="887" y="28"/>
      <point x="864" y="23"/>
      <point x="842" y="18" type="curve" smooth="yes"/>
      <point x="820" y="13"/>
      <point x="800" y="7"/>
      <point x="781" y="2" type="curve" smooth="yes"/>
      <point x="762" y="-3"/>
      <point x="747" y="-8"/>
      <point x="736" y="-11" type="curve" smooth="yes"/>
      <point x="718" y="-16" type="line" smooth="yes"/>
      <point x="707" y="-16"/>
      <point x="702" y="-3"/>
      <point x="702" y="22" type="curve" smooth="yes"/>
      <point x="702" y="92" type="line" smooth="yes"/>
      <point x="701" y="101"/>
      <point x="699" y="105"/>
      <point x="696" y="104" type="curve" smooth="yes"/>
      <point x="676" y="83"/>
      <point x="637" y="57"/>
      <point x="580" y="28" type="curve" smooth="yes"/>
      <point x="523" y="-1"/>
      <point x="473" y="-16"/>
      <point x="430" y="-16" type="curve" smooth="yes"/>
      <point x="337" y="-16"/>
      <point x="255" y="25"/>
      <point x="184" y="108" type="curve" smooth="yes"/>
      <point x="113" y="191"/>
      <point x="78" y="293"/>
      <point x="78" y="412" type="curve" smooth="yes"/>
      <point x="78" y="474"/>
      <point x="94" y="535"/>
      <point x="127" y="594" type="curve" smooth="yes"/>
      <point x="160" y="653"/>
      <point x="200" y="703"/>
      <point x="248" y="743" type="curve" smooth="yes"/>
      <point x="296" y="783"/>
      <point x="349" y="816"/>
      <point x="404" y="840" type="curve" smooth="yes"/>
      <point x="459" y="864"/>
      <point x="509" y="876"/>
    </contour>
  </outline>
</glyph>
<glyph name="e" format="2">
  <advance width="860"/>
  <unicode hex="0065"/>
  <outline>
    <contour>
      <point x="222" y="496" type="curve"/>
      <point x="222" y="489"/>
      <point x="222" y="489"/>
      <point x="222" y="481" type="curve" smooth="yes"/>
      <point x="222" y="366"/>
      <point x="252" y="277"/>
      <point x="312" y="212" type="curve" smooth="yes"/>
      <point x="375" y="145"/>
      <point x="454" y="112"/>
      <point x="548" y="112" type="curve" smooth="yes"/>
      <point x="596" y="112"/>
      <point x="639" y="124"/>
      <point x="678" y="147" type="curve" smooth="yes"/>
      <point x="717" y="170"/>
      <point x="747" y="194"/>
      <point x="768" y="218" type="curve" smooth="yes"/>
      <point x="769" y="218"/>
      <point x="770" y="216"/>
      <point x="773" y="214" type="curve" smooth="yes"/>
      <point x="776" y="212"/>
      <point x="778" y="209"/>
      <point x="780" y="204" type="curve" smooth="yes"/>
      <point x="782" y="199"/>
      <point x="784" y="195"/>
      <point x="784" y="190" type="curve" smooth="yes"/>
      <point x="784" y="179"/>
      <point x="780" y="167"/>
      <point x="772" y="154" type="curve" smooth="yes"/>
      <point x="761" y="137"/>
      <point x="748" y="119"/>
      <point x="732" y="102" type="curve" smooth="yes"/>
      <point x="716" y="85"/>
      <point x="696" y="67"/>
      <point x="672" y="48" type="curve" smooth="yes"/>
      <point x="648" y="29"/>
      <point x="620" y="14"/>
      <point x="586" y="2" type="curve" smooth="yes"/>
      <point x="552" y="-10"/>
      <point x="517" y="-16"/>
      <point x="480" y="-16" type="curve" smooth="yes"/>
      <point x="363" y="-16"/>
      <point x="267" y="23"/>
      <point x="192" y="102" type="curve" smooth="yes"/>
      <point x="117" y="181"/>
      <point x="80" y="281"/>
      <point x="80" y="400" type="curve" smooth="yes"/>
      <point x="80" y="465"/>
      <point x="92" y="527"/>
      <point x="117" y="587" type="curve" smooth="yes"/>
      <point x="142" y="647"/>
      <point x="173" y="698"/>
      <point x="211" y="739" type="curve" smooth="yes"/>
      <point x="249" y="780"/>
      <point x="291" y="813"/>
      <point x="338" y="838" type="curve" smooth="yes"/>
      <point x="385" y="863"/>
      <point x="430" y="876"/>
      <point x="474" y="876" type="curve" smooth="yes"/>
      <point x="519" y="876"/>
      <point x="560" y="869"/>
      <point x="597" y="855" type="curve" smooth="yes"/>
      <point x="634" y="841"/>
      <point x="663" y="824"/>
      <point x="684" y="804" type="curve" smooth="yes"/>
      <point x="705" y="784"/>
      <point x="723" y="760"/>
      <point x="737" y="734" type="curve" smooth="yes"/>
      <point x="751" y="708"/>
      <point x="761" y="684"/>
      <point x="766" y="663" type="curve" smooth="yes"/>
      <point x="771" y="642"/>
      <point x="774" y="622"/>
      <point x="774" y="604" type="curve" smooth="yes"/>
      <point x="774" y="573"/>
      <point x="771" y="550"/>
      <point x="764" y="534" type="curve" smooth="yes"/>
      <point x="757" y="518"/>
      <point x="744" y="511"/>
      <point x="726" y="510" type="curve" smooth="yes"/>
      <point x="699" y="508"/>
      <point x="612" y="506"/>
      <point x="466" y="502" type="curve" smooth="yes"/>
      <point x="320" y="498"/>
      <point x="239" y="496"/>
    </contour>
    <contour>
      <point x="232" y="570" type="curve" smooth="yes"/>
      <point x="232" y="570"/>
      <point x="232" y="570"/>
      <point x="558" y="570" type="curve" smooth="yes"/>
      <point x="587" y="570"/>
      <point x="602" y="585"/>
      <point x="604" y="616" type="curve" smooth="yes"/>
      <point x="605" y="629"/>
      <point x="602" y="646"/>
      <point x="596" y="666" type="curve" smooth="yes"/>
      <point x="590" y="686"/>
      <point x="581" y="707"/>
      <point x="569" y="728" type="curve" smooth="yes"/>
      <point x="557" y="749"/>
      <point x="540" y="767"/>
      <point x="517" y="782" type="curve" smooth="yes"/>
      <point x="494" y="797"/>
      <point x="469" y="804"/>
      <point x="440" y="804" type="curve" smooth="yes"/>
      <point x="409" y="804"/>
      <point x="380" y="796"/>
      <point x="354" y="780" type="curve" smooth="yes"/>
      <point x="328" y="764"/>
      <point x="307" y="745"/>
      <point x="292" y="722" type="curve" smooth="yes"/>
      <point x="277" y="699"/>
      <point x="266" y="675"/>
      <point x="256" y="652" type="curve" smooth="yes"/>
      <point x="246" y="629"/>
      <point x="240" y="610"/>
      <point x="236" y="594" type="curve" smooth="yes"/>
      <point x="232" y="578"/>
      <point x="231" y="570"/>
    </contour>
  </outline>
</glyph>
<glyph name="f" format="2">
  <advance width="616"/>
  <unicode hex="0066"/>
  <outline>
    <contour>
      <point x="539" y="1394" type="curve" smooth="yes"/>
      <point x="568" y="1394"/>
      <point x="587" y="1393"/>
      <point x="596" y="1390" type="curve" smooth="yes"/>
      <point x="605" y="1387"/>
      <point x="617" y="1381"/>
      <point x="633" y="1370" type="curve" smooth="yes"/>
      <point x="638" y="1365"/>
      <point x="642" y="1358"/>
      <point x="646" y="1346" type="curve" smooth="yes"/>
      <point x="650" y="1334"/>
      <point x="653" y="1323"/>
      <point x="653" y="1314" type="curve" smooth="yes"/>
      <point x="653" y="1297"/>
      <point x="650" y="1284"/>
      <point x="644" y="1272" type="curve" smooth="yes"/>
      <point x="638" y="1260"/>
      <point x="631" y="1251"/>
      <point x="622" y="1246" type="curve" smooth="yes"/>
      <point x="613" y="1241"/>
      <point x="604" y="1238"/>
      <point x="596" y="1236" type="curve" smooth="yes"/>
      <point x="588" y="1234"/>
      <point x="581" y="1234"/>
      <point x="573" y="1234" type="curve" smooth="yes"/>
      <point x="561" y="1234"/>
      <point x="542" y="1241"/>
      <point x="515" y="1256" type="curve" smooth="yes"/>
      <point x="493" y="1268"/>
      <point x="474" y="1274"/>
      <point x="457" y="1274" type="curve" smooth="yes"/>
      <point x="424" y="1274"/>
      <point x="398" y="1257"/>
      <point x="377" y="1224" type="curve" smooth="yes"/>
      <point x="357" y="1193"/>
      <point x="347" y="1149"/>
      <point x="347" y="1092" type="curve" smooth="yes"/>
      <point x="347" y="1089"/>
      <point x="347" y="1089"/>
      <point x="347" y="1086" type="curve" smooth="yes"/>
      <point x="347" y="838" type="line"/>
      <point x="583" y="838" type="line" smooth="yes"/>
      <point x="590" y="838"/>
      <point x="593" y="831"/>
      <point x="593" y="816" type="curve" smooth="yes"/>
      <point x="593" y="795"/>
      <point x="584" y="775"/>
      <point x="565" y="756" type="curve"/>
      <point x="347" y="756" type="line"/>
      <point x="347" y="232" type="line" smooth="yes"/>
      <point x="347" y="155"/>
      <point x="350" y="105"/>
      <point x="357" y="84" type="curve" smooth="yes"/>
      <point x="360" y="75"/>
      <point x="378" y="67"/>
      <point x="411" y="61" type="curve" smooth="yes"/>
      <point x="444" y="55"/>
      <point x="471" y="52"/>
      <point x="491" y="52" type="curve"/>
      <point x="495" y="47"/>
      <point x="498" y="37"/>
      <point x="498" y="23" type="curve" smooth="yes"/>
      <point x="498" y="9"/>
      <point x="496" y="-1"/>
      <point x="491" y="-6" type="curve"/>
      <point x="354" y="1"/>
      <point x="280" y="4"/>
      <point x="269" y="4" type="curve" smooth="yes"/>
      <point x="246" y="4"/>
      <point x="224" y="3"/>
      <point x="202" y="2" type="curve" smooth="yes"/>
      <point x="180" y="1"/>
      <point x="155" y="0"/>
      <point x="127" y="-2" type="curve" smooth="yes"/>
      <point x="99" y="-4"/>
      <point x="76" y="-5"/>
      <point x="57" y="-6" type="curve"/>
      <point x="52" y="-1"/>
      <point x="50" y="9"/>
      <point x="50" y="23" type="curve" smooth="yes"/>
      <point x="50" y="37"/>
      <point x="53" y="47"/>
      <point x="57" y="52" type="curve"/>
      <point x="76" y="52"/>
      <point x="101" y="55"/>
      <point x="132" y="61" type="curve" smooth="yes"/>
      <point x="163" y="67"/>
      <point x="180" y="75"/>
      <point x="183" y="84" type="curve" smooth="yes"/>
      <point x="190" y="105"/>
      <point x="193" y="155"/>
      <point x="193" y="232" type="curve" smooth="yes"/>
      <point x="193" y="756" type="line"/>
      <point x="77" y="756" type="line" smooth="yes"/>
      <point x="70" y="756"/>
      <point x="67" y="762"/>
      <point x="67" y="774" type="curve" smooth="yes"/>
      <point x="67" y="777"/>
      <point x="74" y="787"/>
      <point x="89" y="804" type="curve" smooth="yes"/>
      <point x="104" y="821"/>
      <point x="114" y="833"/>
      <point x="119" y="838" type="curve"/>
      <point x="193" y="838" type="line"/>
      <point x="193" y="876" type="line" smooth="yes"/>
      <point x="193" y="945"/>
      <point x="205" y="1012"/>
      <point x="230" y="1078" type="curve" smooth="yes"/>
      <point x="255" y="1144"/>
      <point x="284" y="1200"/>
      <point x="320" y="1245" type="curve" smooth="yes"/>
      <point x="356" y="1290"/>
      <point x="394" y="1326"/>
      <point x="434" y="1353" type="curve" smooth="yes"/>
      <point x="474" y="1380"/>
      <point x="508" y="1394"/>
    </contour>
  </outline>
</glyph>
<glyph name="k" format="2">
  <advance width="1036"/>
  <unicode hex="006B"/>
  <outline>
    <contour>
      <point x="333" y="232" type="line" smooth="yes"/>
      <point x="333" y="155"/>
      <point x="336" y="105"/>
      <point x="343" y="84" type="curve" smooth="yes"/>
      <point x="346" y="75"/>
      <point x="363" y="67"/>
      <point x="394" y="61" type="curve" smooth="yes"/>
      <point x="425" y="55"/>
      <point x="450" y="52"/>
      <point x="469" y="52" type="curve"/>
      <point x="473" y="47"/>
      <point x="476" y="37"/>
      <point x="476" y="23" type="curve" smooth="yes"/>
      <point x="476" y="9"/>
      <point x="474" y="-1"/>
      <point x="469" y="-6" type="curve"/>
      <point x="332" y="1"/>
      <point x="261" y="4"/>
      <point x="255" y="4" type="curve" smooth="yes"/>
      <point x="232" y="4"/>
      <point x="210" y="3"/>
      <point x="188" y="2" type="curve" smooth="yes"/>
      <point x="166" y="1"/>
      <point x="141" y="0"/>
      <point x="113" y="-2" type="curve" smooth="yes"/>
      <point x="85" y="-4"/>
      <point x="62" y="-5"/>
      <point x="43" y="-6" type="curve"/>
      <point x="38" y="-1"/>
      <point x="36" y="9"/>
      <point x="36" y="23" type="curve" smooth="yes"/>
      <point x="36" y="37"/>
      <point x="39" y="47"/>
      <point x="43" y="52" type="curve"/>
      <point x="62" y="52"/>
      <point x="87" y="55"/>
      <point x="118" y="61" type="curve" smooth="yes"/>
      <point x="149" y="67"/>
      <point x="166" y="75"/>
      <point x="169" y="84" type="curve" smooth="yes"/>
      <point x="176" y="105"/>
      <point x="179" y="155"/>
      <point x="179" y="232" type="curve" smooth="yes"/>
      <point x="179" y="1116" type="line" smooth="yes"/>
      <point x="179" y="1169"/>
      <point x="176" y="1204"/>
      <point x="169" y="1220" type="curve" smooth="yes"/>
      <point x="159" y="1244"/>
      <point x="118" y="1256"/>
      <point x="47" y="1256" type="curve" smooth="yes"/>
      <point x="46" y="1256"/>
      <point x="46" y="1260"/>
      <point x="45" y="1268" type="curve" smooth="yes"/>
      <point x="44" y="1276"/>
      <point x="44" y="1285"/>
      <point x="44" y="1294" type="curve" smooth="yes"/>
      <point x="44" y="1303"/>
      <point x="46" y="1307"/>
      <point x="49" y="1308" type="curve" smooth="yes"/>
      <point x="141" y="1317"/>
      <point x="236" y="1344"/>
      <point x="333" y="1388" type="curve" smooth="yes"/>
      <point x="338" y="1388"/>
      <point x="343" y="1385"/>
      <point x="348" y="1378" type="curve" smooth="yes"/>
      <point x="353" y="1371"/>
      <point x="355" y="1363"/>
      <point x="355" y="1356" type="curve" smooth="yes"/>
      <point x="340" y="1313"/>
      <point x="333" y="1255"/>
      <point x="333" y="1182" type="curve" smooth="yes"/>
      <point x="333" y="470" type="line"/>
      <point x="357" y="479"/>
      <point x="412" y="519"/>
      <point x="497" y="592" type="curve" smooth="yes"/>
      <point x="514" y="606"/>
      <point x="533" y="622"/>
      <point x="555" y="640" type="curve" smooth="yes"/>
      <point x="577" y="658"/>
      <point x="595" y="674"/>
      <point x="608" y="684" type="curve" smooth="yes"/>
      <point x="621" y="694"/>
      <point x="634" y="705"/>
      <point x="646" y="716" type="curve" smooth="yes"/>
      <point x="658" y="727"/>
      <point x="666" y="735"/>
      <point x="672" y="742" type="curve" smooth="yes"/>
      <point x="678" y="749"/>
      <point x="681" y="754"/>
      <point x="681" y="758" type="curve" smooth="yes"/>
      <point x="681" y="762"/>
      <point x="680" y="766"/>
      <point x="677" y="769" type="curve" smooth="yes"/>
      <point x="674" y="772"/>
      <point x="670" y="776"/>
      <point x="665" y="778" type="curve" smooth="yes"/>
      <point x="660" y="780"/>
      <point x="654" y="782"/>
      <point x="649" y="784" type="curve" smooth="yes"/>
      <point x="644" y="786"/>
      <point x="637" y="787"/>
      <point x="630" y="788" type="curve" smooth="yes"/>
      <point x="623" y="789"/>
      <point x="617" y="790"/>
      <point x="612" y="790" type="curve" smooth="yes"/>
      <point x="607" y="790"/>
      <point x="602" y="790"/>
      <point x="596" y="791" type="curve" smooth="yes"/>
      <point x="590" y="792"/>
      <point x="586" y="792"/>
      <point x="585" y="792" type="curve" smooth="yes"/>
      <point x="580" y="799"/>
      <point x="579" y="810"/>
      <point x="580" y="825" type="curve" smooth="yes"/>
      <point x="581" y="840"/>
      <point x="584" y="848"/>
      <point x="589" y="850" type="curve" smooth="yes"/>
      <point x="654" y="843"/>
      <point x="718" y="840"/>
      <point x="781" y="840" type="curve" smooth="yes"/>
      <point x="850" y="840"/>
      <point x="908" y="843"/>
      <point x="957" y="850" type="curve"/>
      <point x="961" y="844"/>
      <point x="962" y="834"/>
      <point x="962" y="820" type="curve" smooth="yes"/>
      <point x="962" y="806"/>
      <point x="960" y="796"/>
      <point x="957" y="792" type="curve"/>
      <point x="939" y="792"/>
      <point x="913" y="788"/>
      <point x="880" y="779" type="curve" smooth="yes"/>
      <point x="847" y="770"/>
      <point x="822" y="759"/>
      <point x="803" y="746" type="curve" smooth="yes"/>
      <point x="656" y="639"/>
      <point x="548" y="556"/>
      <point x="479" y="498" type="curve"/>
      <point x="517" y="457"/>
      <point x="564" y="405"/>
      <point x="622" y="340" type="curve" smooth="yes"/>
      <point x="680" y="275"/>
      <point x="728" y="222"/>
      <point x="764" y="183" type="curve" smooth="yes"/>
      <point x="800" y="144"/>
      <point x="825" y="118"/>
      <point x="839" y="106" type="curve" smooth="yes"/>
      <point x="863" y="87"/>
      <point x="892" y="73"/>
      <point x="926" y="64" type="curve" smooth="yes"/>
      <point x="956" y="56"/>
      <point x="984" y="52"/>
      <point x="1011" y="52" type="curve" smooth="yes"/>
      <point x="1017" y="52"/>
      <point x="1017" y="52"/>
      <point x="1023" y="52" type="curve" smooth="yes"/>
      <point x="1025" y="49"/>
      <point x="1027" y="42"/>
      <point x="1028" y="30" type="curve" smooth="yes"/>
      <point x="1029" y="18"/>
      <point x="1028" y="9"/>
      <point x="1025" y="4" type="curve" smooth="yes"/>
      <point x="1006" y="-4"/>
      <point x="963" y="-8"/>
      <point x="895" y="-8" type="curve" smooth="yes"/>
      <point x="842" y="-8"/>
      <point x="792" y="2"/>
      <point x="746" y="21" type="curve" smooth="yes"/>
      <point x="700" y="40"/>
      <point x="668" y="60"/>
      <point x="649" y="80" type="curve" smooth="yes"/>
      <point x="534" y="204"/>
      <point x="439" y="307"/>
      <point x="363" y="390" type="curve" smooth="yes"/>
      <point x="360" y="393"/>
      <point x="357" y="395"/>
      <point x="352" y="398" type="curve" smooth="yes"/>
      <point x="347" y="401"/>
      <point x="342" y="404"/>
      <point x="338" y="406" type="curve" smooth="yes"/>
      <point x="333" y="408" type="line"/>
    </contour>
  </outline>
</glyph>
<glyph name="m" format="2">
  <advance width="1580"/>
  <unicode hex="006D"/>
  <outline>
    <contour>
      <point x="639" y="876" type="curve" smooth="yes"/>
      <point x="700" y="876"/>
      <point x="749" y="863"/>
      <point x="787" y="837" type="curve" smooth="yes"/>
      <point x="825" y="811"/>
      <point x="852" y="769"/>
      <point x="867" y="710" type="curve"/>
      <point x="989" y="821"/>
      <point x="1087" y="876"/>
      <point x="1161" y="876" type="curve" smooth="yes"/>
      <point x="1204" y="876"/>
      <point x="1241" y="870"/>
      <point x="1271" y="859" type="curve" smooth="yes"/>
      <point x="1301" y="848"/>
      <point x="1326" y="832"/>
      <point x="1345" y="811" type="curve" smooth="yes"/>
      <point x="1364" y="790"/>
      <point x="1379" y="762"/>
      <point x="1390" y="726" type="curve" smooth="yes"/>
      <point x="1401" y="690"/>
      <point x="1409" y="651"/>
      <point x="1413" y="608" type="curve" smooth="yes"/>
      <point x="1417" y="565"/>
      <point x="1419" y="513"/>
      <point x="1419" y="452" type="curve" smooth="yes"/>
      <point x="1419" y="232" type="line" smooth="yes"/>
      <point x="1419" y="155"/>
      <point x="1422" y="105"/>
      <point x="1429" y="84" type="curve" smooth="yes"/>
      <point x="1432" y="75"/>
      <point x="1449" y="67"/>
      <point x="1480" y="61" type="curve" smooth="yes"/>
      <point x="1511" y="55"/>
      <point x="1536" y="52"/>
      <point x="1555" y="52" type="curve"/>
      <point x="1559" y="47"/>
      <point x="1562" y="37"/>
      <point x="1562" y="23" type="curve" smooth="yes"/>
      <point x="1562" y="9"/>
      <point x="1560" y="-1"/>
      <point x="1555" y="-6" type="curve"/>
      <point x="1418" y="1"/>
      <point x="1347" y="4"/>
      <point x="1341" y="4" type="curve" smooth="yes"/>
      <point x="1318" y="4"/>
      <point x="1296" y="3"/>
      <point x="1274" y="2" type="curve" smooth="yes"/>
      <point x="1252" y="1"/>
      <point x="1227" y="0"/>
      <point x="1199" y="-2" type="curve" smooth="yes"/>
      <point x="1171" y="-4"/>
      <point x="1148" y="-5"/>
      <point x="1129" y="-6" type="curve"/>
      <point x="1124" y="-1"/>
      <point x="1122" y="9"/>
      <point x="1122" y="23" type="curve" smooth="yes"/>
      <point x="1122" y="37"/>
      <point x="1125" y="47"/>
      <point x="1129" y="52" type="curve"/>
      <point x="1148" y="52"/>
      <point x="1173" y="55"/>
      <point x="1204" y="61" type="curve" smooth="yes"/>
      <point x="1235" y="67"/>
      <point x="1252" y="75"/>
      <point x="1255" y="84" type="curve" smooth="yes"/>
      <point x="1262" y="105"/>
      <point x="1265" y="155"/>
      <point x="1265" y="232" type="curve" smooth="yes"/>
      <point x="1265" y="446" type="line" smooth="yes"/>
      <point x="1265" y="489"/>
      <point x="1264" y="525"/>
      <point x="1261" y="555" type="curve" smooth="yes"/>
      <point x="1258" y="585"/>
      <point x="1254" y="614"/>
      <point x="1246" y="642" type="curve" smooth="yes"/>
      <point x="1238" y="670"/>
      <point x="1228" y="691"/>
      <point x="1214" y="707" type="curve" smooth="yes"/>
      <point x="1200" y="723"/>
      <point x="1182" y="736"/>
      <point x="1159" y="746" type="curve" smooth="yes"/>
      <point x="1136" y="756"/>
      <point x="1109" y="760"/>
      <point x="1077" y="760" type="curve" smooth="yes"/>
      <point x="1048" y="760"/>
      <point x="1016" y="751"/>
      <point x="984" y="734" type="curve" smooth="yes"/>
      <point x="952" y="717"/>
      <point x="926" y="700"/>
      <point x="908" y="682" type="curve" smooth="yes"/>
      <point x="890" y="664"/>
      <point x="881" y="652"/>
      <point x="881" y="646" type="curve" smooth="yes"/>
      <point x="881" y="645"/>
      <point x="881" y="642"/>
      <point x="882" y="634" type="curve" smooth="yes"/>
      <point x="883" y="626"/>
      <point x="883" y="621"/>
      <point x="883" y="620" type="curve" smooth="yes"/>
      <point x="888" y="586"/>
      <point x="891" y="539"/>
      <point x="891" y="478" type="curve" smooth="yes"/>
      <point x="891" y="232" type="line" smooth="yes"/>
      <point x="891" y="155"/>
      <point x="894" y="105"/>
      <point x="901" y="84" type="curve" smooth="yes"/>
      <point x="904" y="75"/>
      <point x="921" y="67"/>
      <point x="952" y="61" type="curve" smooth="yes"/>
      <point x="983" y="55"/>
      <point x="1008" y="52"/>
      <point x="1027" y="52" type="curve"/>
      <point x="1031" y="47"/>
      <point x="1034" y="37"/>
      <point x="1034" y="23" type="curve" smooth="yes"/>
      <point x="1034" y="9"/>
      <point x="1032" y="-1"/>
      <point x="1027" y="-6" type="curve"/>
      <point x="890" y="1"/>
      <point x="819" y="4"/>
      <point x="813" y="4" type="curve" smooth="yes"/>
      <point x="790" y="4"/>
      <point x="768" y="3"/>
      <point x="746" y="2" type="curve" smooth="yes"/>
      <point x="724" y="1"/>
      <point x="699" y="0"/>
      <point x="671" y="-2" type="curve" smooth="yes"/>
      <point x="643" y="-4"/>
      <point x="620" y="-5"/>
      <point x="601" y="-6" type="curve"/>
      <point x="596" y="-1"/>
      <point x="594" y="9"/>
      <point x="594" y="23" type="curve" smooth="yes"/>
      <point x="594" y="37"/>
      <point x="597" y="47"/>
      <point x="601" y="52" type="curve"/>
      <point x="620" y="52"/>
      <point x="645" y="55"/>
      <point x="676" y="61" type="curve" smooth="yes"/>
      <point x="707" y="67"/>
      <point x="724" y="75"/>
      <point x="727" y="84" type="curve" smooth="yes"/>
      <point x="734" y="105"/>
      <point x="737" y="155"/>
      <point x="737" y="232" type="curve" smooth="yes"/>
      <point x="737" y="436" type="line" smooth="yes"/>
      <point x="737" y="559"/>
      <point x="724" y="643"/>
      <point x="697" y="690" type="curve" smooth="yes"/>
      <point x="670" y="737"/>
      <point x="621" y="760"/>
      <point x="549" y="760" type="curve" smooth="yes"/>
      <point x="508" y="760"/>
      <point x="468" y="746"/>
      <point x="426" y="717" type="curve" smooth="yes"/>
      <point x="384" y="688"/>
      <point x="363" y="666"/>
      <point x="363" y="650" type="curve" smooth="yes"/>
      <point x="363" y="232" type="line" smooth="yes"/>
      <point x="363" y="155"/>
      <point x="366" y="105"/>
      <point x="373" y="84" type="curve" smooth="yes"/>
      <point x="376" y="75"/>
      <point x="393" y="67"/>
      <point x="424" y="61" type="curve" smooth="yes"/>
      <point x="455" y="55"/>
      <point x="480" y="52"/>
      <point x="499" y="52" type="curve"/>
      <point x="503" y="47"/>
      <point x="506" y="37"/>
      <point x="506" y="23" type="curve" smooth="yes"/>
      <point x="506" y="9"/>
      <point x="504" y="-1"/>
      <point x="499" y="-6" type="curve"/>
      <point x="362" y="1"/>
      <point x="291" y="4"/>
      <point x="285" y="4" type="curve" smooth="yes"/>
      <point x="262" y="4"/>
      <point x="240" y="3"/>
      <point x="218" y="2" type="curve" smooth="yes"/>
      <point x="196" y="1"/>
      <point x="171" y="0"/>
      <point x="143" y="-2" type="curve" smooth="yes"/>
      <point x="115" y="-4"/>
      <point x="92" y="-5"/>
      <point x="73" y="-6" type="curve"/>
      <point x="68" y="-1"/>
      <point x="66" y="9"/>
      <point x="66" y="23" type="curve" smooth="yes"/>
      <point x="66" y="37"/>
      <point x="69" y="47"/>
      <point x="73" y="52" type="curve"/>
      <point x="92" y="52"/>
      <point x="117" y="55"/>
      <point x="148" y="61" type="curve" smooth="yes"/>
      <point x="179" y="67"/>
      <point x="196" y="75"/>
      <point x="199" y="84" type="curve" smooth="yes"/>
      <point x="206" y="105"/>
      <point x="209" y="155"/>
      <point x="209" y="232" type="curve" smooth="yes"/>
      <point x="209" y="596" type="line" smooth="yes"/>
      <point x="209" y="655"/>
      <point x="206" y="692"/>
      <point x="199" y="708" type="curve" smooth="yes"/>
      <point x="195" y="718"/>
      <point x="182" y="726"/>
      <point x="161" y="732" type="curve" smooth="yes"/>
      <point x="140" y="738"/>
      <point x="122" y="741"/>
      <point x="108" y="742" type="curve" smooth="yes"/>
      <point x="94" y="743"/>
      <point x="80" y="744"/>
      <point x="69" y="744" type="curve" smooth="yes"/>
      <point x="66" y="747"/>
      <point x="64" y="755"/>
      <point x="64" y="768" type="curve" smooth="yes"/>
      <point x="64" y="781"/>
      <point x="66" y="791"/>
      <point x="69" y="796" type="curve"/>
      <point x="183" y="811"/>
      <point x="278" y="839"/>
      <point x="355" y="880" type="curve" smooth="yes"/>
      <point x="360" y="880"/>
      <point x="365" y="876"/>
      <point x="370" y="868" type="curve" smooth="yes"/>
      <point x="375" y="860"/>
      <point x="377" y="853"/>
      <point x="377" y="848" type="curve" smooth="yes"/>
      <point x="369" y="792"/>
      <point x="365" y="757"/>
      <point x="365" y="744" type="curve" smooth="yes"/>
      <point x="365" y="739"/>
      <point x="366" y="736"/>
      <point x="369" y="736" type="curve" smooth="yes"/>
      <point x="370" y="736"/>
      <point x="372" y="737"/>
      <point x="375" y="740" type="curve" smooth="yes"/>
      <point x="437" y="792"/>
      <point x="488" y="828"/>
      <point x="527" y="847" type="curve" smooth="yes"/>
      <point x="567" y="866"/>
      <point x="604" y="876"/>
    </contour>
  </outline>
</glyph>
<glyph name="o" format="2">
  <advance width="1018"/>
  <unicode hex="006F"/>
  <outline>
    <contour>
      <point x="508" y="878" type="curve" smooth="yes"/>
      <point x="638" y="878"/>
      <point x="742" y="838"/>
      <point x="820" y="756" type="curve" smooth="yes"/>
      <point x="898" y="674"/>
      <point x="936" y="569"/>
      <point x="936" y="442" type="curve" smooth="yes"/>
      <point x="936" y="313"/>
      <point x="895" y="204"/>
      <point x="814" y="117" type="curve" smooth="yes"/>
      <point x="733" y="30"/>
      <point x="633" y="-14"/>
      <point x="512" y="-14" type="curve" smooth="yes"/>
      <point x="382" y="-14"/>
      <point x="278" y="27"/>
      <point x="200" y="110" type="curve" smooth="yes"/>
      <point x="122" y="193"/>
      <point x="82" y="299"/>
      <point x="82" y="426" type="curve" smooth="yes"/>
      <point x="82" y="555"/>
      <point x="123" y="662"/>
      <point x="204" y="748" type="curve" smooth="yes"/>
      <point x="285" y="834"/>
      <point x="387" y="878"/>
    </contour>
    <contour>
      <point x="486" y="812" type="curve" smooth="yes"/>
      <point x="432" y="812"/>
      <point x="387" y="795"/>
      <point x="351" y="760" type="curve" smooth="yes"/>
      <point x="315" y="725"/>
      <point x="290" y="683"/>
      <point x="276" y="633" type="curve" smooth="yes"/>
      <point x="262" y="583"/>
      <point x="254" y="527"/>
      <point x="254" y="466" type="curve" smooth="yes"/>
      <point x="254" y="399"/>
      <point x="264" y="334"/>
      <point x="285" y="272" type="curve" smooth="yes"/>
      <point x="306" y="210"/>
      <point x="338" y="159"/>
      <point x="381" y="116" type="curve" smooth="yes"/>
      <point x="424" y="73"/>
      <point x="475" y="52"/>
      <point x="532" y="52" type="curve" smooth="yes"/>
      <point x="586" y="52"/>
      <point x="631" y="69"/>
      <point x="667" y="104" type="curve" smooth="yes"/>
      <point x="703" y="139"/>
      <point x="728" y="180"/>
      <point x="742" y="230" type="curve" smooth="yes"/>
      <point x="756" y="280"/>
      <point x="764" y="335"/>
      <point x="764" y="396" type="curve" smooth="yes"/>
      <point x="764" y="463"/>
      <point x="753" y="528"/>
      <point x="732" y="590" type="curve" smooth="yes"/>
      <point x="711" y="652"/>
      <point x="679" y="705"/>
      <point x="636" y="748" type="curve" smooth="yes"/>
      <point x="593" y="791"/>
      <point x="543" y="812"/>
    </contour>
  </outline>
</glyph>
<glyph name="p" format="2">
  <advance width="1020"/>
  <unicode hex="0070"/>
  <outline>
    <contour>
      <point x="495" y="758" type="curve" smooth="yes"/>
      <point x="456" y="758"/>
      <point x="419" y="748"/>
      <point x="382" y="730" type="curve" smooth="yes"/>
      <point x="345" y="712"/>
      <point x="327" y="695"/>
      <point x="327" y="680" type="curve" smooth="yes"/>
      <point x="327" y="200" type="line" smooth="yes"/>
      <point x="327" y="153"/>
      <point x="348" y="117"/>
      <point x="388" y="92" type="curve" smooth="yes"/>
      <point x="428" y="67"/>
      <point x="470" y="54"/>
      <point x="513" y="54" type="curve" smooth="yes"/>
      <point x="566" y="54"/>
      <point x="613" y="71"/>
      <point x="654" y="105" type="curve" smooth="yes"/>
      <point x="695" y="139"/>
      <point x="725" y="182"/>
      <point x="745" y="232" type="curve" smooth="yes"/>
      <point x="765" y="282"/>
      <point x="775" y="335"/>
      <point x="775" y="390" type="curve" smooth="yes"/>
      <point x="775" y="505"/>
      <point x="748" y="595"/>
      <point x="694" y="660" type="curve" smooth="yes"/>
      <point x="640" y="725"/>
      <point x="574" y="758"/>
    </contour>
    <contour>
      <point x="581" y="876" type="curve" smooth="yes"/>
      <point x="640" y="876"/>
      <point x="693" y="862"/>
      <point x="741" y="836" type="curve" smooth="yes"/>
      <point x="789" y="810"/>
      <point x="828" y="776"/>
      <point x="856" y="734" type="curve" smooth="yes"/>
      <point x="884" y="692"/>
      <point x="905" y="648"/>
      <point x="920" y="601" type="curve" smooth="yes"/>
      <point x="935" y="554"/>
      <point x="943" y="509"/>
      <point x="943" y="464" type="curve" smooth="yes"/>
      <point x="943" y="401"/>
      <point x="930" y="340"/>
      <point x="902" y="280" type="curve" smooth="yes"/>
      <point x="874" y="220"/>
      <point x="838" y="169"/>
      <point x="794" y="126" type="curve" smooth="yes"/>
      <point x="750" y="83"/>
      <point x="700" y="49"/>
      <point x="644" y="23" type="curve" smooth="yes"/>
      <point x="588" y="-3"/>
      <point x="531" y="-16"/>
      <point x="475" y="-16" type="curve" smooth="yes"/>
      <point x="428" y="-16"/>
      <point x="382" y="-9"/>
      <point x="335" y="6" type="curve"/>
      <point x="330" y="-1"/>
      <point x="327" y="-9"/>
      <point x="327" y="-20" type="curve" smooth="yes"/>
      <point x="327" y="-214" type="line" smooth="yes"/>
      <point x="327" y="-291"/>
      <point x="330" y="-341"/>
      <point x="337" y="-362" type="curve" smooth="yes"/>
      <point x="340" y="-371"/>
      <point x="357" y="-379"/>
      <point x="388" y="-385" type="curve" smooth="yes"/>
      <point x="419" y="-391"/>
      <point x="444" y="-394"/>
      <point x="463" y="-394" type="curve"/>
      <point x="467" y="-399"/>
      <point x="470" y="-409"/>
      <point x="470" y="-423" type="curve" smooth="yes"/>
      <point x="470" y="-437"/>
      <point x="468" y="-447"/>
      <point x="463" y="-452" type="curve"/>
      <point x="326" y="-445"/>
      <point x="255" y="-442"/>
      <point x="249" y="-442" type="curve" smooth="yes"/>
      <point x="226" y="-442"/>
      <point x="204" y="-443"/>
      <point x="182" y="-444" type="curve" smooth="yes"/>
      <point x="160" y="-445"/>
      <point x="135" y="-446"/>
      <point x="107" y="-448" type="curve" smooth="yes"/>
      <point x="79" y="-450"/>
      <point x="56" y="-451"/>
      <point x="37" y="-452" type="curve"/>
      <point x="32" y="-447"/>
      <point x="30" y="-437"/>
      <point x="30" y="-423" type="curve" smooth="yes"/>
      <point x="30" y="-409"/>
      <point x="33" y="-399"/>
      <point x="37" y="-394" type="curve"/>
      <point x="56" y="-394"/>
      <point x="81" y="-391"/>
      <point x="112" y="-385" type="curve" smooth="yes"/>
      <point x="143" y="-379"/>
      <point x="160" y="-371"/>
      <point x="163" y="-362" type="curve" smooth="yes"/>
      <point x="168" y="-345"/>
      <point x="172" y="-296"/>
      <point x="173" y="-214" type="curve" smooth="yes"/>
      <point x="173" y="604" type="line" smooth="yes"/>
      <point x="173" y="657"/>
      <point x="170" y="692"/>
      <point x="163" y="708" type="curve" smooth="yes"/>
      <point x="159" y="718"/>
      <point x="146" y="726"/>
      <point x="125" y="732" type="curve" smooth="yes"/>
      <point x="104" y="738"/>
      <point x="86" y="741"/>
      <point x="72" y="742" type="curve" smooth="yes"/>
      <point x="58" y="743"/>
      <point x="44" y="744"/>
      <point x="33" y="744" type="curve" smooth="yes"/>
      <point x="30" y="747"/>
      <point x="28" y="755"/>
      <point x="28" y="768" type="curve" smooth="yes"/>
      <point x="28" y="781"/>
      <point x="30" y="791"/>
      <point x="33" y="796" type="curve"/>
      <point x="147" y="811"/>
      <point x="242" y="839"/>
      <point x="319" y="880" type="curve" smooth="yes"/>
      <point x="324" y="880"/>
      <point x="329" y="876"/>
      <point x="334" y="868" type="curve" smooth="yes"/>
      <point x="339" y="860"/>
      <point x="341" y="853"/>
      <point x="341" y="848" type="curve" smooth="yes"/>
      <point x="341" y="847"/>
      <point x="339" y="836"/>
      <point x="334" y="812" type="curve" smooth="yes"/>
      <point x="329" y="788"/>
      <point x="327" y="773"/>
      <point x="327" y="766" type="curve" smooth="yes"/>
      <point x="327" y="761"/>
      <point x="328" y="758"/>
      <point x="331" y="758" type="curve" smooth="yes"/>
      <point x="332" y="758"/>
      <point x="334" y="759"/>
      <point x="337" y="762" type="curve" smooth="yes"/>
      <point x="368" y="789"/>
      <point x="408" y="814"/>
      <point x="456" y="839" type="curve" smooth="yes"/>
      <point x="504" y="864"/>
      <point x="545" y="876"/>
    </contour>
  </outline>
</glyph>
<glyph name="q" format="2">
  <advance width="994"/>
  <unicode hex="0071"/>
  <outline>
    <contour>
      <point x="572" y="876" type="curve" smooth="yes"/>
      <point x="591" y="876"/>
      <point x="630" y="868"/>
      <point x="688" y="851" type="curve" smooth="yes"/>
      <point x="746" y="834"/>
      <point x="787" y="826"/>
      <point x="810" y="826" type="curve" smooth="yes"/>
      <point x="825" y="826"/>
      <point x="838" y="828"/>
      <point x="850" y="832" type="curve" smooth="yes"/>
      <point x="855" y="832"/>
      <point x="861" y="826"/>
      <point x="867" y="814" type="curve" smooth="yes"/>
      <point x="873" y="802"/>
      <point x="876" y="794"/>
      <point x="876" y="788" type="curve" smooth="yes"/>
      <point x="860" y="753"/>
      <point x="852" y="703"/>
      <point x="852" y="640" type="curve" smooth="yes"/>
      <point x="852" y="-216" type="line" smooth="yes"/>
      <point x="852" y="-293"/>
      <point x="855" y="-343"/>
      <point x="862" y="-364" type="curve" smooth="yes"/>
      <point x="865" y="-373"/>
      <point x="881" y="-381"/>
      <point x="912" y="-387" type="curve" smooth="yes"/>
      <point x="943" y="-393"/>
      <point x="969" y="-396"/>
      <point x="988" y="-396" type="curve"/>
      <point x="992" y="-401"/>
      <point x="994" y="-411"/>
      <point x="994" y="-425" type="curve" smooth="yes"/>
      <point x="994" y="-439"/>
      <point x="993" y="-449"/>
      <point x="988" y="-454" type="curve"/>
      <point x="851" y="-447"/>
      <point x="780" y="-444"/>
      <point x="774" y="-444" type="curve" smooth="yes"/>
      <point x="751" y="-444"/>
      <point x="728" y="-445"/>
      <point x="706" y="-446" type="curve" smooth="yes"/>
      <point x="684" y="-447"/>
      <point x="660" y="-448"/>
      <point x="632" y="-450" type="curve" smooth="yes"/>
      <point x="604" y="-452"/>
      <point x="581" y="-453"/>
      <point x="562" y="-454" type="curve"/>
      <point x="557" y="-449"/>
      <point x="556" y="-439"/>
      <point x="556" y="-425" type="curve" smooth="yes"/>
      <point x="556" y="-411"/>
      <point x="558" y="-401"/>
      <point x="562" y="-396" type="curve"/>
      <point x="581" y="-396"/>
      <point x="607" y="-393"/>
      <point x="638" y="-387" type="curve" smooth="yes"/>
      <point x="669" y="-381"/>
      <point x="685" y="-373"/>
      <point x="688" y="-364" type="curve" smooth="yes"/>
      <point x="695" y="-343"/>
      <point x="698" y="-293"/>
      <point x="698" y="-216" type="curve" smooth="yes"/>
      <point x="698" y="80" type="line" smooth="yes"/>
      <point x="698" y="87"/>
      <point x="696" y="93"/>
      <point x="694" y="98" type="curve" smooth="yes"/>
      <point x="692" y="103"/>
      <point x="689" y="103"/>
      <point x="684" y="100" type="curve" smooth="yes"/>
      <point x="661" y="79"/>
      <point x="623" y="56"/>
      <point x="570" y="28" type="curve" smooth="yes"/>
      <point x="517" y="0"/>
      <point x="471" y="-14"/>
      <point x="434" y="-14" type="curve" smooth="yes"/>
      <point x="390" y="-14"/>
      <point x="348" y="-5"/>
      <point x="309" y="12" type="curve" smooth="yes"/>
      <point x="270" y="29"/>
      <point x="236" y="52"/>
      <point x="209" y="80" type="curve" smooth="yes"/>
      <point x="182" y="108"/>
      <point x="158" y="140"/>
      <point x="138" y="176" type="curve" smooth="yes"/>
      <point x="118" y="212"/>
      <point x="102" y="249"/>
      <point x="92" y="287" type="curve" smooth="yes"/>
      <point x="82" y="325"/>
      <point x="78" y="362"/>
      <point x="78" y="398" type="curve" smooth="yes"/>
      <point x="78" y="451"/>
      <point x="88" y="502"/>
      <point x="108" y="552" type="curve" smooth="yes"/>
      <point x="128" y="602"/>
      <point x="156" y="647"/>
      <point x="190" y="685" type="curve" smooth="yes"/>
      <point x="224" y="723"/>
      <point x="264" y="757"/>
      <point x="306" y="786" type="curve" smooth="yes"/>
      <point x="348" y="815"/>
      <point x="392" y="838"/>
      <point x="438" y="853" type="curve" smooth="yes"/>
      <point x="484" y="868"/>
      <point x="529" y="876"/>
    </contour>
    <contour>
      <point x="512" y="804" type="curve" smooth="yes"/>
      <point x="467" y="804"/>
      <point x="428" y="793"/>
      <point x="392" y="770" type="curve" smooth="yes"/>
      <point x="356" y="747"/>
      <point x="328" y="717"/>
      <point x="308" y="682" type="curve" smooth="yes"/>
      <point x="288" y="647"/>
      <point x="273" y="611"/>
      <point x="262" y="574" type="curve" smooth="yes"/>
      <point x="251" y="537"/>
      <point x="246" y="503"/>
      <point x="246" y="470" type="curve" smooth="yes"/>
      <point x="246" y="355"/>
      <point x="274" y="266"/>
      <point x="328" y="202" type="curve" smooth="yes"/>
      <point x="382" y="138"/>
      <point x="452" y="106"/>
      <point x="538" y="106" type="curve" smooth="yes"/>
      <point x="576" y="106"/>
      <point x="612" y="115"/>
      <point x="646" y="134" type="curve" smooth="yes"/>
      <point x="680" y="153"/>
      <point x="698" y="170"/>
      <point x="698" y="186" type="curve" smooth="yes"/>
      <point x="698" y="664" type="line" smooth="yes"/>
      <point x="698" y="705"/>
      <point x="678" y="738"/>
      <point x="640" y="764" type="curve" smooth="yes"/>
      <point x="602" y="790"/>
      <point x="559" y="804"/>
    </contour>
  </outline>
</glyph>
<glyph name="u" format="2">
  <advance width="1030"/>
  <unicode hex="0075"/>
  <outline>
    <contour>
      <point x="699" y="640" type="line" smooth="yes"/>
      <point x="699" y="692"/>
      <point x="694" y="728"/>
      <point x="683" y="748" type="curve" smooth="yes"/>
      <point x="668" y="775"/>
      <point x="631" y="788"/>
      <point x="571" y="788" type="curve" smooth="yes"/>
      <point x="568" y="791"/>
      <point x="566" y="799"/>
      <point x="566" y="812" type="curve" smooth="yes"/>
      <point x="566" y="825"/>
      <point x="567" y="835"/>
      <point x="571" y="840" type="curve"/>
      <point x="680" y="844"/>
      <point x="772" y="857"/>
      <point x="845" y="880" type="curve" smooth="yes"/>
      <point x="850" y="880"/>
      <point x="855" y="873"/>
      <point x="860" y="860" type="curve" smooth="yes"/>
      <point x="865" y="847"/>
      <point x="867" y="838"/>
      <point x="867" y="832" type="curve" smooth="yes"/>
      <point x="858" y="813"/>
      <point x="853" y="770"/>
      <point x="853" y="702" type="curve" smooth="yes"/>
      <point x="853" y="610" type="line"/>
      <point x="853" y="282" type="line" smooth="yes"/>
      <point x="853" y="224"/>
      <point x="858" y="173"/>
      <point x="867" y="130" type="curve" smooth="yes"/>
      <point x="869" y="121"/>
      <point x="876" y="114"/>
      <point x="889" y="109" type="curve" smooth="yes"/>
      <point x="902" y="104"/>
      <point x="915" y="100"/>
      <point x="928" y="98" type="curve" smooth="yes"/>
      <point x="941" y="96"/>
      <point x="954" y="96"/>
      <point x="966" y="95" type="curve" smooth="yes"/>
      <point x="978" y="94"/>
      <point x="984" y="94"/>
      <point x="985" y="94" type="curve" smooth="yes"/>
      <point x="989" y="92"/>
      <point x="991" y="85"/>
      <point x="991" y="72" type="curve" smooth="yes"/>
      <point x="991" y="68"/>
      <point x="989" y="62"/>
      <point x="986" y="53" type="curve" smooth="yes"/>
      <point x="983" y="44"/>
      <point x="979" y="40"/>
      <point x="975" y="40" type="curve" smooth="yes"/>
      <point x="956" y="39"/>
      <point x="933" y="36"/>
      <point x="908" y="32" type="curve" smooth="yes"/>
      <point x="883" y="28"/>
      <point x="860" y="23"/>
      <point x="838" y="18" type="curve" smooth="yes"/>
      <point x="816" y="13"/>
      <point x="797" y="7"/>
      <point x="778" y="2" type="curve" smooth="yes"/>
      <point x="759" y="-3"/>
      <point x="744" y="-8"/>
      <point x="732" y="-11" type="curve" smooth="yes"/>
      <point x="715" y="-16" type="line" smooth="yes"/>
      <point x="710" y="-16"/>
      <point x="707" y="-13"/>
      <point x="704" y="-6" type="curve" smooth="yes"/>
      <point x="701" y="1"/>
      <point x="699" y="8"/>
      <point x="699" y="16" type="curve" smooth="yes"/>
      <point x="699" y="108" type="line"/>
      <point x="695" y="118" type="line"/>
      <point x="664" y="85"/>
      <point x="621" y="56"/>
      <point x="566" y="28" type="curve" smooth="yes"/>
      <point x="511" y="0"/>
      <point x="459" y="-14"/>
      <point x="411" y="-14" type="curve" smooth="yes"/>
      <point x="370" y="-14"/>
      <point x="335" y="-5"/>
      <point x="304" y="12" type="curve" smooth="yes"/>
      <point x="273" y="29"/>
      <point x="250" y="51"/>
      <point x="232" y="77" type="curve" smooth="yes"/>
      <point x="214" y="103"/>
      <point x="199" y="135"/>
      <point x="188" y="172" type="curve" smooth="yes"/>
      <point x="177" y="209"/>
      <point x="170" y="245"/>
      <point x="166" y="278" type="curve" smooth="yes"/>
      <point x="162" y="311"/>
      <point x="161" y="346"/>
      <point x="161" y="384" type="curve" smooth="yes"/>
      <point x="161" y="640" type="line" smooth="yes"/>
      <point x="161" y="692"/>
      <point x="156" y="728"/>
      <point x="145" y="748" type="curve" smooth="yes"/>
      <point x="130" y="775"/>
      <point x="93" y="788"/>
      <point x="33" y="788" type="curve" smooth="yes"/>
      <point x="30" y="791"/>
      <point x="28" y="799"/>
      <point x="28" y="812" type="curve" smooth="yes"/>
      <point x="28" y="825"/>
      <point x="29" y="835"/>
      <point x="33" y="840" type="curve"/>
      <point x="142" y="844"/>
      <point x="234" y="857"/>
      <point x="307" y="880" type="curve" smooth="yes"/>
      <point x="312" y="880"/>
      <point x="317" y="874"/>
      <point x="322" y="864" type="curve" smooth="yes"/>
      <point x="327" y="854"/>
      <point x="329" y="846"/>
      <point x="329" y="840" type="curve" smooth="yes"/>
      <point x="320" y="821"/>
      <point x="315" y="775"/>
      <point x="315" y="702" type="curve" smooth="yes"/>
      <point x="315" y="616" type="line"/>
      <point x="315" y="408" type="line" smooth="yes"/>
      <point x="315" y="301"/>
      <point x="331" y="223"/>
      <point x="363" y="173" type="curve" smooth="yes"/>
      <point x="395" y="123"/>
      <point x="446" y="98"/>
      <point x="515" y="98" type="curve" smooth="yes"/>
      <point x="558" y="98"/>
      <point x="600" y="110"/>
      <point x="640" y="134" type="curve" smooth="yes"/>
      <point x="679" y="158"/>
      <point x="699" y="182"/>
      <point x="699" y="207" type="curve" smooth="yes"/>
      <point x="699" y="207"/>
      <point x="699" y="207"/>
      <point x="699" y="208" type="curve" smooth="yes"/>
    </contour>
  </outline>
</glyph>
<glyph name="v" format="2">
  <advance width="946"/>
  <unicode hex="0076"/>
  <outline>
    <contour>
      <point x="205" y="850" type="curve" smooth="yes"/>
      <point x="228" y="850"/>
      <point x="250" y="851"/>
      <point x="270" y="852" type="curve" smooth="yes"/>
      <point x="290" y="853"/>
      <point x="312" y="854"/>
      <point x="338" y="856" type="curve" smooth="yes"/>
      <point x="364" y="858"/>
      <point x="386" y="859"/>
      <point x="405" y="860" type="curve"/>
      <point x="408" y="854"/>
      <point x="408" y="842"/>
      <point x="406" y="826" type="curve" smooth="yes"/>
      <point x="404" y="810"/>
      <point x="402" y="802"/>
      <point x="397" y="802" type="curve" smooth="yes"/>
      <point x="388" y="802"/>
      <point x="377" y="801"/>
      <point x="364" y="800" type="curve" smooth="yes"/>
      <point x="351" y="799"/>
      <point x="337" y="796"/>
      <point x="322" y="790" type="curve" smooth="yes"/>
      <point x="307" y="784"/>
      <point x="299" y="777"/>
      <point x="299" y="768" type="curve" smooth="yes"/>
      <point x="299" y="765"/>
      <point x="300" y="763"/>
      <point x="301" y="760" type="curve" smooth="yes"/>
      <point x="521" y="220" type="line"/>
      <point x="589" y="397"/>
      <point x="648" y="549"/>
      <point x="699" y="674" type="curve" smooth="yes"/>
      <point x="707" y="693"/>
      <point x="711" y="715"/>
      <point x="711" y="738" type="curve" smooth="yes"/>
      <point x="711" y="758"/>
      <point x="700" y="774"/>
      <point x="679" y="785" type="curve" smooth="yes"/>
      <point x="658" y="796"/>
      <point x="630" y="802"/>
      <point x="595" y="802" type="curve" smooth="yes"/>
      <point x="590" y="802"/>
      <point x="588" y="810"/>
      <point x="588" y="827" type="curve" smooth="yes"/>
      <point x="588" y="844"/>
      <point x="590" y="855"/>
      <point x="595" y="860" type="curve"/>
      <point x="609" y="859"/>
      <point x="625" y="858"/>
      <point x="643" y="856" type="curve" smooth="yes"/>
      <point x="661" y="854"/>
      <point x="678" y="853"/>
      <point x="695" y="852" type="curve" smooth="yes"/>
      <point x="712" y="851"/>
      <point x="732" y="850"/>
      <point x="757" y="850" type="curve" smooth="yes"/>
      <point x="780" y="850"/>
      <point x="800" y="851"/>
      <point x="818" y="852" type="curve" smooth="yes"/>
      <point x="836" y="853"/>
      <point x="856" y="854"/>
      <point x="879" y="856" type="curve" smooth="yes"/>
      <point x="902" y="858"/>
      <point x="923" y="859"/>
      <point x="943" y="860" type="curve"/>
      <point x="947" y="854"/>
      <point x="948" y="842"/>
      <point x="946" y="826" type="curve" smooth="yes"/>
      <point x="944" y="810"/>
      <point x="941" y="802"/>
      <point x="937" y="802" type="curve" smooth="yes"/>
      <point x="920" y="802"/>
      <point x="896" y="797"/>
      <point x="868" y="786" type="curve" smooth="yes"/>
      <point x="840" y="775"/>
      <point x="821" y="758"/>
      <point x="811" y="734" type="curve" smooth="yes"/>
      <point x="668" y="394"/>
      <point x="568" y="153"/>
      <point x="511" y="12" type="curve" smooth="yes"/>
      <point x="508" y="5"/>
      <point x="501" y="-2"/>
      <point x="488" y="-10" type="curve" smooth="yes"/>
      <point x="475" y="-18"/>
      <point x="466" y="-22"/>
      <point x="459" y="-22" type="curve" smooth="yes"/>
      <point x="450" y="-22"/>
      <point x="444" y="-19"/>
      <point x="441" y="-14" type="curve" smooth="yes"/>
      <point x="410" y="60"/>
      <point x="372" y="151"/>
      <point x="329" y="260" type="curve" smooth="yes"/>
      <point x="286" y="369"/>
      <point x="247" y="462"/>
      <point x="214" y="542" type="curve" smooth="yes"/>
      <point x="181" y="622"/>
      <point x="148" y="695"/>
      <point x="115" y="762" type="curve" smooth="yes"/>
      <point x="102" y="789"/>
      <point x="66" y="802"/>
      <point x="5" y="802" type="curve"/>
      <point x="-3" y="821"/>
      <point x="-3" y="841"/>
      <point x="5" y="860" type="curve"/>
      <point x="24" y="859"/>
      <point x="46" y="858"/>
      <point x="71" y="856" type="curve" smooth="yes"/>
      <point x="96" y="854"/>
      <point x="118" y="853"/>
      <point x="138" y="852" type="curve" smooth="yes"/>
      <point x="158" y="851"/>
      <point x="181" y="850"/>
    </contour>
  </outline>
</glyph>
<glyph name="w" format="2">
  <advance width="1442"/>
  <unicode hex="0077"/>
  <outline>
    <contour>
      <point x="202" y="850" type="curve" smooth="yes"/>
      <point x="225" y="850"/>
      <point x="246" y="851"/>
      <point x="266" y="852" type="curve" smooth="yes"/>
      <point x="286" y="853"/>
      <point x="310" y="854"/>
      <point x="336" y="856" type="curve" smooth="yes"/>
      <point x="362" y="858"/>
      <point x="383" y="859"/>
      <point x="402" y="860" type="curve"/>
      <point x="404" y="854"/>
      <point x="404" y="843"/>
      <point x="404" y="828" type="curve" smooth="yes"/>
      <point x="404" y="813"/>
      <point x="402" y="804"/>
      <point x="398" y="802" type="curve" smooth="yes"/>
      <point x="388" y="802"/>
      <point x="377" y="801"/>
      <point x="364" y="800" type="curve" smooth="yes"/>
      <point x="351" y="799"/>
      <point x="338" y="794"/>
      <point x="322" y="786" type="curve" smooth="yes"/>
      <point x="306" y="778"/>
      <point x="298" y="769"/>
      <point x="298" y="756" type="curve" smooth="yes"/>
      <point x="298" y="755"/>
      <point x="301" y="745"/>
      <point x="308" y="726" type="curve" smooth="yes"/>
      <point x="322" y="689"/>
      <point x="391" y="525"/>
      <point x="514" y="234" type="curve"/>
      <point x="530" y="275"/>
      <point x="548" y="321"/>
      <point x="569" y="373" type="curve" smooth="yes"/>
      <point x="590" y="425"/>
      <point x="605" y="464"/>
      <point x="616" y="490" type="curve" smooth="yes"/>
      <point x="627" y="516"/>
      <point x="638" y="544"/>
      <point x="648" y="571" type="curve" smooth="yes"/>
      <point x="658" y="598"/>
      <point x="666" y="618"/>
      <point x="670" y="630" type="curve" smooth="yes"/>
      <point x="674" y="642"/>
      <point x="676" y="651"/>
      <point x="676" y="654" type="curve" smooth="yes"/>
      <point x="676" y="662"/>
      <point x="671" y="678"/>
      <point x="661" y="702" type="curve" smooth="yes"/>
      <point x="651" y="726"/>
      <point x="640" y="747"/>
      <point x="628" y="764" type="curve" smooth="yes"/>
      <point x="611" y="789"/>
      <point x="581" y="802"/>
      <point x="540" y="802" type="curve" smooth="yes"/>
      <point x="535" y="805"/>
      <point x="532" y="814"/>
      <point x="532" y="829" type="curve" smooth="yes"/>
      <point x="532" y="844"/>
      <point x="535" y="855"/>
      <point x="540" y="860" type="curve"/>
      <point x="557" y="859"/>
      <point x="583" y="857"/>
      <point x="620" y="854" type="curve" smooth="yes"/>
      <point x="657" y="851"/>
      <point x="691" y="850"/>
      <point x="722" y="850" type="curve" smooth="yes"/>
      <point x="727" y="850"/>
      <point x="797" y="853"/>
      <point x="930" y="860" type="curve"/>
      <point x="933" y="853"/>
      <point x="934" y="843"/>
      <point x="934" y="829" type="curve" smooth="yes"/>
      <point x="934" y="815"/>
      <point x="932" y="806"/>
      <point x="928" y="802" type="curve"/>
      <point x="861" y="802"/>
      <point x="828" y="781"/>
      <point x="828" y="738" type="curve" smooth="yes"/>
      <point x="828" y="735"/>
      <point x="830" y="728"/>
      <point x="833" y="716" type="curve" smooth="yes"/>
      <point x="836" y="706"/>
      <point x="841" y="692"/>
      <point x="847" y="675" type="curve" smooth="yes"/>
      <point x="853" y="658"/>
      <point x="862" y="635"/>
      <point x="873" y="606" type="curve" smooth="yes"/>
      <point x="884" y="577"/>
      <point x="896" y="546"/>
      <point x="908" y="516" type="curve" smooth="yes"/>
      <point x="920" y="486"/>
      <point x="936" y="445"/>
      <point x="957" y="392" type="curve" smooth="yes"/>
      <point x="978" y="339"/>
      <point x="997" y="289"/>
      <point x="1016" y="240" type="curve"/>
      <point x="1115" y="487"/>
      <point x="1174" y="637"/>
      <point x="1191" y="688" type="curve" smooth="yes"/>
      <point x="1198" y="709"/>
      <point x="1202" y="725"/>
      <point x="1202" y="736" type="curve" smooth="yes"/>
      <point x="1202" y="749"/>
      <point x="1199" y="761"/>
      <point x="1192" y="770" type="curve" smooth="yes"/>
      <point x="1185" y="779"/>
      <point x="1174" y="786"/>
      <point x="1158" y="790" type="curve" smooth="yes"/>
      <point x="1142" y="794"/>
      <point x="1130" y="797"/>
      <point x="1122" y="798" type="curve" smooth="yes"/>
      <point x="1114" y="799"/>
      <point x="1101" y="801"/>
      <point x="1082" y="802" type="curve" smooth="yes"/>
      <point x="1078" y="805"/>
      <point x="1076" y="815"/>
      <point x="1076" y="830" type="curve" smooth="yes"/>
      <point x="1076" y="845"/>
      <point x="1077" y="855"/>
      <point x="1082" y="860" type="curve"/>
      <point x="1101" y="859"/>
      <point x="1127" y="857"/>
      <point x="1160" y="854" type="curve" smooth="yes"/>
      <point x="1193" y="851"/>
      <point x="1225" y="850"/>
      <point x="1256" y="850" type="curve" smooth="yes"/>
      <point x="1279" y="850"/>
      <point x="1298" y="851"/>
      <point x="1316" y="852" type="curve" smooth="yes"/>
      <point x="1334" y="853"/>
      <point x="1354" y="854"/>
      <point x="1376" y="856" type="curve" smooth="yes"/>
      <point x="1398" y="858"/>
      <point x="1420" y="859"/>
      <point x="1440" y="860" type="curve" smooth="yes"/>
      <point x="1442" y="858"/>
      <point x="1442" y="848"/>
      <point x="1442" y="832" type="curve" smooth="yes"/>
      <point x="1442" y="816"/>
      <point x="1439" y="806"/>
      <point x="1434" y="802" type="curve"/>
      <point x="1415" y="802"/>
      <point x="1391" y="796"/>
      <point x="1360" y="785" type="curve" smooth="yes"/>
      <point x="1329" y="774"/>
      <point x="1308" y="755"/>
      <point x="1298" y="730" type="curve" smooth="yes"/>
      <point x="1181" y="433"/>
      <point x="1084" y="194"/>
      <point x="1008" y="12" type="curve" smooth="yes"/>
      <point x="1005" y="4"/>
      <point x="1000" y="-4"/>
      <point x="990" y="-11" type="curve" smooth="yes"/>
      <point x="980" y="-18"/>
      <point x="972" y="-22"/>
      <point x="966" y="-22" type="curve" smooth="yes"/>
      <point x="953" y="-22"/>
      <point x="945" y="-19"/>
      <point x="942" y="-14" type="curve" smooth="yes"/>
      <point x="720" y="564" type="line"/>
      <point x="504" y="16" type="line" smooth="yes"/>
      <point x="503" y="11"/>
      <point x="496" y="4"/>
      <point x="485" y="-6" type="curve" smooth="yes"/>
      <point x="474" y="-16"/>
      <point x="463" y="-22"/>
      <point x="454" y="-22" type="curve" smooth="yes"/>
      <point x="445" y="-22"/>
      <point x="439" y="-19"/>
      <point x="436" y="-14" type="curve" smooth="yes"/>
      <point x="325" y="265"/>
      <point x="217" y="522"/>
      <point x="112" y="758" type="curve" smooth="yes"/>
      <point x="99" y="787"/>
      <point x="63" y="802"/>
      <point x="4" y="802" type="curve"/>
      <point x="1" y="808"/>
      <point x="0" y="818"/>
      <point x="0" y="831" type="curve" smooth="yes"/>
      <point x="0" y="844"/>
      <point x="1" y="854"/>
      <point x="4" y="860" type="curve"/>
      <point x="24" y="859"/>
      <point x="46" y="858"/>
      <point x="70" y="856" type="curve" smooth="yes"/>
      <point x="94" y="854"/>
      <point x="116" y="853"/>
      <point x="136" y="852" type="curve" smooth="yes"/>
      <point x="156" y="851"/>
      <point x="178" y="850"/>
    </contour>
  </outline>
</glyph>
<glyph name="x" format="2">
  <advance width="952"/>
  <unicode hex="0078"/>
  <outline>
    <contour>
      <point x="246" y="850" type="curve" smooth="yes"/>
      <point x="307" y="850"/>
      <point x="375" y="853"/>
      <point x="448" y="860" type="curve"/>
      <point x="449" y="853"/>
      <point x="450" y="843"/>
      <point x="450" y="830" type="curve" smooth="yes"/>
      <point x="450" y="817"/>
      <point x="448" y="807"/>
      <point x="444" y="802" type="curve"/>
      <point x="391" y="802"/>
      <point x="364" y="791"/>
      <point x="364" y="768" type="curve" smooth="yes"/>
      <point x="364" y="763"/>
      <point x="367" y="755"/>
      <point x="374" y="744" type="curve" smooth="yes"/>
      <point x="506" y="534" type="line"/>
      <point x="517" y="551"/>
      <point x="536" y="579"/>
      <point x="564" y="617" type="curve" smooth="yes"/>
      <point x="592" y="655"/>
      <point x="612" y="686"/>
      <point x="626" y="710" type="curve" smooth="yes"/>
      <point x="640" y="734"/>
      <point x="648" y="752"/>
      <point x="648" y="764" type="curve" smooth="yes"/>
      <point x="648" y="773"/>
      <point x="643" y="780"/>
      <point x="632" y="786" type="curve" smooth="yes"/>
      <point x="621" y="792"/>
      <point x="609" y="796"/>
      <point x="597" y="798" type="curve" smooth="yes"/>
      <point x="585" y="800"/>
      <point x="572" y="800"/>
      <point x="558" y="801" type="curve" smooth="yes"/>
      <point x="544" y="802"/>
      <point x="537" y="802"/>
      <point x="536" y="802" type="curve" smooth="yes"/>
      <point x="534" y="803"/>
      <point x="532" y="812"/>
      <point x="532" y="829" type="curve" smooth="yes"/>
      <point x="532" y="846"/>
      <point x="533" y="856"/>
      <point x="536" y="860" type="curve"/>
      <point x="555" y="859"/>
      <point x="578" y="858"/>
      <point x="603" y="856" type="curve" smooth="yes"/>
      <point x="628" y="854"/>
      <point x="652" y="853"/>
      <point x="672" y="852" type="curve" smooth="yes"/>
      <point x="692" y="851"/>
      <point x="714" y="850"/>
      <point x="738" y="850" type="curve" smooth="yes"/>
      <point x="798" y="850"/>
      <point x="851" y="853"/>
      <point x="898" y="860" type="curve"/>
      <point x="899" y="855"/>
      <point x="900" y="844"/>
      <point x="900" y="827" type="curve" smooth="yes"/>
      <point x="900" y="810"/>
      <point x="898" y="802"/>
      <point x="896" y="802" type="curve" smooth="yes"/>
      <point x="813" y="797"/>
      <point x="761" y="783"/>
      <point x="742" y="758" type="curve" smooth="yes"/>
      <point x="725" y="735"/>
      <point x="700" y="700"/>
      <point x="666" y="652" type="curve" smooth="yes"/>
      <point x="632" y="604"/>
      <point x="604" y="565"/>
      <point x="582" y="535" type="curve" smooth="yes"/>
      <point x="560" y="505"/>
      <point x="547" y="487"/>
      <point x="542" y="480" type="curve"/>
      <point x="782" y="124" type="line" smooth="yes"/>
      <point x="815" y="76"/>
      <point x="867" y="52"/>
      <point x="936" y="52" type="curve" smooth="yes"/>
      <point x="937" y="52"/>
      <point x="938" y="48"/>
      <point x="938" y="39" type="curve" smooth="yes"/>
      <point x="938" y="30"/>
      <point x="939" y="21"/>
      <point x="938" y="12" type="curve" smooth="yes"/>
      <point x="937" y="3"/>
      <point x="936" y="-3"/>
      <point x="934" y="-6" type="curve" smooth="yes"/>
      <point x="917" y="-5"/>
      <point x="896" y="-4"/>
      <point x="872" y="-2" type="curve" smooth="yes"/>
      <point x="848" y="0"/>
      <point x="827" y="1"/>
      <point x="808" y="2" type="curve" smooth="yes"/>
      <point x="789" y="3"/>
      <point x="768" y="4"/>
      <point x="746" y="4" type="curve" smooth="yes"/>
      <point x="721" y="4"/>
      <point x="697" y="3"/>
      <point x="674" y="2" type="curve" smooth="yes"/>
      <point x="651" y="1"/>
      <point x="625" y="0"/>
      <point x="596" y="-2" type="curve" smooth="yes"/>
      <point x="567" y="-4"/>
      <point x="543" y="-5"/>
      <point x="524" y="-6" type="curve"/>
      <point x="521" y="1"/>
      <point x="520" y="12"/>
      <point x="520" y="28" type="curve" smooth="yes"/>
      <point x="520" y="44"/>
      <point x="523" y="52"/>
      <point x="526" y="52" type="curve" smooth="yes"/>
      <point x="545" y="53"/>
      <point x="564" y="57"/>
      <point x="582" y="63" type="curve" smooth="yes"/>
      <point x="600" y="69"/>
      <point x="610" y="77"/>
      <point x="610" y="88" type="curve" smooth="yes"/>
      <point x="610" y="91"/>
      <point x="609" y="95"/>
      <point x="606" y="100" type="curve" smooth="yes"/>
      <point x="537" y="213"/>
      <point x="484" y="297"/>
      <point x="448" y="350" type="curve"/>
      <point x="441" y="339"/>
      <point x="420" y="310"/>
      <point x="386" y="260" type="curve" smooth="yes"/>
      <point x="352" y="210"/>
      <point x="325" y="168"/>
      <point x="304" y="134" type="curve" smooth="yes"/>
      <point x="296" y="121"/>
      <point x="292" y="109"/>
      <point x="292" y="96" type="curve" smooth="yes"/>
      <point x="292" y="88"/>
      <point x="295" y="82"/>
      <point x="300" y="76" type="curve" smooth="yes"/>
      <point x="305" y="70"/>
      <point x="314" y="65"/>
      <point x="326" y="62" type="curve" smooth="yes"/>
      <point x="338" y="59"/>
      <point x="349" y="57"/>
      <point x="356" y="56" type="curve" smooth="yes"/>
      <point x="363" y="55"/>
      <point x="374" y="54"/>
      <point x="391" y="53" type="curve" smooth="yes"/>
      <point x="396" y="52"/>
      <point x="399" y="52"/>
      <point x="402" y="52" type="curve" smooth="yes"/>
      <point x="403" y="52"/>
      <point x="404" y="48"/>
      <point x="405" y="40" type="curve" smooth="yes"/>
      <point x="406" y="32"/>
      <point x="406" y="22"/>
      <point x="405" y="13" type="curve" smooth="yes"/>
      <point x="404" y="4"/>
      <point x="403" y="-3"/>
      <point x="400" y="-6" type="curve" smooth="yes"/>
      <point x="381" y="-5"/>
      <point x="360" y="-4"/>
      <point x="337" y="-2" type="curve" smooth="yes"/>
      <point x="314" y="0"/>
      <point x="293" y="1"/>
      <point x="274" y="2" type="curve" smooth="yes"/>
      <point x="255" y="3"/>
      <point x="233" y="4"/>
      <point x="210" y="4" type="curve" smooth="yes"/>
      <point x="187" y="4"/>
      <point x="167" y="3"/>
      <point x="148" y="2" type="curve" smooth="yes"/>
      <point x="129" y="1"/>
      <point x="107" y="0"/>
      <point x="84" y="-2" type="curve" smooth="yes"/>
      <point x="61" y="-4"/>
      <point x="40" y="-5"/>
      <point x="22" y="-6" type="curve"/>
      <point x="20" y="2"/>
      <point x="19" y="13"/>
      <point x="20" y="26" type="curve" smooth="yes"/>
      <point x="21" y="39"/>
      <point x="23" y="47"/>
      <point x="26" y="52" type="curve" smooth="yes"/>
      <point x="29" y="53"/>
      <point x="37" y="54"/>
      <point x="50" y="56" type="curve" smooth="yes"/>
      <point x="63" y="58"/>
      <point x="72" y="59"/>
      <point x="76" y="60" type="curve" smooth="yes"/>
      <point x="80" y="61"/>
      <point x="90" y="62"/>
      <point x="102" y="64" type="curve" smooth="yes"/>
      <point x="114" y="66"/>
      <point x="122" y="70"/>
      <point x="128" y="72" type="curve" smooth="yes"/>
      <point x="134" y="74"/>
      <point x="142" y="77"/>
      <point x="152" y="81" type="curve" smooth="yes"/>
      <point x="162" y="85"/>
      <point x="170" y="90"/>
      <point x="176" y="94" type="curve" smooth="yes"/>
      <point x="182" y="98"/>
      <point x="190" y="104"/>
      <point x="197" y="110" type="curve" smooth="yes"/>
      <point x="204" y="116"/>
      <point x="211" y="123"/>
      <point x="216" y="130" type="curve" smooth="yes"/>
      <point x="340" y="309"/>
      <point x="405" y="403"/>
      <point x="412" y="412" type="curve"/>
      <point x="180" y="758" type="line" smooth="yes"/>
      <point x="170" y="773"/>
      <point x="151" y="785"/>
      <point x="124" y="792" type="curve" smooth="yes"/>
      <point x="97" y="799"/>
      <point x="71" y="802"/>
      <point x="46" y="802" type="curve" smooth="yes"/>
      <point x="45" y="802"/>
      <point x="44" y="806"/>
      <point x="44" y="814" type="curve" smooth="yes"/>
      <point x="44" y="822"/>
      <point x="43" y="831"/>
      <point x="44" y="840" type="curve" smooth="yes"/>
      <point x="45" y="849"/>
      <point x="46" y="856"/>
      <point x="48" y="860" type="curve"/>
      <point x="121" y="853"/>
      <point x="187" y="850"/>
    </contour>
  </outline>
</glyph>
<glyph name="z" format="2">
  <advance width="894"/>
  <unicode hex="007A"/>
  <outline>
    <contour>
      <point x="296" y="862" type="curve" smooth="yes"/>
      <point x="552" y="862" type="line" smooth="yes"/>
      <point x="627" y="862"/>
      <point x="709" y="867"/>
      <point x="796" y="878" type="curve"/>
      <point x="800" y="871"/>
      <point x="802" y="855"/>
      <point x="802" y="830" type="curve"/>
      <point x="449" y="327"/>
      <point x="272" y="74"/>
      <point x="272" y="70" type="curve"/>
      <point x="552" y="70" type="line" smooth="yes"/>
      <point x="609" y="70"/>
      <point x="656" y="88"/>
      <point x="694" y="124" type="curve" smooth="yes"/>
      <point x="732" y="160"/>
      <point x="759" y="201"/>
      <point x="772" y="250" type="curve" smooth="yes"/>
      <point x="773" y="258"/>
      <point x="778" y="262"/>
      <point x="786" y="262" type="curve" smooth="yes"/>
      <point x="794" y="262"/>
      <point x="803" y="259"/>
      <point x="814" y="254" type="curve" smooth="yes"/>
      <point x="825" y="249"/>
      <point x="833" y="244"/>
      <point x="838" y="238" type="curve"/>
      <point x="798" y="141"/>
      <point x="768" y="61"/>
      <point x="748" y="0" type="curve"/>
      <point x="98" y="0" type="line" smooth="yes"/>
      <point x="91" y="2"/>
      <point x="84" y="8"/>
      <point x="78" y="16" type="curve" smooth="yes"/>
      <point x="72" y="24"/>
      <point x="68" y="32"/>
      <point x="68" y="40" type="curve" smooth="yes"/>
      <point x="68" y="48"/>
      <point x="69" y="53"/>
      <point x="70" y="54" type="curve" smooth="yes"/>
      <point x="584" y="792" type="line"/>
      <point x="304" y="794" type="line" smooth="yes"/>
      <point x="286" y="794"/>
      <point x="269" y="792"/>
      <point x="254" y="786" type="curve" smooth="yes"/>
      <point x="239" y="780"/>
      <point x="227" y="773"/>
      <point x="218" y="766" type="curve" smooth="yes"/>
      <point x="209" y="759"/>
      <point x="200" y="749"/>
      <point x="192" y="737" type="curve" smooth="yes"/>
      <point x="184" y="725"/>
      <point x="178" y="715"/>
      <point x="174" y="707" type="curve" smooth="yes"/>
      <point x="170" y="699"/>
      <point x="166" y="688"/>
      <point x="161" y="676" type="curve" smooth="yes"/>
      <point x="156" y="664"/>
      <point x="153" y="657"/>
      <point x="152" y="654" type="curve" smooth="yes"/>
      <point x="150" y="650"/>
      <point x="145" y="646"/>
      <point x="136" y="642" type="curve" smooth="yes"/>
      <point x="127" y="638"/>
      <point x="117" y="636"/>
      <point x="108" y="636" type="curve" smooth="yes"/>
      <point x="93" y="636"/>
      <point x="86" y="638"/>
      <point x="86" y="642" type="curve" smooth="yes"/>
      <point x="102" y="701"/>
      <point x="113" y="780"/>
      <point x="118" y="878" type="curve"/>
      <point x="189" y="867"/>
      <point x="248" y="862"/>
    </contour>
  </outline>
</glyph>
